STARTFONT 2.1
FONT -FontForge-Anton-Book-R-Normal--75-720-75-75-P-319-ISO10646-1
SIZE 72 75 75
FONTBOUNDINGBOX 128 130 -19 -24
COMMENT "Generated by fontforge, http://fontforge.sourceforge.net"
COMMENT "Copyright 2011 The Anton Project Authors"
STARTPROPERTIES 40
FOUNDRY "FontForge"
FAMILY_NAME "Anton"
WEIGHT_NAME "Book"
SLANT "R"
SETWIDTH_NAME "Normal"
ADD_STYLE_NAME ""
PIXEL_SIZE 75
POINT_SIZE 720
RESOLUTION_X 75
RESOLUTION_Y 75
SPACING "P"
AVERAGE_WIDTH 319
CHARSET_REGISTRY "ISO10646"
CHARSET_ENCODING "1"
FONTNAME_REGISTRY ""
CHARSET_COLLECTIONS "ISO8859-2 ISO8859-9 ISO8859-4 ISO10646-1"
FONT_NAME "Anton-Regular"
FACE_NAME "Anton Regular"
COPYRIGHT "Copyright 2011 The Anton Project Authors"
FONT_VERSION "2.000"
FONT_ASCENT 60
FONT_DESCENT 15
UNDERLINE_POSITION -11
UNDERLINE_THICKNESS 4
X_HEIGHT 54
CAP_HEIGHT 64
DEFAULT_CHAR 1
RAW_ASCENT 800
RAW_DESCENT 200
NORM_SPACE 18
RELATIVE_WEIGHT 40
RELATIVE_SETWIDTH 50
SUPERSCRIPT_X 0
SUPERSCRIPT_Y 26
SUPERSCRIPT_SIZE 45
SUBSCRIPT_X 0
SUBSCRIPT_Y 5
SUBSCRIPT_SIZE 45
AVG_LOWERCASE_WIDTH 351
AVG_UPPERCASE_WIDTH 352
ENDPROPERTIES
CHARS 659
STARTCHAR NULL.dup1
ENCODING 0
SWIDTH 0 0
DWIDTH 0 0
BBX 1 1 0 0
BITMAP
00
ENDCHAR
STARTCHAR uni0002
ENCODING 2
SWIDTH 293 0
DWIDTH 22 0
BBX 1 1 0 0
BITMAP
00
ENDCHAR
STARTCHAR uni0009
ENCODING 9
SWIDTH 293 0
DWIDTH 22 0
BBX 1 1 0 0
BITMAP
00
ENDCHAR
STARTCHAR uni000A
ENCODING 10
SWIDTH 293 0
DWIDTH 22 0
BBX 1 1 0 0
BITMAP
00
ENDCHAR
STARTCHAR nonmarkingreturn
ENCODING 13
SWIDTH 234 0
DWIDTH 18 0
BBX 1 1 0 0
BITMAP
00
ENDCHAR
STARTCHAR space
ENCODING 32
SWIDTH 234 0
DWIDTH 18 0
BBX 1 1 0 0
BITMAP
00
ENDCHAR
STARTCHAR exclam
ENCODING 33
SWIDTH 229 0
DWIDTH 17 0
BBX 13 65 2 0
BITMAP
FFF8
FFF8
FFF8
FFF8
FFF8
FFF8
FFF8
FFF8
FFF8
7FF8
7FF8
7FF8
7FF0
7FF0
7FF0
7FF0
7FF0
7FF0
7FF0
7FF0
7FF0
7FF0
7FF0
7FF0
7FF0
7FF0
7FF0
3FF0
3FF0
3FF0
3FE0
3FE0
3FE0
3FE0
3FE0
3FE0
3FE0
3FE0
3FE0
3FE0
3FE0
3FE0
3FE0
3FE0
3FE0
3FE0
1FE0
0000
0000
0000
0000
0000
0000
0000
FFF8
FFF8
FFF8
FFF8
FFF8
FFF8
FFF8
FFF8
FFF8
FFF8
FFF8
ENDCHAR
STARTCHAR quotedbl
ENCODING 34
SWIDTH 429 0
DWIDTH 32 0
BBX 29 23 2 42
BITMAP
FFF0FFF8
FFF0FFF0
FFF0FFF0
FFF0FFF0
FFF0FFF0
FFF07FF0
7FF07FF0
7FF07FF0
7FE07FF0
7FE07FE0
7FE07FE0
7FE07FE0
7FE03FE0
3FE03FE0
3FE03FE0
3FE03FE0
3FC03FE0
3FC03FC0
3FC01FC0
1FC01FC0
1FC01FC0
1FC01FC0
1FC01FC0
ENDCHAR
STARTCHAR numbersign
ENCODING 35
SWIDTH 546 0
DWIDTH 41 0
BBX 39 59 1 0
BITMAP
000FFC0FFE
001FFC0FFC
001FFC0FFC
001FF80FFC
001FF81FFC
001FF81FFC
003FF81FF8
003FF81FF8
003FF01FF8
003FF03FF8
003FF03FF8
007FF03FF0
007FF03FF0
007FE03FF0
007FE07FF0
007FE07FF0
00FFE07FE0
1FFFFFFFFE
1FFFFFFFFE
1FFFFFFFFE
1FFFFFFFFE
1FFFFFFFFE
1FFFFFFFFE
1FFFFFFFFE
1FFFFFFFFE
1FFFFFFFFE
01FF81FF80
03FF81FF80
03FF81FF80
03FF03FF80
03FF03FF80
7FFFFFFFF8
7FFFFFFFF8
7FFFFFFFF8
7FFFFFFFF8
7FFFFFFFF8
7FFFFFFFF8
7FFFFFFFF8
7FFFFFFFF8
7FFFFFFFF8
0FFC0FFE00
0FFC0FFE00
0FFC0FFC00
1FFC0FFC00
1FFC0FFC00
1FF81FFC00
1FF81FFC00
1FF81FF800
3FF81FF800
3FF81FF800
3FF03FF800
3FF03FF800
3FF03FF000
7FF03FF000
7FF03FF000
7FE03FF000
7FE07FF000
7FE07FF000
FFE07FE000
ENDCHAR
STARTCHAR dollar
ENCODING 36
SWIDTH 462 0
DWIDTH 35 0
BBX 32 66 1 -4
BITMAP
0007E000
0007E000
0007E000
0007E000
0007E000
003FFE00
00FFFF80
03FFFFE0
07FFFFF0
0FFFFFF8
1FFFFFF8
1FFFFFFC
3FFFFFFC
3FFFFFFE
7FFFFFFE
7FFFFFFE
7FFC3FFF
7FF81FFF
7FF81FFF
7FF81FFF
7FF81FFF
7FFC1FFF
7FFE0000
3FFF0000
3FFF8000
1FFFC000
1FFFE000
0FFFF000
07FFF800
03FFFC00
01FFFE00
00FFFF00
007FFF80
003FFFC0
001FFFE0
000FFFF0
0007FFF8
0003FFF8
0001FFFC
0001FFFE
0000FFFE
00007FFE
FFF83FFF
FFF81FFF
FFF81FFF
FFF81FFF
FFF81FFF
FFFC1FFF
7FFE3FFF
7FFFFFFF
7FFFFFFF
7FFFFFFF
3FFFFFFE
3FFFFFFE
3FFFFFFC
1FFFFFF8
0FFFFFF8
07FFFFE0
03FFFFC0
007FFF00
0007F000
0007E000
0007E000
0007E000
0007E000
0007E000
ENDCHAR
STARTCHAR percent
ENCODING 37
SWIDTH 1057 0
DWIDTH 79 0
BBX 76 65 2 0
BITMAP
00000000003FFC000000
007FC000007FF8000000
03FFF800007FF8000000
07FFFE00007FF8000000
0FFFFF00007FF0000000
1FFFFF8000FFF0000000
3FFFFFC000FFF0000000
7FFFFFC000FFF0000000
7FFFFFE001FFE0000000
7FF0FFE001FFE0000000
FFE07FF001FFE0000000
FFE07FF003FFC0000000
FFE07FF003FFC0000000
FFC07FF003FFC0000000
FFC07FF003FF80000000
FFC07FF007FF80000000
FFC07FF007FF80000000
FFC07FF007FF00000000
FFC07FF00FFF00000000
FFC07FF00FFF00000000
FFC07FF00FFF00000000
FFC07FF01FFE007FC000
FFC07FF01FFE03FFF800
FFC07FF01FFE0FFFFC00
FFC07FF03FFC1FFFFF00
FFC07FF03FFC3FFFFF80
FFC07FF03FFC7FFFFF80
FFC07FF03FF87FFFFFC0
FFC07FF07FF8FFFFFFC0
FFC07FF07FF8FFE1FFE0
FFC07FF07FF8FFC0FFE0
FFC07FF0FFF1FFC07FE0
FFE07FF0FFF1FFC07FE0
FFE0FFF0FFF1FFC07FF0
FFF1FFF1FFE1FFC07FF0
FFFFFFE1FFE1FFC07FF0
7FFFFFE1FFE1FFC07FF0
7FFFFFE1FFC1FFC07FF0
3FFFFFC3FFC1FFC07FF0
3FFFFFC3FFC1FFC07FF0
1FFFFF83FF81FFC07FF0
0FFFFF07FF81FFC07FF0
07FFFE07FF81FFC07FF0
01FFF807FF81FFC07FF0
007FC00FFF01FFC07FF0
0000000FFF01FFC07FF0
0000000FFF01FFC07FF0
0000001FFE01FFC07FF0
0000001FFE01FFC07FF0
0000001FFE01FFC07FF0
0000001FFC01FFC07FF0
0000003FFC01FFC07FF0
0000003FFC01FFC07FF0
0000003FFC01FFC0FFE0
0000007FF801FFE1FFE0
0000007FF800FFFFFFE0
0000007FF800FFFFFFE0
000000FFF000FFFFFFC0
000000FFF0007FFFFFC0
000000FFF0007FFFFF80
000000FFE0003FFFFF80
000001FFE0001FFFFF00
000001FFE0000FFFFE00
000001FFC00007FFF800
000003FFC00000FFE000
ENDCHAR
STARTCHAR ampersand
ENCODING 38
SWIDTH 505 0
DWIDTH 38 0
BBX 36 59 1 0
BITMAP
0003FC0000
001FFF8000
003FFFC000
007FFFF000
00FFFFF800
01FFFFF800
03FFFFFC00
03FFFFFC00
03FFFFFC00
07FFC7FE00
07FF87FE00
07FF87FE00
07FF87FE00
07FF87FE00
07FFC7FC00
03FFCFFC00
03FFCFFC00
03FFFFF800
03FFFFF800
01FFFFF000
01FFFFF000
01FFFFE000
00FFFFC000
00FFFF8200
007FFF0600
00FFFE0F00
01FFFC1F80
03FFFE1F80
07FFFE3FC0
0FFFFE3FE0
0FFFFF7FE0
1FFFFF7FF0
3FFFFFFFE0
3FFFFFFFC0
3FFFFFFF80
7FFFFFFF00
7FFBFFFF00
7FF3FFFE00
7FF3FFFE00
7FF1FFFC00
FFF1FFFC00
FFF0FFF800
FFF0FFF800
FFF0FFF800
FFF07FF800
FFF07FFC00
FFF03FFC00
FFF03FFC00
7FF07FFE00
7FF0FFFE00
7FFFFFFF00
7FFFFFFF00
3FFFFFFF00
3FFFFFFF80
1FFFFFFF80
1FFFFFFFC0
0FFFF3FFC0
07FFE3FFE0
01FF83FFE0
ENDCHAR
STARTCHAR quotesingle
ENCODING 39
SWIDTH 214 0
DWIDTH 16 0
BBX 12 23 2 42
BITMAP
FFF0
FFF0
FFF0
FFF0
FFF0
FFF0
7FF0
7FF0
7FE0
7FE0
7FE0
7FE0
7FE0
3FE0
3FE0
3FE0
3FC0
3FC0
3FC0
1FC0
1FC0
1FC0
1FC0
ENDCHAR
STARTCHAR parenleft
ENCODING 40
SWIDTH 291 0
DWIDTH 22 0
BBX 18 65 2 0
BITMAP
0007C0
003FC0
00FFC0
03FFC0
07FFC0
0FFFC0
0FFFC0
1FFFC0
3FFFC0
3FFFC0
7FFF80
7FFE00
7FFC00
7FFC00
FFFC00
FFFC00
FFF800
FFF800
FFF800
FFF800
FFF800
FFF800
FFF800
FFF800
FFF800
FFF800
FFF800
FFF800
FFF800
FFF800
FFF800
FFF800
FFF800
FFF800
FFF800
FFF800
FFF800
FFF800
FFF800
FFF800
FFF800
FFF800
FFF800
FFF800
FFF800
FFF800
FFF800
FFF800
FFF800
FFFC00
FFFC00
7FFC00
7FFE00
7FFE00
3FFF80
3FFFC0
1FFFC0
1FFFC0
0FFFC0
07FFC0
03FFC0
01FFC0
00FFC0
003FC0
000FC0
ENDCHAR
STARTCHAR parenright
ENCODING 41
SWIDTH 291 0
DWIDTH 22 0
BBX 19 65 1 0
BITMAP
F80000
FF8000
FFE000
FFF000
FFF800
FFFC00
FFFE00
FFFF00
FFFF00
FFFF80
3FFF80
0FFFC0
0FFFC0
07FFC0
07FFC0
07FFE0
07FFE0
07FFE0
07FFE0
07FFE0
07FFE0
07FFE0
07FFE0
07FFE0
07FFE0
07FFE0
07FFE0
07FFE0
07FFE0
07FFE0
07FFE0
07FFE0
07FFE0
07FFE0
07FFE0
07FFE0
07FFE0
07FFE0
07FFE0
07FFE0
07FFE0
07FFE0
07FFE0
07FFE0
07FFE0
07FFE0
07FFE0
07FFE0
07FFE0
07FFE0
07FFC0
07FFC0
0FFFC0
1FFFC0
3FFF80
FFFF80
FFFF00
FFFF00
FFFE00
FFFC00
FFF800
FFF000
FFE000
FF8000
FE0000
ENDCHAR
STARTCHAR asterisk
ENCODING 42
SWIDTH 452 0
DWIDTH 34 0
BBX 32 31 1 27
BITMAP
000FF000
000FF000
000FF000
000FF000
080FF010
0C0FF070
1F07E0F8
1F87E1F8
3FC7E3FC
7FF7EFFE
7FFFFFFE
FFFFFFFF
1FFFFFF8
03FFFFC0
00FFFF00
003FFC00
00FFFF00
07FFFFE0
1FFFFFF8
FFFFFFFF
7FFFFFFE
7FE7EFFE
3FC7E3FC
1F87E1F8
1F07E0F8
0C0FF030
080FF010
000FF000
000FF000
000FF000
000FF000
ENDCHAR
STARTCHAR plus
ENCODING 43
SWIDTH 355 0
DWIDTH 27 0
BBX 23 24 2 11
BITMAP
01FF00
01FF00
01FF00
01FF00
01FF00
01FF00
01FF00
01FF00
FFFFFE
FFFFFE
FFFFFE
FFFFFE
FFFFFE
FFFFFE
FFFFFE
FFFFFE
FFFFFE
01FF00
01FF00
01FF00
01FF00
01FF00
01FF00
01FF00
ENDCHAR
STARTCHAR comma
ENCODING 44
SWIDTH 236 0
DWIDTH 18 0
BBX 14 20 2 -9
BITMAP
FFFC
FFFC
FFFC
FFFC
FFFC
FFFC
FFFC
FFFC
FFFC
FFFC
FFFC
07F8
0FF8
0FF8
0FF0
1FF0
1FE0
1FE0
1FE0
3FC0
ENDCHAR
STARTCHAR hyphen
ENCODING 45
SWIDTH 311 0
DWIDTH 23 0
BBX 19 9 2 19
BITMAP
FFFFE0
FFFFE0
FFFFE0
FFFFE0
FFFFE0
FFFFE0
FFFFE0
FFFFE0
FFFFE0
ENDCHAR
STARTCHAR period
ENCODING 46
SWIDTH 229 0
DWIDTH 17 0
BBX 13 11 2 0
BITMAP
FFF8
FFF8
FFF8
FFF8
FFF8
FFF8
FFF8
FFF8
FFF8
FFF8
FFF8
ENDCHAR
STARTCHAR slash
ENCODING 47
SWIDTH 405 0
DWIDTH 30 0
BBX 28 65 1 0
BITMAP
0001FFF0
0001FFF0
0003FFF0
0003FFF0
0003FFE0
0003FFE0
0003FFE0
0007FFE0
0007FFC0
0007FFC0
0007FFC0
000FFFC0
000FFFC0
000FFF80
000FFF80
001FFF80
001FFF80
001FFF00
001FFF00
001FFF00
003FFF00
003FFE00
003FFE00
003FFE00
007FFE00
007FFE00
007FFC00
007FFC00
00FFFC00
00FFFC00
00FFF800
00FFF800
00FFF800
01FFF800
01FFF000
01FFF000
01FFF000
03FFF000
03FFE000
03FFE000
03FFE000
07FFE000
07FFE000
07FFC000
07FFC000
07FFC000
0FFFC000
0FFF8000
0FFF8000
0FFF8000
1FFF8000
1FFF0000
1FFF0000
1FFF0000
3FFF0000
3FFF0000
3FFE0000
3FFE0000
3FFE0000
7FFE0000
7FFC0000
7FFC0000
7FFC0000
FFFC0000
FFF80000
ENDCHAR
STARTCHAR zero
ENCODING 48
SWIDTH 494 0
DWIDTH 37 0
BBX 34 66 2 0
BITMAP
0000800000
003FFE0000
01FFFFC000
03FFFFE000
07FFFFF000
0FFFFFF800
1FFFFFFC00
3FFFFFFE00
3FFFFFFE00
7FFFFFFF00
7FFFFFFF00
FFFFFFFF80
FFFFFFFF80
FFFC1FFF80
FFFC1FFF80
FFFC0FFF80
FFF80FFF80
FFF80FFFC0
FFF80FFFC0
FFF80FFFC0
FFF80FFFC0
FFF80FFFC0
FFF80FFFC0
FFF80FFFC0
FFF80FFFC0
FFF80FFFC0
FFF80FFFC0
FFF80FFFC0
FFF80FFFC0
FFF80FFFC0
FFF80FFFC0
FFF80FFFC0
FFF80FFFC0
FFF80FFFC0
FFF80FFFC0
FFF80FFFC0
FFF80FFFC0
FFF80FFFC0
FFF80FFFC0
FFF80FFFC0
FFF80FFFC0
FFF80FFFC0
FFF80FFFC0
FFF80FFFC0
FFF80FFFC0
FFF80FFFC0
FFF80FFFC0
FFF80FFFC0
FFF80FFFC0
FFF80FFFC0
FFF80FFFC0
FFFC0FFF80
FFFC1FFF80
FFFC1FFF80
FFFFFFFF80
FFFFFFFF80
7FFFFFFF00
7FFFFFFF00
3FFFFFFF00
3FFFFFFE00
1FFFFFFC00
0FFFFFFC00
07FFFFF800
03FFFFE000
01FFFFC000
003FFE0000
ENDCHAR
STARTCHAR one
ENCODING 49
SWIDTH 331 0
DWIDTH 25 0
BBX 22 65 1 0
BITMAP
001FFC
003FFC
003FFC
007FFC
00FFFC
01FFFC
07FFFC
1FFFFC
FFFFFC
FFFFFC
FFFFFC
FFFFFC
FFFFFC
FFFFFC
FFFFFC
FEFFFC
FCFFFC
F0FFFC
80FFFC
00FFFC
00FFFC
00FFFC
00FFFC
00FFFC
00FFFC
00FFFC
00FFFC
00FFFC
00FFFC
00FFFC
00FFFC
00FFFC
00FFFC
00FFFC
00FFFC
00FFFC
00FFFC
00FFFC
00FFFC
00FFFC
00FFFC
00FFFC
00FFFC
00FFFC
00FFFC
00FFFC
00FFFC
00FFFC
00FFFC
00FFFC
00FFFC
00FFFC
00FFFC
00FFFC
00FFFC
00FFFC
00FFFC
00FFFC
00FFFC
00FFFC
00FFFC
00FFFC
00FFFC
00FFFC
00FFFC
ENDCHAR
STARTCHAR two
ENCODING 50
SWIDTH 494 0
DWIDTH 37 0
BBX 34 65 2 0
BITMAP
000FFC0000
007FFF8000
01FFFFE000
03FFFFF800
0FFFFFFC00
0FFFFFFC00
1FFFFFFE00
3FFFFFFF00
3FFFFFFF00
3FFFFFFF80
7FFFFFFF80
7FFFFFFF80
7FFE1FFFC0
7FFE0FFFC0
7FFC0FFFC0
FFFC0FFFC0
FFFC0FFFC0
FFFC0FFFC0
FFFC0FFFC0
FFFC0FFFC0
FFFC0FFFC0
FFFC0FFFC0
FFFC0FFFC0
FFFC0FFFC0
FFFC0FFF80
FFFC1FFF80
00001FFF80
00003FFF80
00003FFF00
00003FFF00
00007FFE00
0000FFFE00
0000FFFC00
0001FFFC00
0003FFF800
0003FFF800
0007FFF000
000FFFE000
001FFFE000
001FFFC000
003FFF8000
007FFF0000
00FFFE0000
01FFFE0000
01FFFC0000
03FFF80000
07FFF00000
07FFF00000
0FFFE00000
1FFFC00000
1FFFC00000
3FFF800000
3FFF000000
3FFFFFFFC0
7FFFFFFFC0
7FFFFFFFC0
7FFFFFFFC0
7FFFFFFFC0
FFFFFFFFC0
FFFFFFFFC0
FFFFFFFFC0
FFFFFFFFC0
FFFFFFFFC0
FFFFFFFFC0
FFFFFFFFC0
ENDCHAR
STARTCHAR three
ENCODING 51
SWIDTH 494 0
DWIDTH 37 0
BBX 34 65 1 0
BITMAP
000FFE0000
007FFFC000
01FFFFF000
03FFFFF800
0FFFFFFC00
0FFFFFFE00
1FFFFFFF00
3FFFFFFF00
3FFFFFFF80
3FFFFFFF80
7FFFFFFF80
7FFFFFFF80
7FFF1FFFC0
7FFE0FFFC0
7FFE07FFC0
7FFC07FFC0
7FFC07FFC0
7FFC07FFC0
7FFC07FFC0
00000FFFC0
00000FFFC0
00001FFFC0
00007FFF80
0003FFFF80
0003FFFF80
0003FFFF00
0003FFFF00
0003FFFE00
0003FFF800
0003FFF800
0003FFFE00
0003FFFE00
0003FFFF00
0003FFFF80
0003FFFF80
00007FFF80
00001FFFC0
00000FFFC0
00000FFFC0
00000FFFC0
FFFC0FFFC0
FFFC07FFC0
FFFC07FFC0
FFFC07FFC0
FFFC07FFC0
FFFC07FFC0
FFFC07FFC0
FFFC07FFC0
FFFC07FFC0
FFFC07FFC0
7FFC0FFFC0
7FFC0FFFC0
7FFE0FFF80
7FFFFFFF80
7FFFFFFF80
7FFFFFFF80
3FFFFFFF00
3FFFFFFF00
1FFFFFFE00
1FFFFFFE00
0FFFFFFC00
07FFFFF800
03FFFFF000
01FFFFC000
003FFF0000
ENDCHAR
STARTCHAR four
ENCODING 52
SWIDTH 494 0
DWIDTH 37 0
BBX 35 65 1 0
BITMAP
000FFFFF00
001FFFFF00
001FFFFF00
001FFFFF00
001FFFFF00
003FFFFF00
003FFFFF00
003FFFFF00
003FFFFF00
007FFFFF00
007FFFFF00
007FFFFF00
00FFFFFF00
00FFDFFF00
00FFDFFF00
00FFDFFF00
01FFDFFF00
01FF9FFF00
01FF9FFF00
01FF9FFF00
03FF9FFF00
03FF1FFF00
03FF1FFF00
07FF1FFF00
07FF1FFF00
07FE1FFF00
07FE1FFF00
0FFE1FFF00
0FFE1FFF00
0FFE1FFF00
0FFC1FFF00
1FFC1FFF00
1FFC1FFF00
1FFC1FFF00
3FF81FFF00
3FF81FFF00
3FF81FFF00
3FF81FFF00
7FF01FFF00
7FF01FFF00
7FF01FFF00
7FF01FFF00
FFF01FFF00
FFE01FFF00
FFFFFFFFE0
FFFFFFFFE0
FFFFFFFFE0
FFFFFFFFE0
FFFFFFFFE0
FFFFFFFFE0
FFFFFFFFE0
FFFFFFFFE0
FFFFFFFFE0
FFFFFFFFE0
FFFFFFFFE0
00001FFF00
00001FFF00
00001FFF00
00001FFF00
00001FFF00
00001FFF00
00001FFF00
00001FFF00
00001FFF00
00001FFF00
ENDCHAR
STARTCHAR five
ENCODING 53
SWIDTH 494 0
DWIDTH 37 0
BBX 34 65 2 0
BITMAP
7FFFFFFF00
7FFFFFFF00
7FFFFFFF00
7FFFFFFF00
7FFFFFFF00
7FFFFFFF00
7FFFFFFF00
7FFFFFFF00
7FFFFFFF00
7FFFFFFF00
7FFFFFFF00
7FFFFFFF00
7FF8000000
7FF8000000
7FF8000000
7FF8000000
7FF8000000
7FF8000000
7FF87F0000
7FF9FFE000
7FFBFFF000
7FFFFFF800
7FFFFFFC00
7FFFFFFE00
7FFFFFFE00
7FFFFFFF00
7FFFFFFF00
7FFFFFFF00
7FFFFFFF80
7FFE3FFF80
7FFC1FFF80
7FF81FFF80
7FF80FFF80
7FF80FFF80
00000FFFC0
00000FFFC0
00000FFFC0
00000FFFC0
00000FFFC0
00000FFFC0
00000FFFC0
FFF80FFFC0
FFF80FFFC0
FFF80FFFC0
FFF80FFFC0
FFF80FFFC0
FFF80FFFC0
FFF80FFFC0
FFF80FFF80
FFF80FFF80
FFF80FFF80
FFFC1FFF80
FFFC1FFF80
FFFFFFFF80
FFFFFFFF00
FFFFFFFF00
7FFFFFFF00
7FFFFFFE00
7FFFFFFE00
3FFFFFFC00
1FFFFFFC00
0FFFFFF800
07FFFFF000
01FFFFC000
007FFF0000
ENDCHAR
STARTCHAR six
ENCODING 54
SWIDTH 494 0
DWIDTH 37 0
BBX 34 66 2 0
BITMAP
0000400000
003FFF0000
00FFFFE000
03FFFFF000
07FFFFFC00
0FFFFFFE00
0FFFFFFE00
1FFFFFFF00
3FFFFFFF00
3FFFFFFF80
3FFFFFFF80
7FFFFFFF80
7FFE0FFF80
7FFC0FFF80
7FFC0FFF80
7FFC07FF80
7FFC07FF80
FFFC07FF80
FFFC07FF80
FFFC07FF80
FFFC000000
FFFC000000
FFFC000000
FFFC000000
FFFC000000
FFFC3F8000
FFFCFFF000
FFFDFFF800
FFFFFFFC00
FFFFFFFE00
FFFFFFFF00
FFFFFFFF00
FFFFFFFF80
FFFFFFFF80
FFFFFFFF80
FFFFFFFF80
FFFFFFFFC0
FFFE1FFFC0
FFFC1FFFC0
FFFC0FFFC0
FFFC0FFFC0
FFFC0FFFC0
FFFC0FFFC0
FFFC0FFFC0
FFFC0FFFC0
FFFC0FFFC0
FFFC0FFFC0
FFFC0FFFC0
FFFC0FFFC0
FFFC0FFFC0
FFFC0FFFC0
FFFC0FFFC0
FFFC0FFF80
7FFE1FFF80
7FFFFFFF80
7FFFFFFF80
7FFFFFFF00
3FFFFFFF00
3FFFFFFF00
3FFFFFFE00
1FFFFFFC00
0FFFFFFC00
07FFFFF800
03FFFFF000
01FFFFC000
003FFF0000
ENDCHAR
STARTCHAR seven
ENCODING 55
SWIDTH 494 0
DWIDTH 37 0
BBX 32 65 3 0
BITMAP
FFFFFFFF
FFFFFFFF
FFFFFFFF
FFFFFFFF
FFFFFFFF
FFFFFFFF
FFFFFFFF
FFFFFFFF
FFFFFFFF
FFFFFFFF
FFFFFFFF
FFFFFFFF
00003FFF
00007FFE
00007FFE
0000FFFE
0000FFFE
0000FFFC
0001FFFC
0001FFF8
0001FFF8
0003FFF8
0003FFF0
0007FFF0
0007FFE0
0007FFE0
000FFFC0
000FFFC0
001FFF80
001FFF80
001FFF80
003FFF00
003FFF00
003FFF00
007FFE00
007FFE00
007FFC00
00FFFC00
00FFFC00
00FFFC00
01FFF800
01FFF800
01FFF800
03FFF000
03FFF000
03FFF000
07FFF000
07FFE000
07FFE000
07FFE000
0FFFE000
0FFFE000
0FFFC000
0FFFC000
0FFFC000
1FFFC000
1FFFC000
1FFFC000
1FFF8000
1FFF8000
1FFF8000
1FFF8000
3FFF8000
3FFF8000
3FFF8000
ENDCHAR
STARTCHAR eight
ENCODING 56
SWIDTH 494 0
DWIDTH 37 0
BBX 33 65 2 0
BITMAP
001FFC0000
00FFFF8000
03FFFFE000
0FFFFFF800
1FFFFFFC00
1FFFFFFC00
3FFFFFFE00
7FFFFFFF00
7FFFFFFF00
7FFFFFFF00
FFFFFFFF80
FFFFFFFF80
FFFE3FFF80
FFFC1FFF80
FFFC1FFF80
FFF80FFF80
FFF80FFF80
FFF80FFF80
FFF80FFF80
FFF80FFF80
FFFC1FFF80
FFFC1FFF80
FFFE3FFF80
FFFFFFFF00
7FFFFFFF00
7FFFFFFF00
3FFFFFFE00
1FFFFFFC00
07FFFFF000
0FFFFFF800
1FFFFFFC00
3FFFFFFE00
7FFFFFFF00
7FFFFFFF00
FFFFFFFF80
FFFE3FFF80
FFFC1FFF80
FFFC1FFF80
FFF80FFF80
FFF80FFF80
FFF80FFF80
FFF80FFF80
FFF80FFF80
FFF80FFF80
FFF80FFF80
FFF80FFF80
FFF80FFF80
FFF80FFF80
FFF80FFF80
FFF80FFF80
FFFC1FFF80
FFFC1FFF80
FFFFFFFF80
FFFFFFFF80
7FFFFFFF00
7FFFFFFF00
7FFFFFFF00
3FFFFFFE00
3FFFFFFE00
1FFFFFFC00
0FFFFFF800
07FFFFF000
03FFFFE000
01FFFFC000
003FFE0000
ENDCHAR
STARTCHAR nine
ENCODING 57
SWIDTH 504 0
DWIDTH 38 0
BBX 34 66 2 0
BITMAP
0000800000
003FFF0000
00FFFFE000
03FFFFF000
07FFFFF800
0FFFFFFC00
1FFFFFFE00
1FFFFFFF00
3FFFFFFF00
3FFFFFFF00
7FFFFFFF80
7FFFFFFF80
7FFFFFFF80
7FFE1FFF80
FFFC0FFFC0
FFFC0FFFC0
FFFC0FFFC0
FFFC0FFFC0
FFFC0FFFC0
FFFC0FFFC0
FFFC0FFFC0
FFFC0FFFC0
FFFC0FFFC0
FFFC0FFFC0
FFFC0FFFC0
FFFC0FFFC0
FFFC0FFFC0
FFFC0FFFC0
FFFE0FFFC0
FFFE1FFFC0
7FFFFFFFC0
7FFFFFFFC0
7FFFFFFFC0
7FFFFFFFC0
3FFFFFFFC0
3FFFFFFFC0
1FFFFFFFC0
1FFFFFFFC0
0FFFFFFFC0
03FFCFFFC0
007F0FFFC0
00000FFFC0
00000FFFC0
00000FFFC0
00000FFFC0
00000FFFC0
00000FFFC0
7FF80FFFC0
7FF80FFFC0
7FF80FFFC0
7FF80FFFC0
7FF80FFF80
7FFC0FFF80
7FFC0FFF80
7FFC1FFF80
7FFFFFFF80
7FFFFFFF00
7FFFFFFF00
3FFFFFFF00
3FFFFFFE00
1FFFFFFE00
0FFFFFFC00
07FFFFF800
03FFFFF000
01FFFFC000
003FFF0000
ENDCHAR
STARTCHAR colon
ENCODING 58
SWIDTH 242 0
DWIDTH 18 0
BBX 14 38 2 9
BITMAP
FFFC
FFFC
FFFC
FFFC
FFFC
FFFC
FFFC
FFFC
FFFC
FFFC
FFFC
0000
0000
0000
0000
0000
0000
0000
0000
0000
0000
0000
0000
0000
0000
0000
0000
FFFC
FFFC
FFFC
FFFC
FFFC
FFFC
FFFC
FFFC
FFFC
FFFC
FFFC
ENDCHAR
STARTCHAR semicolon
ENCODING 59
SWIDTH 245 0
DWIDTH 18 0
BBX 14 47 2 0
BITMAP
FFFC
FFFC
FFFC
FFFC
FFFC
FFFC
FFFC
FFFC
FFFC
FFFC
FFFC
0000
0000
0000
0000
0000
0000
0000
0000
0000
0000
0000
0000
0000
0000
0000
0000
FFFC
FFFC
FFFC
FFFC
FFFC
FFFC
FFFC
FFFC
FFFC
FFFC
FFFC
07FC
07F8
0FF8
0FF8
0FF0
0FF0
1FE0
1FE0
1FE0
ENDCHAR
STARTCHAR less
ENCODING 60
SWIDTH 321 0
DWIDTH 24 0
BBX 21 41 1 7
BITMAP
000008
000018
000078
0001F8
0003F8
000FF8
003FF8
007FF8
01FFF8
07FFF8
0FFFF8
3FFFF8
FFFFF8
FFFFF8
FFFFE0
FFFF80
FFFE00
FFFC00
FFF000
FFC000
FF8000
FFE000
FFF000
FFFC00
FFFF00
FFFFC0
FFFFE0
FFFFF8
7FFFF8
1FFFF8
07FFF8
03FFF8
00FFF8
007FF8
001FF8
0007F8
0003F8
0000F8
000038
000018
000008
ENDCHAR
STARTCHAR equal
ENCODING 61
SWIDTH 311 0
DWIDTH 23 0
BBX 19 22 2 19
BITMAP
FFFFE0
FFFFE0
FFFFE0
FFFFE0
FFFFE0
FFFFE0
FFFFE0
FFFFE0
000000
000000
000000
000000
000000
FFFFE0
FFFFE0
FFFFE0
FFFFE0
FFFFE0
FFFFE0
FFFFE0
FFFFE0
FFFFE0
ENDCHAR
STARTCHAR greater
ENCODING 62
SWIDTH 321 0
DWIDTH 24 0
BBX 21 41 2 7
BITMAP
800000
E00000
F00000
FC0000
FE0000
FF8000
FFE000
FFF000
FFFC00
FFFF00
FFFF80
FFFFE0
FFFFF8
FFFFF8
3FFFF8
0FFFF8
03FFF8
01FFF8
007FF8
001FF8
000FF8
003FF8
007FF8
01FFF8
07FFF8
1FFFF8
3FFFF8
FFFFF8
FFFFF0
FFFFC0
FFFF80
FFFE00
FFF800
FFF000
FFC000
FF0000
FE0000
F80000
E00000
C00000
800000
ENDCHAR
STARTCHAR question
ENCODING 63
SWIDTH 492 0
DWIDTH 37 0
BBX 34 66 2 0
BITMAP
0000800000
007FFF0000
01FFFFC000
07FFFFF000
0FFFFFF800
1FFFFFFC00
3FFFFFFE00
7FFFFFFE00
7FFFFFFF00
7FFFFFFF00
FFFFFFFF00
FFFFFFFF80
FFFFFFFF80
FFFC1FFF80
FFFC1FFF80
FFF80FFFC0
FFF80FFFC0
FFF80FFFC0
FFF80FFFC0
FFF80FFFC0
FFF80FFFC0
FFF80FFFC0
FFF80FFFC0
FFF80FFFC0
FFF80FFFC0
00001FFFC0
00001FFF80
00001FFF80
00003FFF80
00003FFF80
00007FFF00
0000FFFF00
0003FFFF00
003FFFFE00
1FFFFFFE00
1FFFFFFC00
1FFFFFF800
1FFFFFF000
1FFFFFE000
1FFFFFC000
1FFFFF8000
1FFFFE0000
1FFFE00000
1FFE000000
1FFE000000
1FFE000000
1FFE000000
1FFE000000
1FFE000000
0000000000
0000000000
0000000000
0000000000
0000000000
0000000000
3FFE000000
3FFE000000
3FFE000000
3FFE000000
3FFE000000
3FFE000000
3FFE000000
3FFE000000
3FFE000000
3FFE000000
3FFE000000
ENDCHAR
STARTCHAR at
ENCODING 64
SWIDTH 864 0
DWIDTH 65 0
BBX 61 72 2 -6
BITMAP
0000000100000000
000001FFFF800000
00000FFFFFF00000
00003FFFFFFC0000
0000FFFFFFFF0000
0003FFFFFFFF8000
0007FFFFFFFFE000
001FFFFFFFFFF000
003FFFFFFFFFF800
007FFFFFFFFFFC00
00FFFFC000FFFC00
00FFFE00003FFE00
01FFF800000FFF00
03FFF0000007FF00
03FFC0000003FF80
07FF80000001FF80
07FF80000000FFC0
0FFF00000000FFC0
0FFE00300FF07FC0
1FFE01FE0FF07FE0
1FFC07FF0FF03FE0
1FFC0FFF9FF03FE0
3FF80FFFDFF03FF0
3FF81FFFFFF01FF0
3FF81FFFFFF01FF0
7FF03FFFFFF01FF0
7FF03FFFFFF01FF0
7FF03FFE3FF01FF0
7FF03FFC3FF01FF0
7FE07FF83FF01FF8
7FE07FF83FF00FF8
7FE07FF03FF00FF8
FFE07FF03FF00FF8
FFE07FF03FF00FF8
FFE07FF03FF00FF8
FFE07FF03FF00FF8
FFE07FF03FF00FF8
FFE07FF03FF00FF8
FFE07FF03FF00FF0
FFE07FF03FF00FF0
FFE07FF03FF01FF0
FFE07FF03FF01FF0
7FE07FF03FF01FF0
7FE07FF03FF01FF0
7FE07FF83FF81FF0
7FE03FF87FF81FE0
7FF03FFC7FF83FE0
7FF03FFFFFFC7FE0
7FF01FFFFFFFFFC0
3FF81FFFFFFFFFC0
3FF81FFFCFFFFF80
3FF80FFFCFFFFF80
3FFC07FF87FFFF00
1FFC03FF83FFFE00
1FFE01FF00FFF800
0FFF007C003FE000
0FFF800000000000
07FF800000000000
07FFE00000000000
03FFF00000000000
03FFF80000000000
01FFFF0000000000
00FFFFE000C00000
007FFFFFFFC00000
003FFFFFFFC00000
001FFFFFFFC00000
000FFFFFFFE00000
0003FFFFFFE00000
0000FFFFFFE00000
00003FFFFFE00000
000007FFFFE00000
0000007FFE000000
ENDCHAR
STARTCHAR A
ENCODING 65
SWIDTH 485 0
DWIDTH 36 0
BBX 34 65 1 0
BITMAP
03FFFFF000
03FFFFF000
03FFFFF000
03FFFFF800
03FFFFF800
03FFFFF800
03FFFFF800
03FFFFF800
03FFFFF800
07FFFFF800
07FFFFF800
07FFFFF800
07FFFFF800
07FFBFF800
07FFBFFC00
07FFBFFC00
07FF3FFC00
07FF3FFC00
07FF3FFC00
0FFF3FFC00
0FFF3FFC00
0FFF3FFC00
0FFF3FFC00
0FFF3FFC00
0FFF1FFC00
0FFF1FFE00
0FFF1FFE00
0FFF1FFE00
0FFF1FFE00
0FFE1FFE00
1FFE1FFE00
1FFE1FFE00
1FFE1FFE00
1FFE1FFE00
1FFE1FFE00
1FFE1FFF00
1FFE0FFF00
1FFE0FFF00
1FFE0FFF00
1FFE0FFF00
3FFE0FFF00
3FFE0FFF00
3FFE0FFF00
3FFC0FFF00
3FFFFFFF00
3FFFFFFF00
3FFFFFFF80
3FFFFFFF80
3FFFFFFF80
3FFFFFFF80
7FFFFFFF80
7FFFFFFF80
7FFFFFFF80
7FFFFFFF80
7FF807FF80
7FF807FF80
7FF807FFC0
7FF807FFC0
7FF803FFC0
7FF803FFC0
7FF803FFC0
FFF803FFC0
FFF803FFC0
FFF803FFC0
FFF803FFC0
ENDCHAR
STARTCHAR B
ENCODING 66
SWIDTH 479 0
DWIDTH 36 0
BBX 32 65 3 0
BITMAP
FFFFFC00
FFFFFF80
FFFFFFC0
FFFFFFF0
FFFFFFF0
FFFFFFF8
FFFFFFF8
FFFFFFFC
FFFFFFFC
FFFFFFFC
FFF07FFC
FFF03FFE
FFF03FFE
FFF03FFE
FFF03FFE
FFF03FFE
FFF03FFE
FFF03FFE
FFF03FFE
FFF03FFE
FFF03FFE
FFF03FFC
FFF03FFC
FFF07FFC
FFF0FFFC
FFFFFFF8
FFFFFFF0
FFFFFFF0
FFFFFFC0
FFFFFF80
FFFFFFE0
FFFFFFF0
FFFFFFF8
FFFFFFFC
FFFFFFFC
FFF07FFC
FFF03FFE
FFF03FFE
FFF01FFE
FFF01FFE
FFF01FFE
FFF01FFE
FFF01FFE
FFF01FFE
FFF01FFF
FFF01FFE
FFF01FFE
FFF01FFE
FFF01FFE
FFF01FFE
FFF01FFE
FFF03FFE
FFF03FFE
FFF0FFFE
FFFFFFFC
FFFFFFFC
FFFFFFFC
FFFFFFFC
FFFFFFF8
FFFFFFF8
FFFFFFF0
FFFFFFE0
FFFFFFC0
FFFFFF00
FFFFFC00
ENDCHAR
STARTCHAR C
ENCODING 67
SWIDTH 474 0
DWIDTH 36 0
BBX 32 66 2 0
BITMAP
00008000
003FFE00
01FFFF80
03FFFFC0
07FFFFF0
0FFFFFF8
1FFFFFF8
1FFFFFFC
3FFFFFFE
3FFFFFFE
3FFFFFFE
7FFFFFFF
7FFFFFFF
7FFC3FFF
7FF81FFF
7FF81FFF
FFF81FFF
FFF81FFF
FFF81FFF
FFF81FFF
FFF81FFF
FFF81FFF
FFF81FFF
FFF81FFF
FFF81FFF
FFF81FFF
FFF81FFF
FFF80000
FFF80000
FFF80000
FFF80000
FFF80000
FFF80000
FFF80000
FFF80000
FFF80000
FFF80000
FFF80000
FFF81FFF
FFF81FFF
FFF81FFF
FFF81FFF
FFF81FFF
FFF81FFF
FFF81FFF
FFF81FFF
FFF81FFF
FFF81FFF
FFF81FFF
FFF81FFF
FFF81FFF
FFF81FFF
FFFC1FFF
7FFC3FFF
7FFFFFFF
7FFFFFFF
7FFFFFFE
3FFFFFFE
3FFFFFFE
1FFFFFFC
1FFFFFFC
0FFFFFF8
07FFFFF0
03FFFFE0
00FFFF80
003FFE00
ENDCHAR
STARTCHAR D
ENCODING 68
SWIDTH 493 0
DWIDTH 37 0
BBX 32 65 3 0
BITMAP
FFFFFC00
FFFFFF80
FFFFFFC0
FFFFFFF0
FFFFFFF0
FFFFFFF8
FFFFFFFC
FFFFFFFC
FFFFFFFE
FFFFFFFE
FFFFFFFE
FFF87FFE
FFF83FFE
FFF83FFE
FFF81FFE
FFF81FFF
FFF81FFF
FFF81FFF
FFF81FFF
FFF81FFF
FFF81FFF
FFF81FFF
FFF81FFF
FFF81FFF
FFF81FFF
FFF81FFF
FFF81FFF
FFF81FFF
FFF81FFF
FFF81FFF
FFF81FFF
FFF81FFF
FFF81FFF
FFF81FFF
FFF81FFF
FFF81FFF
FFF81FFF
FFF81FFF
FFF81FFF
FFF81FFF
FFF81FFF
FFF81FFF
FFF81FFF
FFF81FFF
FFF81FFF
FFF81FFF
FFF81FFF
FFF81FFF
FFF81FFF
FFF81FFF
FFF83FFE
FFF83FFE
FFF87FFE
FFFFFFFE
FFFFFFFE
FFFFFFFE
FFFFFFFC
FFFFFFFC
FFFFFFF8
FFFFFFF8
FFFFFFF0
FFFFFFE0
FFFFFFC0
FFFFFF80
FFFFFC00
ENDCHAR
STARTCHAR E
ENCODING 69
SWIDTH 412 0
DWIDTH 31 0
BBX 26 65 3 0
BITMAP
FFFFFFC0
FFFFFFC0
FFFFFFC0
FFFFFFC0
FFFFFFC0
FFFFFFC0
FFFFFFC0
FFFFFFC0
FFFFFFC0
FFFFFFC0
FFFFFFC0
FFFFFFC0
FFFFFFC0
FFF80000
FFF80000
FFF80000
FFF80000
FFF80000
FFF80000
FFF80000
FFF80000
FFF80000
FFF80000
FFF80000
FFF80000
FFFFFF80
FFFFFF80
FFFFFF80
FFFFFF80
FFFFFF80
FFFFFF80
FFFFFF80
FFFFFF80
FFFFFF80
FFFFFF80
FFFFFF80
FFFFFF80
FFF80000
FFF80000
FFF80000
FFF80000
FFF80000
FFF80000
FFF80000
FFF80000
FFF80000
FFF80000
FFF80000
FFF80000
FFF80000
FFF80000
FFF80000
FFFFFFC0
FFFFFFC0
FFFFFFC0
FFFFFFC0
FFFFFFC0
FFFFFFC0
FFFFFFC0
FFFFFFC0
FFFFFFC0
FFFFFFC0
FFFFFFC0
FFFFFFC0
FFFFFFC0
ENDCHAR
STARTCHAR F
ENCODING 70
SWIDTH 399 0
DWIDTH 30 0
BBX 26 65 3 0
BITMAP
FFFFFFC0
FFFFFFC0
FFFFFFC0
FFFFFFC0
FFFFFFC0
FFFFFFC0
FFFFFFC0
FFFFFFC0
FFFFFFC0
FFFFFFC0
FFFFFFC0
FFFFFFC0
FFFFFFC0
FFF80000
FFF80000
FFF80000
FFF80000
FFF80000
FFF80000
FFF80000
FFF80000
FFF80000
FFF80000
FFFFFF80
FFFFFF80
FFFFFF80
FFFFFF80
FFFFFF80
FFFFFF80
FFFFFF80
FFFFFF80
FFFFFF80
FFFFFF80
FFFFFF80
FFFFFF80
FFF80000
FFF80000
FFF80000
FFF80000
FFF80000
FFF80000
FFF80000
FFF80000
FFF80000
FFF80000
FFF80000
FFF80000
FFF80000
FFF80000
FFF80000
FFF80000
FFF80000
FFF80000
FFF80000
FFF80000
FFF80000
FFF80000
FFF80000
FFF80000
FFF80000
FFF80000
FFF80000
FFF80000
FFF80000
FFF80000
ENDCHAR
STARTCHAR G
ENCODING 71
SWIDTH 485 0
DWIDTH 36 0
BBX 32 66 2 0
BITMAP
00008000
003FFE00
01FFFF80
03FFFFE0
07FFFFF0
0FFFFFF8
1FFFFFF8
1FFFFFFC
3FFFFFFC
3FFFFFFE
7FFFFFFE
7FFFFFFE
7FFFFFFE
7FFC1FFF
7FFC1FFF
FFF80FFF
FFF80FFF
FFF80FFF
FFF80FFF
FFF80FFF
FFF80FFF
FFF80FFF
FFF80FFF
FFF80000
FFF80000
FFF80000
FFF80000
FFF80000
FFF8FFFF
FFF8FFFF
FFF8FFFF
FFF8FFFF
FFF8FFFF
FFF8FFFF
FFF8FFFF
FFF8FFFF
FFF8FFFF
FFF8FFFF
FFF8FFFF
FFF80FFF
FFF80FFF
FFF80FFF
FFF80FFF
FFF80FFF
FFF80FFF
FFF80FFF
FFF80FFF
FFF80FFF
FFF80FFF
FFF80FFF
FFF80FFF
7FF80FFF
7FFC1FFF
7FFC1FFF
7FFFFFFF
7FFFFFFF
7FFFFFFF
3FFFFFFF
3FFFFFFF
1FFFFFFF
1FFFFFFF
0FFFFF7F
0FFFFE3F
07FFFC3F
01FFF83F
007FE01F
ENDCHAR
STARTCHAR H
ENCODING 72
SWIDTH 499 0
DWIDTH 37 0
BBX 32 65 3 0
BITMAP
FFF81FFF
FFF81FFF
FFF81FFF
FFF81FFF
FFF81FFF
FFF81FFF
FFF81FFF
FFF81FFF
FFF81FFF
FFF81FFF
FFF81FFF
FFF81FFF
FFF81FFF
FFF81FFF
FFF81FFF
FFF81FFF
FFF81FFF
FFF81FFF
FFF81FFF
FFF81FFF
FFF81FFF
FFF81FFF
FFF81FFF
FFFFFFFF
FFFFFFFF
FFFFFFFF
FFFFFFFF
FFFFFFFF
FFFFFFFF
FFFFFFFF
FFFFFFFF
FFFFFFFF
FFFFFFFF
FFFFFFFF
FFFFFFFF
FFF81FFF
FFF81FFF
FFF81FFF
FFF81FFF
FFF81FFF
FFF81FFF
FFF81FFF
FFF81FFF
FFF81FFF
FFF81FFF
FFF81FFF
FFF81FFF
FFF81FFF
FFF81FFF
FFF81FFF
FFF81FFF
FFF81FFF
FFF81FFF
FFF81FFF
FFF81FFF
FFF81FFF
FFF81FFF
FFF81FFF
FFF81FFF
FFF81FFF
FFF81FFF
FFF81FFF
FFF81FFF
FFF81FFF
FFF81FFF
ENDCHAR
STARTCHAR I
ENCODING 73
SWIDTH 227 0
DWIDTH 17 0
BBX 13 65 2 0
BITMAP
FFF8
FFF8
FFF8
FFF8
FFF8
FFF8
FFF8
FFF8
FFF8
FFF8
FFF8
FFF8
FFF8
FFF8
FFF8
FFF8
FFF8
FFF8
FFF8
FFF8
FFF8
FFF8
FFF8
FFF8
FFF8
FFF8
FFF8
FFF8
FFF8
FFF8
FFF8
FFF8
FFF8
FFF8
FFF8
FFF8
FFF8
FFF8
FFF8
FFF8
FFF8
FFF8
FFF8
FFF8
FFF8
FFF8
FFF8
FFF8
FFF8
FFF8
FFF8
FFF8
FFF8
FFF8
FFF8
FFF8
FFF8
FFF8
FFF8
FFF8
FFF8
FFF8
FFF8
FFF8
FFF8
ENDCHAR
STARTCHAR J
ENCODING 74
SWIDTH 466 0
DWIDTH 35 0
BBX 32 65 1 0
BITMAP
00001FFF
00001FFF
00001FFF
00001FFF
00001FFF
00001FFF
00001FFF
00001FFF
00001FFF
00001FFF
00001FFF
00001FFF
00001FFF
00001FFF
00001FFF
00001FFF
00001FFF
00001FFF
00001FFF
00001FFF
00001FFF
00001FFF
00001FFF
00001FFF
00001FFF
00001FFF
00001FFF
00001FFF
00001FFF
00001FFF
00001FFF
00001FFF
00001FFF
00001FFF
FFF81FFF
FFF81FFF
FFF81FFF
FFF81FFF
FFF81FFF
FFF81FFF
FFF81FFF
FFF81FFF
FFF81FFF
FFF81FFF
FFF81FFF
FFF81FFF
FFF81FFF
FFF81FFF
FFF81FFF
FFF81FFF
FFF81FFF
FFF81FFF
7FFC3FFF
7FFFFFFE
7FFFFFFE
7FFFFFFE
7FFFFFFC
3FFFFFFC
3FFFFFF8
1FFFFFF8
0FFFFFF0
07FFFFE0
03FFFFC0
00FFFF00
003FFC00
ENDCHAR
STARTCHAR K
ENCODING 75
SWIDTH 472 0
DWIDTH 35 0
BBX 33 65 3 0
BITMAP
FFF83FFF00
FFF83FFE00
FFF83FFE00
FFF83FFE00
FFF83FFC00
FFF87FFC00
FFF87FFC00
FFF87FFC00
FFF87FFC00
FFF8FFF800
FFF8FFF800
FFF8FFF800
FFF8FFF800
FFF9FFF000
FFF9FFF000
FFF9FFF000
FFF9FFF000
FFF9FFE000
FFFBFFE000
FFFBFFE000
FFFBFFE000
FFFBFFC000
FFFFFFC000
FFFFFFC000
FFFFFFC000
FFFFFF8000
FFFFFF8000
FFFFFF8000
FFFFFF8000
FFFFFF0000
FFFFFF8000
FFFFFF8000
FFFFFF8000
FFFFFF8000
FFFFFFC000
FFFFFFC000
FFFFFFC000
FFFBFFC000
FFFBFFE000
FFFBFFE000
FFFBFFE000
FFFBFFE000
FFF9FFF000
FFF9FFF000
FFF9FFF000
FFF9FFF000
FFF8FFF800
FFF8FFF800
FFF8FFF800
FFF8FFF800
FFF8FFF800
FFF87FFC00
FFF87FFC00
FFF87FFC00
FFF87FFC00
FFF83FFE00
FFF83FFE00
FFF83FFE00
FFF83FFE00
FFF83FFF00
FFF81FFF00
FFF81FFF00
FFF81FFF00
FFF81FFF80
FFF80FFF80
ENDCHAR
STARTCHAR L
ENCODING 76
SWIDTH 397 0
DWIDTH 30 0
BBX 26 65 3 0
BITMAP
FFF80000
FFF80000
FFF80000
FFF80000
FFF80000
FFF80000
FFF80000
FFF80000
FFF80000
FFF80000
FFF80000
FFF80000
FFF80000
FFF80000
FFF80000
FFF80000
FFF80000
FFF80000
FFF80000
FFF80000
FFF80000
FFF80000
FFF80000
FFF80000
FFF80000
FFF80000
FFF80000
FFF80000
FFF80000
FFF80000
FFF80000
FFF80000
FFF80000
FFF80000
FFF80000
FFF80000
FFF80000
FFF80000
FFF80000
FFF80000
FFF80000
FFF80000
FFF80000
FFF80000
FFF80000
FFF80000
FFF80000
FFF80000
FFF80000
FFF80000
FFF80000
FFF80000
FFF80000
FFF80000
FFFFFFC0
FFFFFFC0
FFFFFFC0
FFFFFFC0
FFFFFFC0
FFFFFFC0
FFFFFFC0
FFFFFFC0
FFFFFFC0
FFFFFFC0
FFFFFFC0
ENDCHAR
STARTCHAR M
ENCODING 77
SWIDTH 746 0
DWIDTH 56 0
BBX 50 65 3 0
BITMAP
FFFFF003FFFFC0
FFFFF003FFFFC0
FFFFF003FFFFC0
FFFFF003FFFFC0
FFFFF003FFFFC0
FFFFF003FFFFC0
FFFFF007FFFFC0
FFFFF807FFFFC0
FFFFF807FFFFC0
FFFFF807FFFFC0
FFFFF807FFFFC0
FFFFF807FFFFC0
FFFFF807FFFFC0
FFFFF80FFFFFC0
FFFFF80FFFFFC0
FFFFFC0FFFFFC0
FFFFFC0FFFFFC0
FFFFFC0FFFFFC0
FFEFFC0FFFFFC0
FFEFFC0FFFFFC0
FFEFFC1FFFFFC0
FFEFFC1FFFFFC0
FFEFFE1FFFFFC0
FFEFFE1FFFFFC0
FFE7FE1FFBFFC0
FFE7FE1FFBFFC0
FFE7FE1FFBFFC0
FFE7FE1FFBFFC0
FFE7FE3FFBFFC0
FFE7FF3FFBFFC0
FFE3FF3FF3FFC0
FFE3FF3FF3FFC0
FFE3FF3FF3FFC0
FFE3FF3FF3FFC0
FFE3FF3FF3FFC0
FFE3FF7FF3FFC0
FFE1FF7FE3FFC0
FFE1FFFFE3FFC0
FFE1FFFFE3FFC0
FFE1FFFFE3FFC0
FFE1FFFFE3FFC0
FFE1FFFFE3FFC0
FFE0FFFFC3FFC0
FFE0FFFFC3FFC0
FFE0FFFFC3FFC0
FFE0FFFFC3FFC0
FFE0FFFFC3FFC0
FFE0FFFFC3FFC0
FFE07FFFC3FFC0
FFE07FFF83FFC0
FFE07FFF83FFC0
FFE07FFF83FFC0
FFE07FFF83FFC0
FFE07FFF83FFC0
FFE03FFF83FFC0
FFE03FFF03FFC0
FFE03FFF03FFC0
FFE03FFF03FFC0
FFE03FFF03FFC0
FFE03FFF03FFC0
FFE01FFF03FFC0
FFE01FFE03FFC0
FFE01FFE03FFC0
FFE01FFE03FFC0
FFE01FFE03FFC0
ENDCHAR
STARTCHAR N
ENCODING 78
SWIDTH 498 0
DWIDTH 37 0
BBX 32 65 3 0
BITMAP
FFF81FFF
FFF81FFF
FFFC1FFF
FFFC1FFF
FFFC1FFF
FFFC1FFF
FFFC1FFF
FFFE1FFF
FFFE1FFF
FFFE1FFF
FFFE1FFF
FFFE1FFF
FFFF1FFF
FFFF1FFF
FFFF1FFF
FFFF1FFF
FFFF1FFF
FFFF1FFF
FFFF9FFF
FFFF9FFF
FFFF9FFF
FFFF9FFF
FFFF9FFF
FFFFDFFF
FFFFDFFF
FFFFDFFF
FFFFDFFF
FFFFDFFF
FFFFFFFF
FFFFFFFF
FFFFFFFF
FFFFFFFF
FFFFFFFF
FFF7FFFF
FFF7FFFF
FFF7FFFF
FFF7FFFF
FFF7FFFF
FFF3FFFF
FFF3FFFF
FFF3FFFF
FFF3FFFF
FFF3FFFF
FFF1FFFF
FFF1FFFF
FFF1FFFF
FFF1FFFF
FFF1FFFF
FFF0FFFF
FFF0FFFF
FFF0FFFF
FFF0FFFF
FFF0FFFF
FFF07FFF
FFF07FFF
FFF07FFF
FFF07FFF
FFF07FFF
FFF03FFF
FFF03FFF
FFF03FFF
FFF03FFF
FFF03FFF
FFF01FFF
FFF01FFF
ENDCHAR
STARTCHAR O
ENCODING 79
SWIDTH 486 0
DWIDTH 36 0
BBX 32 66 2 0
BITMAP
00008000
003FFE00
01FFFF80
03FFFFE0
07FFFFF0
0FFFFFF8
1FFFFFF8
3FFFFFFC
3FFFFFFC
3FFFFFFE
7FFFFFFE
7FFFFFFE
7FFFFFFF
7FFC3FFF
FFFC1FFF
FFF81FFF
FFF81FFF
FFF81FFF
FFF81FFF
FFF81FFF
FFF81FFF
FFF81FFF
FFF81FFF
FFF81FFF
FFF81FFF
FFF81FFF
FFF81FFF
FFF81FFF
FFF81FFF
FFF81FFF
FFF81FFF
FFF81FFF
FFF81FFF
FFF81FFF
FFF81FFF
FFF81FFF
FFF81FFF
FFF81FFF
FFF81FFF
FFF81FFF
FFF81FFF
FFF81FFF
FFF81FFF
FFF81FFF
FFF81FFF
FFF81FFF
FFF81FFF
FFF81FFF
FFF81FFF
FFF81FFF
FFF81FFF
FFF81FFF
7FFC1FFF
7FFC3FFF
7FFFFFFF
7FFFFFFE
7FFFFFFE
3FFFFFFE
3FFFFFFC
1FFFFFFC
1FFFFFF8
0FFFFFF0
07FFFFE0
03FFFFC0
00FFFF80
003FFE00
ENDCHAR
STARTCHAR P
ENCODING 80
SWIDTH 472 0
DWIDTH 35 0
BBX 31 65 3 0
BITMAP
FFFFF800
FFFFFF00
FFFFFFC0
FFFFFFE0
FFFFFFF0
FFFFFFF0
FFFFFFF8
FFFFFFF8
FFFFFFFC
FFFFFFFC
FFFFFFFC
FFFFFFFC
FFF8FFFE
FFF87FFE
FFF83FFE
FFF83FFE
FFF83FFE
FFF83FFE
FFF83FFE
FFF83FFE
FFF83FFE
FFF83FFE
FFF83FFE
FFF83FFE
FFF83FFE
FFF87FFE
FFF8FFFE
FFFFFFFE
FFFFFFFC
FFFFFFFC
FFFFFFFC
FFFFFFFC
FFFFFFF8
FFFFFFF8
FFFFFFF0
FFFFFFE0
FFFFFFC0
FFFFFF80
FFFFFC00
FFF80000
FFF80000
FFF80000
FFF80000
FFF80000
FFF80000
FFF80000
FFF80000
FFF80000
FFF80000
FFF80000
FFF80000
FFF80000
FFF80000
FFF80000
FFF80000
FFF80000
FFF80000
FFF80000
FFF80000
FFF80000
FFF80000
FFF80000
FFF80000
FFF80000
FFF80000
ENDCHAR
STARTCHAR Q
ENCODING 81
SWIDTH 494 0
DWIDTH 37 0
BBX 34 73 2 -7
BITMAP
0001000000
007FFC0000
01FFFF8000
03FFFFC000
0FFFFFE000
1FFFFFF000
1FFFFFF800
3FFFFFFC00
3FFFFFFC00
7FFFFFFC00
7FFFFFFE00
7FFFFFFE00
FFFFFFFE00
FFFC3FFE00
FFF83FFF00
FFF81FFF00
FFF81FFF00
FFF81FFF00
FFF81FFF00
FFF81FFF00
FFF81FFF00
FFF81FFF00
FFF81FFF00
FFF81FFF00
FFF81FFF00
FFF81FFF00
FFF81FFF00
FFF81FFF00
FFF81FFF00
FFF81FFF00
FFF81FFF00
FFF81FFF00
FFF81FFF00
FFF81FFF00
FFF81FFF00
FFF81FFF00
FFF81FFF00
FFF81FFF00
FFF81FFF00
FFF81FFF00
FFF81FFF00
FFF81FFF00
FFF81FFF00
FFF81FFF00
FFF81FFF00
FFF81FFF00
FFF81FFF00
FFF81FFF00
FFF81FFF00
FFF81FFF00
FFF81FFF00
FFF83FFF00
FFF83FFF00
FFFC3FFE00
FFFFFFFE00
7FFFFFFE00
7FFFFFFE00
7FFFFFFC00
3FFFFFFC00
3FFFFFF800
1FFFFFF800
0FFFFFF000
0FFFFFFC00
03FFFFFE00
01FFFFFF80
007FFFFFC0
00010FFF80
000007FF00
000001FF00
000000FE00
0000003E00
0000001C00
0000000400
ENDCHAR
STARTCHAR R
ENCODING 82
SWIDTH 477 0
DWIDTH 36 0
BBX 31 65 3 0
BITMAP
FFFFFF00
FFFFFFC0
FFFFFFE0
FFFFFFF0
FFFFFFF8
FFFFFFFC
FFFFFFFC
FFFFFFFC
FFFFFFFC
FFFFFFFE
FFFFFFFE
FFFFFFFE
FFF83FFE
FFF83FFE
FFF81FFE
FFF81FFE
FFF81FFE
FFF81FFE
FFF81FFE
FFF81FFE
FFF81FFE
FFF83FFE
FFF83FFE
FFF87FFE
FFFFFFFE
FFFFFFFC
FFFFFFFC
FFFFFFF8
FFFFFFF8
FFFFFFF0
FFFFFFC0
FFFFFFE0
FFFFFFF0
FFFFFFF8
FFFFFFFC
FFF8FFFC
FFF87FFC
FFF83FFC
FFF83FFC
FFF83FFE
FFF83FFE
FFF83FFE
FFF83FFE
FFF83FFE
FFF83FFE
FFF83FFE
FFF83FFE
FFF83FFE
FFF83FFC
FFF83FFC
FFF83FFC
FFF83FFC
FFF83FFC
FFF83FFC
FFF83FFC
FFF83FFC
FFF83FFC
FFF83FFC
FFF83FFC
FFF83FFC
FFF83FFC
FFF83FFC
FFF83FFC
FFF83FFC
FFF83FFC
ENDCHAR
STARTCHAR S
ENCODING 83
SWIDTH 461 0
DWIDTH 35 0
BBX 31 66 2 0
BITMAP
00020000
00FFF800
03FFFF00
07FFFF80
0FFFFFC0
1FFFFFE0
3FFFFFF0
3FFFFFF0
7FFFFFF8
7FFFFFF8
FFFFFFFC
FFFFFFFC
FFFFFFFC
FFF87FFC
FFF07FFC
FFF03FFE
FFF03FFE
FFF03FFE
FFF83FFE
FFF83FFE
FFFC0000
FFFE0000
FFFF0000
7FFF8000
7FFFC000
3FFFE000
3FFFF000
1FFFF800
1FFFFC00
0FFFFE00
07FFFF00
03FFFF80
01FFFFC0
00FFFFE0
007FFFE0
003FFFF0
001FFFF8
000FFFF8
0007FFFC
0003FFFC
0001FFFC
0000FFFE
FFF07FFE
FFF07FFE
FFF03FFE
FFF03FFE
FFF03FFE
FFF03FFE
FFF03FFE
FFF03FFE
FFF03FFE
FFF03FFE
FFF83FFE
FFF83FFE
FFFFFFFE
FFFFFFFC
7FFFFFFC
7FFFFFFC
7FFFFFF8
3FFFFFF8
3FFFFFF0
1FFFFFF0
0FFFFFE0
07FFFFC0
03FFFF80
007FFC00
ENDCHAR
STARTCHAR T
ENCODING 84
SWIDTH 396 0
DWIDTH 30 0
BBX 28 65 1 0
BITMAP
FFFFFFF0
FFFFFFF0
FFFFFFF0
FFFFFFF0
FFFFFFF0
FFFFFFF0
FFFFFFF0
FFFFFFF0
FFFFFFF0
FFFFFFF0
FFFFFFF0
FFFFFFF0
FFFFFFF0
01FFF000
01FFF000
01FFF000
01FFF000
01FFF000
01FFF000
01FFF000
01FFF000
01FFF000
01FFF000
01FFF000
01FFF000
01FFF000
01FFF000
01FFF000
01FFF000
01FFF000
01FFF000
01FFF000
01FFF000
01FFF000
01FFF000
01FFF000
01FFF000
01FFF000
01FFF000
01FFF000
01FFF000
01FFF000
01FFF000
01FFF000
01FFF000
01FFF000
01FFF000
01FFF000
01FFF000
01FFF000
01FFF000
01FFF000
01FFF000
01FFF000
01FFF000
01FFF000
01FFF000
01FFF000
01FFF000
01FFF000
01FFF000
01FFF000
01FFF000
01FFF000
01FFF000
ENDCHAR
STARTCHAR U
ENCODING 85
SWIDTH 474 0
DWIDTH 36 0
BBX 31 65 2 0
BITMAP
FFF81FFE
FFF81FFE
FFF81FFE
FFF81FFE
FFF81FFE
FFF81FFE
FFF81FFE
FFF81FFE
FFF81FFE
FFF81FFE
FFF81FFE
FFF81FFE
FFF81FFE
FFF81FFE
FFF81FFE
FFF81FFE
FFF81FFE
FFF81FFE
FFF81FFE
FFF81FFE
FFF81FFE
FFF81FFE
FFF81FFE
FFF81FFE
FFF81FFE
FFF81FFE
FFF81FFE
FFF81FFE
FFF81FFE
FFF81FFE
FFF81FFE
FFF81FFE
FFF81FFE
FFF81FFE
FFF81FFE
FFF81FFE
FFF81FFE
FFF81FFE
FFF81FFE
FFF81FFE
FFF81FFE
FFF81FFE
FFF81FFE
FFF81FFE
FFF81FFE
FFF81FFE
FFF81FFE
FFF81FFE
FFF81FFE
FFF81FFE
FFF81FFE
FFF83FFE
FFFC3FFE
7FFFFFFE
7FFFFFFE
7FFFFFFC
7FFFFFFC
3FFFFFFC
3FFFFFF8
1FFFFFF8
0FFFFFF0
0FFFFFE0
07FFFFC0
01FFFF80
007FFC00
ENDCHAR
STARTCHAR V
ENCODING 86
SWIDTH 469 0
DWIDTH 35 0
BBX 33 65 1 0
BITMAP
FFF007FF80
FFF007FF80
FFF007FF80
FFF007FF80
FFF807FF80
FFF807FF80
7FF80FFF80
7FF80FFF00
7FF80FFF00
7FF80FFF00
7FF80FFF00
7FF80FFF00
7FF80FFF00
7FFC0FFF00
3FFC0FFF00
3FFC0FFE00
3FFC1FFE00
3FFC1FFE00
3FFC1FFE00
3FFC1FFE00
3FFC1FFE00
3FFC1FFE00
1FFE1FFE00
1FFE1FFC00
1FFE1FFC00
1FFE1FFC00
1FFE1FFC00
1FFE3FFC00
1FFE3FFC00
1FFE3FFC00
0FFE3FFC00
0FFE3FFC00
0FFF3FF800
0FFF3FF800
0FFF3FF800
0FFF3FF800
0FFF3FF800
0FFF7FF800
07FF7FF800
07FF7FF800
07FF7FF000
07FFFFF000
07FFFFF000
07FFFFF000
07FFFFF000
07FFFFF000
03FFFFF000
03FFFFF000
03FFFFE000
03FFFFE000
03FFFFE000
03FFFFE000
03FFFFE000
03FFFFE000
03FFFFE000
01FFFFE000
01FFFFC000
01FFFFC000
01FFFFC000
01FFFFC000
01FFFFC000
01FFFFC000
01FFFFC000
00FFFFC000
00FFFF8000
ENDCHAR
STARTCHAR W
ENCODING 87
SWIDTH 712 0
DWIDTH 53 0
BBX 51 65 1 0
BITMAP
FFF80FFF01FFE0
FFF80FFF01FFE0
FFF80FFF03FFE0
FFF81FFF03FFE0
FFF81FFF03FFE0
7FF81FFF03FFE0
7FF81FFF03FFE0
7FF81FFF03FFE0
7FF81FFF03FFE0
7FF81FFF83FFC0
7FFC1FFF83FFC0
7FFC1FFF83FFC0
7FFC1FFF83FFC0
7FFC1FFF83FFC0
3FFC3FFF87FFC0
3FFC3FFF87FFC0
3FFC3FFF87FFC0
3FFC3FFF87FFC0
3FFC3FFF87FF80
3FFC3FFF87FF80
3FFC3FFFC7FF80
3FFC3FFFC7FF80
3FFE3FFFC7FF80
3FFE3FFFC7FF80
1FFE3FFFC7FF80
1FFE3FFFC7FF80
1FFE7FFFCFFF80
1FFE7FFFCFFF00
1FFE7FFFCFFF00
1FFE7FFFCFFF00
1FFE7FFFCFFF00
1FFE7FFFCFFF00
1FFE7FFFEFFF00
0FFF7FFFEFFF00
0FFF7FFFEFFF00
0FFF7FFFEFFF00
0FFF7FBFEFFE00
0FFFFFBFEFFE00
0FFFFFBFFFFE00
0FFFFFBFFFFE00
0FFFFFBFFFFE00
0FFFFF9FFFFE00
0FFFFF9FFFFE00
07FFFF9FFFFE00
07FFFF9FFFFE00
07FFFF9FFFFE00
07FFFF1FFFFC00
07FFFF1FFFFC00
07FFFF1FFFFC00
07FFFF1FFFFC00
07FFFF1FFFFC00
07FFFF0FFFFC00
03FFFF0FFFFC00
03FFFF0FFFFC00
03FFFF0FFFFC00
03FFFF0FFFF800
03FFFE0FFFF800
03FFFE0FFFF800
03FFFE0FFFF800
03FFFE0FFFF800
03FFFE0FFFF800
01FFFE07FFF800
01FFFE07FFF800
01FFFE07FFF800
01FFFE07FFF000
ENDCHAR
STARTCHAR X
ENCODING 88
SWIDTH 484 0
DWIDTH 36 0
BBX 34 65 1 0
BITMAP
7FFC0FFF80
3FFC0FFF80
3FFC0FFF80
3FFE0FFF00
3FFE0FFF00
3FFE0FFF00
1FFE1FFF00
1FFE1FFF00
1FFE1FFE00
1FFE1FFE00
1FFF1FFE00
1FFF1FFE00
0FFF1FFE00
0FFF1FFE00
0FFF3FFC00
0FFF3FFC00
0FFF3FFC00
0FFFBFFC00
07FFBFFC00
07FFBFF800
07FFBFF800
07FFBFF800
07FFFFF800
03FFFFF800
03FFFFF800
03FFFFF000
03FFFFF000
03FFFFF000
03FFFFF000
01FFFFF000
01FFFFF000
01FFFFF000
01FFFFF000
03FFFFF000
03FFFFF000
03FFFFF000
03FFFFF800
03FFFFF800
07FFFFF800
07FFFFF800
07FFFFF800
07FFFFFC00
07FFBFFC00
0FFFBFFC00
0FFF3FFC00
0FFF3FFC00
0FFF3FFE00
0FFF3FFE00
1FFF1FFE00
1FFF1FFE00
1FFE1FFE00
1FFE1FFF00
1FFE1FFF00
3FFE1FFF00
3FFE0FFF00
3FFE0FFF00
3FFE0FFF80
7FFC0FFF80
7FFC0FFF80
7FFC0FFF80
7FFC07FF80
7FFC07FFC0
FFFC07FFC0
FFF807FFC0
FFF807FFC0
ENDCHAR
STARTCHAR Y
ENCODING 89
SWIDTH 446 0
DWIDTH 33 0
BBX 33 65 0 0
BITMAP
FFF80FFF80
7FF80FFF80
7FFC0FFF00
7FFC0FFF00
7FFC0FFF00
3FFC1FFF00
3FFC1FFF00
3FFC1FFE00
3FFE1FFE00
1FFE1FFE00
1FFE1FFE00
1FFE3FFC00
1FFE3FFC00
0FFE3FFC00
0FFE3FFC00
0FFF3FF800
0FFF3FF800
07FF7FF800
07FF7FF800
07FF7FF000
07FF7FF000
07FFFFF000
03FFFFF000
03FFFFF000
03FFFFE000
03FFFFE000
01FFFFE000
01FFFFE000
01FFFFC000
01FFFFC000
00FFFFC000
00FFFFC000
00FFFF8000
00FFFF8000
007FFF8000
007FFF8000
007FFF0000
007FFF0000
007FFF0000
003FFF0000
003FFF0000
003FFE0000
003FFE0000
001FFE0000
001FFE0000
001FFE0000
001FFE0000
001FFE0000
001FFE0000
001FFE0000
001FFE0000
001FFE0000
001FFE0000
001FFE0000
001FFE0000
001FFE0000
001FFE0000
001FFE0000
001FFE0000
001FFE0000
001FFE0000
001FFE0000
001FFE0000
001FFE0000
001FFE0000
ENDCHAR
STARTCHAR Z
ENCODING 90
SWIDTH 410 0
DWIDTH 31 0
BBX 29 65 1 0
BITMAP
3FFFFFF8
3FFFFFF8
3FFFFFF8
3FFFFFF8
3FFFFFF8
3FFFFFF8
3FFFFFF8
3FFFFFF8
3FFFFFF8
3FFFFFF8
3FFFFFF8
3FFFFFF8
0001FFF0
0003FFF0
0003FFE0
0003FFE0
0007FFE0
0007FFC0
0007FFC0
000FFFC0
000FFF80
001FFF80
001FFF80
001FFF00
003FFF00
003FFE00
003FFE00
007FFE00
007FFC00
007FFC00
00FFFC00
00FFF800
00FFF800
01FFF800
01FFF000
01FFF000
03FFE000
03FFE000
07FFE000
07FFC000
07FFC000
0FFFC000
0FFF8000
0FFF8000
1FFF8000
1FFF0000
1FFF0000
3FFE0000
3FFE0000
3FFE0000
7FFC0000
7FFC0000
FFFC0000
FFFFFFF0
FFFFFFF0
FFFFFFF0
FFFFFFF0
FFFFFFF0
FFFFFFF0
FFFFFFF0
FFFFFFF0
FFFFFFF0
FFFFFFF0
FFFFFFF0
FFFFFFF0
ENDCHAR
STARTCHAR bracketleft
ENCODING 91
SWIDTH 318 0
DWIDTH 24 0
BBX 21 65 2 0
BITMAP
FFFFF8
FFFFF8
FFFFF8
FFFFF8
FFFFF8
FFFFF8
FFFFF8
FFFFF8
FFFFF8
FFFFF8
FFF800
FFF800
FFF800
FFF800
FFF800
FFF800
FFF800
FFF800
FFF800
FFF800
FFF800
FFF800
FFF800
FFF800
FFF800
FFF800
FFF800
FFF800
FFF800
FFF800
FFF800
FFF800
FFF800
FFF800
FFF800
FFF800
FFF800
FFF800
FFF800
FFF800
FFF800
FFF800
FFF800
FFF800
FFF800
FFF800
FFF800
FFF800
FFF800
FFF800
FFF800
FFF800
FFF800
FFF800
FFF800
FFFFF8
FFFFF8
FFFFF8
FFFFF8
FFFFF8
FFFFF8
FFFFF8
FFFFF8
FFFFF8
FFFFF8
ENDCHAR
STARTCHAR backslash
ENCODING 92
SWIDTH 405 0
DWIDTH 30 0
BBX 28 65 1 0
BITMAP
FFF80000
FFFC0000
7FFC0000
7FFC0000
7FFC0000
7FFE0000
7FFE0000
3FFE0000
3FFE0000
3FFF0000
3FFF0000
1FFF0000
1FFF0000
1FFF0000
1FFF8000
0FFF8000
0FFF8000
0FFF8000
0FFFC000
0FFFC000
07FFC000
07FFC000
07FFE000
07FFE000
03FFE000
03FFE000
03FFE000
03FFF000
01FFF000
01FFF000
01FFF000
01FFF800
00FFF800
00FFF800
00FFF800
00FFFC00
00FFFC00
007FFC00
007FFC00
007FFC00
007FFE00
003FFE00
003FFE00
003FFE00
003FFF00
001FFF00
001FFF00
001FFF00
001FFF80
001FFF80
000FFF80
000FFF80
000FFF80
000FFFC0
0007FFC0
0007FFC0
0007FFC0
0007FFE0
0003FFE0
0003FFE0
0003FFE0
0003FFF0
0003FFF0
0001FFF0
0001FFF0
ENDCHAR
STARTCHAR bracketright
ENCODING 93
SWIDTH 318 0
DWIDTH 24 0
BBX 21 65 1 0
BITMAP
FFFFF8
FFFFF8
FFFFF8
FFFFF8
FFFFF8
FFFFF8
FFFFF8
FFFFF8
FFFFF8
FFFFF8
00FFF8
00FFF8
00FFF8
00FFF8
00FFF8
00FFF8
00FFF8
00FFF8
00FFF8
00FFF8
00FFF8
00FFF8
00FFF8
00FFF8
00FFF8
00FFF8
00FFF8
00FFF8
00FFF8
00FFF8
00FFF8
00FFF8
00FFF8
00FFF8
00FFF8
00FFF8
00FFF8
00FFF8
00FFF8
00FFF8
00FFF8
00FFF8
00FFF8
00FFF8
00FFF8
00FFF8
00FFF8
00FFF8
00FFF8
00FFF8
00FFF8
00FFF8
00FFF8
00FFF8
00FFF8
FFFFF8
FFFFF8
FFFFF8
FFFFF8
FFFFF8
FFFFF8
FFFFF8
FFFFF8
FFFFF8
FFFFF8
ENDCHAR
STARTCHAR asciicircum
ENCODING 94
SWIDTH 474 0
DWIDTH 36 0
BBX 32 34 2 16
BITMAP
00FFFE00
00FFFF00
00FFFF00
01FFFF00
01FFFF00
01FFFF80
01FFFF80
03FFFF80
03FFFF80
03FFFFC0
03FFFFC0
07FFFFC0
07FFFFC0
07FFFFE0
07FEFFE0
0FFEFFE0
0FFEFFE0
0FFE7FF0
1FFE7FF0
1FFE7FF0
1FFE7FF8
1FFC7FF8
3FFC7FF8
3FFC7FF8
3FFC3FFC
3FFC3FFC
7FFC3FFC
7FFC3FFC
7FF83FFE
7FF83FFE
FFF83FFE
FFF81FFE
FFF81FFF
FFF81FFF
ENDCHAR
STARTCHAR underscore
ENCODING 95
SWIDTH 365 0
DWIDTH 27 0
BBX 24 9 2 -13
BITMAP
FFFFFF
FFFFFF
FFFFFF
FFFFFF
FFFFFF
FFFFFF
FFFFFF
FFFFFF
FFFFFF
ENDCHAR
STARTCHAR grave
ENCODING 96
SWIDTH 317 0
DWIDTH 24 0
BBX 18 17 2 57
BITMAP
800000
E00000
F80000
FE0000
FF8000
FFE000
FFFC00
FFFF00
FFFFC0
FFFFC0
FFFFC0
FFFFC0
FFFFC0
3FFFC0
01FFC0
000FC0
000040
ENDCHAR
STARTCHAR a
ENCODING 97
SWIDTH 483 0
DWIDTH 36 0
BBX 32 56 2 0
BITMAP
00008000
007FFE00
03FFFF80
07FFFFE0
0FFFFFF0
1FFFFFF8
3FFFFFFC
3FFFFFFC
7FFFFFFE
7FFFFFFE
7FFFFFFE
7FFC7FFF
FFF83FFF
FFF83FFF
FFF81FFF
FFF81FFF
FFF81FFF
FFF81FFF
00001FFF
00001FFF
00001FFF
00007FFF
0003FFFF
001FFFFF
00FFFFFF
03FFFFFF
07FFFFFF
1FFFDFFF
1FFF1FFF
3FFE1FFF
7FFC1FFF
7FF81FFF
FFF81FFF
FFF81FFF
FFF81FFF
FFF81FFF
FFF81FFF
FFF81FFF
FFF81FFF
FFF81FFF
FFF81FFF
FFF81FFF
FFF81FFF
FFF83FFF
FFF83FFF
FFFC3FFF
FFFFFFFF
FFFFFFFF
FFFFFFFF
7FFFFFFF
7FFFDFFF
7FFFDFFF
3FFF9FFF
1FFF9FFF
0FFF1FFF
07FC1FFF
ENDCHAR
STARTCHAR b
ENCODING 98
SWIDTH 501 0
DWIDTH 38 0
BBX 32 65 3 0
BITMAP
FFF80000
FFF80000
FFF80000
FFF80000
FFF80000
FFF80000
FFF80000
FFF80000
FFF80000
FFF80800
FFF8FFC0
FFF9FFF0
FFFFFFF8
FFFFFFFC
FFFFFFFC
FFFFFFFE
FFFFFFFE
FFFFFFFF
FFFFFFFF
FFFFFFFF
FFFC3FFF
FFFC1FFF
FFF81FFF
FFF81FFF
FFF81FFF
FFF81FFF
FFF81FFF
FFF81FFF
FFF81FFF
FFF81FFF
FFF81FFF
FFF81FFF
FFF81FFF
FFF81FFF
FFF81FFF
FFF81FFF
FFF81FFF
FFF81FFF
FFF81FFF
FFF81FFF
FFF81FFF
FFF81FFF
FFF81FFF
FFF81FFF
FFF81FFF
FFF81FFF
FFF81FFF
FFF81FFF
FFF81FFF
FFF81FFF
FFF81FFF
FFF81FFF
FFF81FFF
FFFC1FFF
FFFC3FFF
FFFFFFFF
FFFFFFFF
FFFFFFFE
FFFFFFFE
FFFFFFFE
FFFBFFFC
FFFBFFFC
FFF9FFF8
FFF8FFF0
FFF87FC0
ENDCHAR
STARTCHAR c
ENCODING 99
SWIDTH 491 0
DWIDTH 37 0
BBX 33 56 2 0
BITMAP
0000800000
003FFF0000
01FFFFC000
03FFFFF000
07FFFFF800
0FFFFFFC00
1FFFFFFE00
1FFFFFFE00
3FFFFFFF00
3FFFFFFF00
7FFFFFFF00
7FFE1FFF80
7FFC1FFF80
7FFC1FFF80
7FF80FFF80
FFF80FFF80
FFF80FFF80
FFF80FFF80
FFF80FFF80
FFF80FFF80
FFF80FFF80
FFF80FFF80
FFF80FFF80
FFF8000000
FFF8000000
FFF8000000
FFF8000000
FFF8000000
FFF8000000
FFF8000000
FFF8000000
FFF8000000
FFF8000000
FFF80FFF80
FFF80FFF80
FFF80FFF80
FFF80FFF80
FFF80FFF80
FFF80FFF80
FFF80FFF80
FFF80FFF80
FFF80FFF80
FFF80FFF80
7FFC1FFF80
7FFC1FFF80
7FFE3FFF80
7FFFFFFF00
3FFFFFFF00
3FFFFFFF00
3FFFFFFE00
1FFFFFFC00
0FFFFFFC00
07FFFFF800
03FFFFE000
01FFFFC000
003FFF0000
ENDCHAR
STARTCHAR d
ENCODING 100
SWIDTH 498 0
DWIDTH 37 0
BBX 33 65 2 0
BITMAP
00000FFF80
00000FFF80
00000FFF80
00000FFF80
00000FFF80
00000FFF80
00000FFF80
00000FFF80
00000FFF80
00100FFF80
01FF8FFF80
07FFCFFF80
0FFFEFFF80
1FFFFFFF80
3FFFFFFF80
3FFFFFFF80
7FFFFFFF80
7FFFFFFF80
7FFFFFFF80
7FFFFFFF80
FFFC3FFF80
FFFC1FFF80
FFFC1FFF80
FFF81FFF80
FFF80FFF80
FFF80FFF80
FFF80FFF80
FFF80FFF80
FFF80FFF80
FFF80FFF80
FFF80FFF80
FFF80FFF80
FFF80FFF80
FFF80FFF80
FFF80FFF80
FFF80FFF80
FFF80FFF80
FFF80FFF80
FFF80FFF80
FFF80FFF80
FFF80FFF80
FFF80FFF80
FFF80FFF80
FFF80FFF80
FFF80FFF80
FFF80FFF80
FFF80FFF80
FFF80FFF80
FFF80FFF80
FFF80FFF80
FFF81FFF80
FFF81FFF80
FFFC1FFF80
FFFC1FFF80
7FFE3FFF80
7FFFFFFF80
7FFFFFFF80
7FFFFFFF80
7FFFFFFF80
3FFFEFFF80
3FFFEFFF80
1FFFEFFF80
1FFFCFFF80
0FFF8FFF80
03FF0FFF80
ENDCHAR
STARTCHAR e
ENCODING 101
SWIDTH 488 0
DWIDTH 37 0
BBX 33 56 2 0
BITMAP
0000800000
003FFF0000
01FFFFC000
03FFFFE000
0FFFFFF800
1FFFFFF800
1FFFFFFC00
3FFFFFFE00
3FFFFFFE00
7FFFFFFF00
7FFFFFFF00
7FFE3FFF00
FFFC1FFF00
FFFC1FFF00
FFF81FFF00
FFF81FFF00
FFF81FFF80
FFF81FFF80
FFF81FFF80
FFF81FFF80
FFF81FFF80
FFF81FFF00
FFF81FFF00
FFFFFFFF00
FFFFFFFF00
FFFFFFFF00
FFFFFFFF00
FFFFFFFF00
FFFFFFFF00
FFFFFFFF00
FFF8000000
FFF8000000
FFF8000000
FFF8000000
FFF8000000
FFF81FFF80
FFF81FFF80
FFF81FFF80
FFF81FFF00
FFF81FFF00
FFF81FFF00
FFF81FFF00
FFF81FFF00
7FFC1FFF00
7FFC1FFF00
7FFC3FFF00
7FFFFFFF00
7FFFFFFE00
3FFFFFFE00
3FFFFFFC00
1FFFFFFC00
0FFFFFF800
0FFFFFF000
07FFFFE000
01FFFFC000
007FFE0000
ENDCHAR
STARTCHAR f
ENCODING 102
SWIDTH 280 0
DWIDTH 21 0
BBX 17 65 2 0
BITMAP
01FF00
07FF80
0FFF80
1FFF80
3FFF80
3FFF80
3FFF80
3FFF80
3FFF80
3FFE00
3FFE00
3FFE00
FFFF80
FFFF80
FFFF80
FFFF80
FFFF80
FFFF80
FFFF80
FFFF80
FFFF80
FFFF80
3FFE00
3FFE00
3FFE00
3FFE00
3FFE00
3FFE00
3FFE00
3FFE00
3FFE00
3FFE00
3FFE00
3FFE00
3FFE00
3FFE00
3FFE00
3FFE00
3FFE00
3FFE00
3FFE00
3FFE00
3FFE00
3FFE00
3FFE00
3FFE00
3FFE00
3FFE00
3FFE00
3FFE00
3FFE00
3FFE00
3FFE00
3FFE00
3FFE00
3FFE00
3FFE00
3FFE00
3FFE00
3FFE00
3FFE00
3FFE00
3FFE00
3FFE00
3FFE00
ENDCHAR
STARTCHAR g
ENCODING 103
SWIDTH 504 0
DWIDTH 38 0
BBX 33 65 2 -9
BITMAP
0010000000
03FF0FFF80
07FF8FFF80
0FFFCFFF80
1FFFEFFF80
3FFFEFFF80
3FFFFFFF80
3FFFFFFF80
7FFFFFFF80
7FFFFFFF80
7FFFFFFF80
7FFE1FFF80
7FFC1FFF80
7FFC0FFF80
7FFC0FFF80
7FFC0FFF80
7FFC0FFF80
7FFC0FFF80
7FFC0FFF80
7FFC0FFF80
7FFC0FFF80
7FFC0FFF80
7FFC0FFF80
7FFC0FFF80
7FFC0FFF80
7FFC0FFF80
7FFC0FFF80
7FFC0FFF80
7FFC0FFF80
7FFC0FFF80
7FFC0FFF80
7FFC0FFF80
7FFC0FFF80
7FFC0FFF80
7FFC0FFF80
7FFC0FFF80
7FFC0FFF80
7FFC0FFF80
7FFC0FFF80
7FFC1FFF80
7FFE3FFF80
7FFFFFFF80
7FFFFFFF80
7FFFFFFF80
3FFFFFFF80
3FFFFFFF80
1FFFFFFF80
1FFFEFFF80
0FFFCFFF80
07FF8FFF80
01FF0FFF80
00000FFF80
00001FFF80
08001FFF80
1E003FFF80
1FC0FFFF00
3FFFFFFF00
3FFFFFFE00
7FFFFFFE00
FFFFFFFC00
FFFFFFF800
7FFFFFF000
3FFFFFE000
0FFFFF8000
00FFF80000
ENDCHAR
STARTCHAR h
ENCODING 104
SWIDTH 505 0
DWIDTH 38 0
BBX 32 65 3 0
BITMAP
FFF80000
FFF80000
FFF80000
FFF80000
FFF80000
FFF80000
FFF80000
FFF80000
FFF80000
FFF80400
FFF87FC0
FFF8FFF0
FFF9FFF8
FFFBFFFC
FFFBFFFE
FFFFFFFE
FFFFFFFE
FFFFFFFF
FFFFFFFF
FFFFFFFF
FFFC3FFF
FFFC1FFF
FFF81FFF
FFF81FFF
FFF81FFF
FFF81FFF
FFF81FFF
FFF81FFF
FFF81FFF
FFF81FFF
FFF81FFF
FFF81FFF
FFF81FFF
FFF81FFF
FFF81FFF
FFF81FFF
FFF81FFF
FFF81FFF
FFF81FFF
FFF81FFF
FFF81FFF
FFF81FFF
FFF81FFF
FFF81FFF
FFF81FFF
FFF81FFF
FFF81FFF
FFF81FFF
FFF81FFF
FFF81FFF
FFF81FFF
FFF81FFF
FFF81FFF
FFF81FFF
FFF81FFF
FFF81FFF
FFF81FFF
FFF81FFF
FFF81FFF
FFF81FFF
FFF81FFF
FFF81FFF
FFF81FFF
FFF81FFF
FFF81FFF
ENDCHAR
STARTCHAR i
ENCODING 105
SWIDTH 243 0
DWIDTH 18 0
BBX 13 68 3 0
BITMAP
FFF8
FFF8
FFF8
FFF8
FFF8
FFF8
FFF8
FFF8
FFF8
0000
0000
0000
0000
FFF8
FFF8
FFF8
FFF8
FFF8
FFF8
FFF8
FFF8
FFF8
FFF8
FFF8
FFF8
FFF8
FFF8
FFF8
FFF8
FFF8
FFF8
FFF8
FFF8
FFF8
FFF8
FFF8
FFF8
FFF8
FFF8
FFF8
FFF8
FFF8
FFF8
FFF8
FFF8
FFF8
FFF8
FFF8
FFF8
FFF8
FFF8
FFF8
FFF8
FFF8
FFF8
FFF8
FFF8
FFF8
FFF8
FFF8
FFF8
FFF8
FFF8
FFF8
FFF8
FFF8
FFF8
FFF8
ENDCHAR
STARTCHAR j
ENCODING 106
SWIDTH 263 0
DWIDTH 20 0
BBX 16 75 1 -7
BITMAP
1FFF
1FFF
1FFF
1FFF
1FFF
1FFF
1FFF
1FFF
1FFF
0000
0000
0000
0000
1FFF
1FFF
1FFF
1FFF
1FFF
1FFF
1FFF
1FFF
1FFF
1FFF
1FFF
1FFF
1FFF
1FFF
1FFF
1FFF
1FFF
1FFF
1FFF
1FFF
1FFF
1FFF
1FFF
1FFF
1FFF
1FFF
1FFF
1FFF
1FFF
1FFF
1FFF
1FFF
1FFF
1FFF
1FFF
1FFF
1FFF
1FFF
1FFF
1FFF
1FFF
1FFF
1FFF
1FFF
1FFF
1FFF
1FFF
1FFF
1FFF
1FFF
1FFF
1FFF
FFFF
FFFF
FFFF
FFFE
FFFE
FFFE
FFFC
FFF8
FFF0
7FC0
ENDCHAR
STARTCHAR k
ENCODING 107
SWIDTH 491 0
DWIDTH 37 0
BBX 35 65 3 0
BITMAP
FFF8000000
FFF8000000
FFF8000000
FFF8000000
FFF8000000
FFF8000000
FFF8000000
FFF8000000
FFF8000000
FFF8000000
FFF81FFF00
FFF83FFF00
FFF83FFF00
FFF83FFE00
FFF87FFE00
FFF87FFE00
FFF87FFC00
FFF8FFFC00
FFF8FFFC00
FFF8FFF800
FFF9FFF800
FFF9FFF800
FFF9FFF000
FFFBFFF000
FFFBFFF000
FFFBFFE000
FFFFFFE000
FFFFFFE000
FFFFFFC000
FFFFFFC000
FFFFFF8000
FFFFFF8000
FFFFFF8000
FFFFFF0000
FFFFFF0000
FFFFFF8000
FFFFFF8000
FFFFFF8000
FFFFFFC000
FFFFFFC000
FFFFFFC000
FFFFFFE000
FFFBFFE000
FFFBFFE000
FFFBFFF000
FFF9FFF000
FFF9FFF000
FFF9FFF800
FFF8FFF800
FFF8FFF800
FFF8FFFC00
FFF8FFFC00
FFF87FFC00
FFF87FFE00
FFF87FFE00
FFF83FFE00
FFF83FFF00
FFF83FFF00
FFF81FFF80
FFF81FFF80
FFF81FFF80
FFF80FFFC0
FFF80FFFC0
FFF80FFFC0
FFF807FFE0
ENDCHAR
STARTCHAR l
ENCODING 108
SWIDTH 248 0
DWIDTH 19 0
BBX 13 65 3 0
BITMAP
FFF8
FFF8
FFF8
FFF8
FFF8
FFF8
FFF8
FFF8
FFF8
FFF8
FFF8
FFF8
FFF8
FFF8
FFF8
FFF8
FFF8
FFF8
FFF8
FFF8
FFF8
FFF8
FFF8
FFF8
FFF8
FFF8
FFF8
FFF8
FFF8
FFF8
FFF8
FFF8
FFF8
FFF8
FFF8
FFF8
FFF8
FFF8
FFF8
FFF8
FFF8
FFF8
FFF8
FFF8
FFF8
FFF8
FFF8
FFF8
FFF8
FFF8
FFF8
FFF8
FFF8
FFF8
FFF8
FFF8
FFF8
FFF8
FFF8
FFF8
FFF8
FFF8
FFF8
FFF8
FFF8
ENDCHAR
STARTCHAR m
ENCODING 109
SWIDTH 758 0
DWIDTH 57 0
BBX 51 56 3 0
BITMAP
00000400010000
FFF07FC01FF800
FFF1FFF07FFE00
FFF3FFF8FFFF00
FFF3FFFCFFFF80
FFF7FFFDFFFF80
FFF7FFFFFFFFC0
FFFFFFFFFFFFC0
FFFFFFFFFFFFE0
FFFFFFFFFFFFE0
FFFFFFFFFFFFE0
FFFC3FFF87FFE0
FFF83FFF83FFE0
FFF81FFF03FFE0
FFF81FFF03FFE0
FFF81FFF03FFE0
FFF01FFF03FFE0
FFF01FFF03FFE0
FFF01FFF03FFE0
FFF01FFF03FFE0
FFF01FFF03FFE0
FFF01FFF03FFE0
FFF01FFF03FFE0
FFF01FFF03FFE0
FFF01FFF03FFE0
FFF01FFF03FFE0
FFF01FFF03FFE0
FFF01FFF03FFE0
FFF01FFF03FFE0
FFF01FFF03FFE0
FFF01FFF03FFE0
FFF01FFF03FFE0
FFF01FFF03FFE0
FFF01FFF03FFE0
FFF01FFF03FFE0
FFF01FFF03FFE0
FFF01FFF03FFE0
FFF01FFF03FFE0
FFF01FFF03FFE0
FFF01FFF03FFE0
FFF01FFF03FFE0
FFF01FFF03FFE0
FFF01FFF03FFE0
FFF01FFF03FFE0
FFF01FFF03FFE0
FFF01FFF03FFE0
FFF01FFF03FFE0
FFF01FFF03FFE0
FFF01FFF03FFE0
FFF01FFF03FFE0
FFF01FFF03FFE0
FFF01FFF03FFE0
FFF01FFF03FFE0
FFF01FFF03FFE0
FFF01FFF03FFE0
FFF01FFF03FFE0
ENDCHAR
STARTCHAR n
ENCODING 110
SWIDTH 499 0
DWIDTH 37 0
BBX 32 56 3 0
BITMAP
00000800
FFF87FC0
FFF8FFF0
FFF9FFF8
FFFBFFFC
FFFBFFFC
FFFFFFFE
FFFFFFFE
FFFFFFFE
FFFFFFFF
FFFFFFFF
FFFC3FFF
FFF81FFF
FFF81FFF
FFF81FFF
FFF81FFF
FFF81FFF
FFF81FFF
FFF81FFF
FFF81FFF
FFF81FFF
FFF81FFF
FFF81FFF
FFF81FFF
FFF81FFF
FFF81FFF
FFF81FFF
FFF81FFF
FFF81FFF
FFF81FFF
FFF81FFF
FFF81FFF
FFF81FFF
FFF81FFF
FFF81FFF
FFF81FFF
FFF81FFF
FFF81FFF
FFF81FFF
FFF81FFF
FFF81FFF
FFF81FFF
FFF81FFF
FFF81FFF
FFF81FFF
FFF81FFF
FFF81FFF
FFF81FFF
FFF81FFF
FFF81FFF
FFF81FFF
FFF81FFF
FFF81FFF
FFF81FFF
FFF81FFF
FFF81FFF
ENDCHAR
STARTCHAR o
ENCODING 111
SWIDTH 497 0
DWIDTH 37 0
BBX 33 56 2 0
BITMAP
0000800000
003FFE0000
00FFFF8000
03FFFFE000
07FFFFF000
0FFFFFF800
1FFFFFFC00
1FFFFFFC00
3FFFFFFE00
3FFFFFFE00
7FFFFFFF00
7FFE1FFF00
7FFC1FFF00
FFFC1FFF80
FFFC0FFF80
FFFC0FFF80
FFFC0FFF80
FFFC0FFF80
FFFC0FFF80
FFFC0FFF80
FFFC0FFF80
FFFC0FFF80
FFFC0FFF80
FFFC0FFF80
FFFC0FFF80
FFFC0FFF80
FFFC0FFF80
FFFC0FFF80
FFFC0FFF80
FFFC0FFF80
FFFC0FFF80
FFFC0FFF80
FFFC0FFF80
FFFC0FFF80
FFFC0FFF80
FFFC0FFF80
FFFC0FFF80
FFFC0FFF80
FFFC0FFF80
FFFC0FFF80
FFFC0FFF80
FFFC0FFF80
FFFC0FFF80
FFFC0FFF80
7FFC1FFF80
7FFE1FFF00
7FFFFFFF00
7FFFFFFF00
3FFFFFFE00
3FFFFFFE00
1FFFFFFC00
0FFFFFFC00
07FFFFF800
03FFFFE000
01FFFFC000
003FFF0000
ENDCHAR
STARTCHAR p
ENCODING 112
SWIDTH 500 0
DWIDTH 38 0
BBX 32 67 3 -11
BITMAP
00000800
FFF8FFC0
FFFBFFF0
FFFFFFF8
FFFFFFFC
FFFFFFFC
FFFFFFFE
FFFFFFFE
FFFFFFFE
FFFFFFFF
FFFFFFFF
FFFC3FFF
FFFC1FFF
FFF81FFF
FFF81FFF
FFF81FFF
FFF81FFF
FFF81FFF
FFF81FFF
FFF81FFF
FFF81FFF
FFF81FFF
FFF81FFF
FFF81FFF
FFF81FFF
FFF81FFF
FFF81FFF
FFF81FFF
FFF81FFF
FFF81FFF
FFF81FFF
FFF81FFF
FFF81FFF
FFF81FFF
FFF81FFF
FFF81FFF
FFF81FFF
FFF81FFF
FFF81FFF
FFF81FFF
FFF81FFF
FFF81FFF
FFF81FFF
FFF81FFF
FFF83FFF
FFFC3FFF
FFFFFFFF
FFFFFFFE
FFFFFFFE
FFFFFFFE
FFFFFFFE
FFFFFFFC
FFFFFFF8
FFFFFFF8
FFFBFFF0
FFF9FFC0
FFF80800
FFF80000
FFF80000
FFF80000
FFF80000
FFF80000
FFF80000
FFF80000
FFF80000
FFF80000
FFF80000
ENDCHAR
STARTCHAR q
ENCODING 113
SWIDTH 500 0
DWIDTH 38 0
BBX 33 67 2 -11
BITMAP
0010000000
03FF1FFF80
07FFDFFF80
0FFFFFFF80
1FFFFFFF80
3FFFFFFF80
3FFFFFFF80
7FFFFFFF80
7FFFFFFF80
7FFFFFFF80
7FFFFFFF80
FFFC3FFF80
FFFC1FFF80
FFFC1FFF80
FFFC1FFF80
FFF81FFF80
FFF81FFF80
FFF81FFF80
FFF81FFF80
FFF81FFF80
FFF81FFF80
FFF81FFF80
FFF81FFF80
FFF81FFF80
FFF81FFF80
FFF81FFF80
FFF81FFF80
FFF81FFF80
FFF81FFF80
FFF81FFF80
FFF81FFF80
FFF81FFF80
FFF81FFF80
FFF81FFF80
FFF81FFF80
FFF81FFF80
FFF81FFF80
FFF81FFF80
FFF81FFF80
FFF81FFF80
FFF81FFF80
FFF81FFF80
FFFC1FFF80
FFFC1FFF80
FFFC1FFF80
7FFC3FFF80
7FFFFFFF80
7FFFFFFF80
7FFFFFFF80
7FFFFFFF80
3FFFFFFF80
3FFFFFFF80
1FFFFFFF80
1FFFFFFF80
07FFDFFF80
03FF1FFF80
00101FFF80
00001FFF80
00001FFF80
00001FFF80
00001FFF80
00001FFF80
00001FFF80
00001FFF80
00001FFF80
00001FFF80
00001FFF80
ENDCHAR
STARTCHAR r
ENCODING 114
SWIDTH 344 0
DWIDTH 26 0
BBX 22 56 3 0
BITMAP
000004
FFF87C
FFF8FC
FFF9FC
FFFBFC
FFFFFC
FFFFFC
FFFFFC
FFFFFC
FFFFFC
FFFFFC
FFFFFC
FFFE00
FFF800
FFF800
FFF800
FFF800
FFF800
FFF800
FFF800
FFF800
FFF800
FFF800
FFF800
FFF800
FFF800
FFF800
FFF800
FFF800
FFF800
FFF800
FFF800
FFF800
FFF800
FFF800
FFF800
FFF800
FFF800
FFF800
FFF800
FFF800
FFF800
FFF800
FFF800
FFF800
FFF800
FFF800
FFF800
FFF800
FFF800
FFF800
FFF800
FFF800
FFF800
FFF800
FFF800
ENDCHAR
STARTCHAR s
ENCODING 115
SWIDTH 475 0
DWIDTH 36 0
BBX 33 56 1 0
BITMAP
0000800000
003FFF0000
00FFFFC000
03FFFFF000
07FFFFF800
0FFFFFFC00
1FFFFFFC00
3FFFFFFE00
3FFFFFFF00
7FFFFFFF00
7FFFFFFF00
7FFC3FFF00
7FFC1FFF80
7FFC1FFF80
7FFC1FFF80
7FFC1FFF80
7FFC1FFF80
7FFE1FFF80
7FFF000000
7FFFC00000
3FFFE00000
3FFFF80000
3FFFFC0000
1FFFFE0000
0FFFFF8000
07FFFFC000
03FFFFE000
01FFFFF000
00FFFFF800
003FFFFC00
001FFFFC00
000FFFFE00
0007FFFF00
0001FFFF00
0000FFFF00
00007FFF80
FFFC3FFF80
FFFC1FFF80
FFFC1FFF80
FFFC1FFF80
FFFC1FFF80
FFFC0FFF80
7FFC0FFF80
7FFC1FFF80
7FFC1FFF80
7FFE1FFF80
7FFFFFFF00
7FFFFFFF00
3FFFFFFF00
3FFFFFFE00
1FFFFFFC00
0FFFFFFC00
07FFFFF800
03FFFFF000
01FFFFC000
003FFF0000
ENDCHAR
STARTCHAR t
ENCODING 116
SWIDTH 305 0
DWIDTH 23 0
BBX 20 65 1 0
BITMAP
0FFF80
0FFF80
0FFF80
0FFF80
0FFF80
0FFF80
0FFF80
0FFF80
0FFF80
0FFF80
0FFF80
0FFF80
FFFFF0
FFFFF0
FFFFF0
FFFFF0
FFFFF0
FFFFF0
FFFFF0
FFFFF0
FFFFF0
FFFFF0
0FFF80
0FFF80
0FFF80
0FFF80
0FFF80
0FFF80
0FFF80
0FFF80
0FFF80
0FFF80
0FFF80
0FFF80
0FFF80
0FFF80
0FFF80
0FFF80
0FFF80
0FFF80
0FFF80
0FFF80
0FFF80
0FFF80
0FFF80
0FFF80
0FFF80
0FFF80
0FFF80
0FFF80
0FFF80
0FFF80
0FFF80
0FFF80
0FFF80
0FFF80
0FFFF0
0FFFF0
0FFFF0
0FFFF0
0FFFF0
07FFF0
07FFF0
03FFF0
01FFF0
ENDCHAR
STARTCHAR u
ENCODING 117
SWIDTH 499 0
DWIDTH 37 0
BBX 33 55 2 0
BITMAP
FFFC0FFF80
FFFC0FFF80
FFFC0FFF80
FFFC0FFF80
FFFC0FFF80
FFFC0FFF80
FFFC0FFF80
FFFC0FFF80
FFFC0FFF80
FFFC0FFF80
FFFC0FFF80
FFFC0FFF80
FFFC0FFF80
FFFC0FFF80
FFFC0FFF80
FFFC0FFF80
FFFC0FFF80
FFFC0FFF80
FFFC0FFF80
FFFC0FFF80
FFFC0FFF80
FFFC0FFF80
FFFC0FFF80
FFFC0FFF80
FFFC0FFF80
FFFC0FFF80
FFFC0FFF80
FFFC0FFF80
FFFC0FFF80
FFFC0FFF80
FFFC0FFF80
FFFC0FFF80
FFFC0FFF80
FFFC0FFF80
FFFC0FFF80
FFFC0FFF80
FFFC0FFF80
FFFC0FFF80
FFFC0FFF80
FFFC0FFF80
FFFC0FFF80
FFFC0FFF80
FFFC1FFF80
7FFC1FFF80
7FFC1FFF80
7FFFFFFF80
7FFFFFFF80
7FFFFFFF80
7FFFFFFF80
3FFFFFFF80
3FFFEFFF80
1FFFEFFF80
1FFFCFFF80
0FFF8FFF80
03FF0FFF80
ENDCHAR
STARTCHAR v
ENCODING 118
SWIDTH 461 0
DWIDTH 35 0
BBX 33 55 1 0
BITMAP
FFF80FFF80
FFF81FFF80
FFF81FFF00
FFF81FFF00
7FF81FFF00
7FF81FFF00
7FFC1FFF00
7FFC1FFF00
7FFC1FFE00
7FFC1FFE00
3FFC3FFE00
3FFC3FFE00
3FFC3FFE00
3FFC3FFE00
3FFC3FFC00
3FFC3FFC00
3FFE3FFC00
1FFE3FFC00
1FFE3FFC00
1FFE3FFC00
1FFE7FF800
1FFE7FF800
1FFE7FF800
0FFE7FF800
0FFE7FF800
0FFE7FF800
0FFF7FF000
0FFF7FF000
0FFF7FF000
07FF7FF000
07FFFFF000
07FFFFF000
07FFFFE000
07FFFFE000
07FFFFE000
07FFFFE000
03FFFFE000
03FFFFE000
03FFFFE000
03FFFFC000
03FFFFC000
03FFFFC000
01FFFFC000
01FFFFC000
01FFFFC000
01FFFF8000
01FFFF8000
01FFFF8000
00FFFF8000
00FFFF8000
00FFFF8000
00FFFF0000
00FFFF0000
00FFFF0000
007FFF0000
ENDCHAR
STARTCHAR w
ENCODING 119
SWIDTH 696 0
DWIDTH 52 0
BBX 48 55 2 0
BITMAP
FFE03FF80FFF
FFE03FF80FFF
FFE03FFC0FFF
FFE07FFC0FFF
FFF07FFC0FFF
FFF07FFC0FFF
7FF07FFC1FFF
7FF07FFC1FFF
7FF07FFC1FFE
7FF07FFC1FFE
7FF07FFE1FFE
7FF07FFE1FFE
7FF8FFFE1FFE
7FF8FFFE1FFE
7FF8FFFE1FFE
3FF8FFFE3FFC
3FF8FFFE3FFC
3FF8FFFE3FFC
3FF8FFFF3FFC
3FF8FFFF3FFC
3FFCFFFF3FFC
3FFCFFFF3FFC
3FFDFFFF3FFC
1FFDFFFF3FF8
1FFDFFFF3FF8
1FFDFF7F7FF8
1FFDFF7FFFF8
1FFDFF7FFFF8
1FFFFF7FFFF8
1FFFFF7FFFF8
1FFFFF7FFFF8
0FFFFF7FFFF0
0FFFFE7FFFF0
0FFFFE3FFFF0
0FFFFE3FFFF0
0FFFFE3FFFF0
0FFFFE3FFFF0
0FFFFE3FFFF0
0FFFFE3FFFF0
07FFFE3FFFE0
07FFFE3FFFE0
07FFFC1FFFE0
07FFFC1FFFE0
07FFFC1FFFE0
07FFFC1FFFE0
07FFFC1FFFE0
07FFFC1FFFE0
07FFFC1FFFC0
03FFFC1FFFC0
03FFFC0FFFC0
03FFF80FFFC0
03FFF80FFFC0
03FFF80FFFC0
03FFF80FFFC0
03FFF80FFFC0
ENDCHAR
STARTCHAR x
ENCODING 120
SWIDTH 459 0
DWIDTH 34 0
BBX 34 55 0 0
BITMAP
7FFE00FFC0
3FFE01FF80
3FFE01FF80
3FFF01FF00
1FFF03FF00
1FFF03FF00
0FFF83FE00
0FFF87FE00
0FFF87FE00
07FFC7FC00
07FFCFFC00
07FFEFFC00
03FFEFF800
03FFFFF800
03FFFFF800
01FFFFF000
01FFFFF000
01FFFFF000
00FFFFE000
00FFFFE000
00FFFFE000
007FFFC000
007FFFC000
003FFFC000
003FFF8000
003FFF8000
003FFF8000
003FFF0000
007FFF8000
007FFF8000
007FFF8000
00FFFFC000
00FFFFC000
00FFFFC000
01FFFFE000
01FFFFE000
01FFFFE000
03FFFFF000
03FFFFF000
03FFFFF800
07FEFFF800
07FEFFF800
07FEFFFC00
0FFC7FFC00
0FFC7FFC00
0FF83FFE00
1FF83FFE00
1FF83FFE00
1FF01FFF00
3FF01FFF00
3FF01FFF80
7FE00FFF80
7FE00FFF80
7FE00FFFC0
FFC007FFC0
ENDCHAR
STARTCHAR y
ENCODING 121
SWIDTH 461 0
DWIDTH 35 0
BBX 33 64 1 -9
BITMAP
FFF00FFF80
FFF00FFF00
FFF00FFF00
FFF00FFF00
FFF80FFF00
FFF80FFF00
7FF81FFF00
7FF81FFE00
7FF81FFE00
7FF81FFE00
7FF81FFE00
7FF81FFE00
3FF81FFE00
3FF81FFC00
3FF81FFC00
3FFC3FFC00
3FFC3FFC00
3FFC3FFC00
1FFC3FF800
1FFC3FF800
1FFC3FF800
1FFC3FF800
1FFC3FF800
1FFC3FF800
1FFC7FF000
0FFC7FF000
0FFE7FF000
0FFE7FF000
0FFE7FF000
0FFE7FF000
0FFE7FE000
07FE7FE000
07FE7FE000
07FE7FE000
07FEFFE000
07FEFFC000
07FEFFC000
03FFFFC000
03FFFFC000
03FFFFC000
03FFFFC000
03FFFF8000
03FFFF8000
03FFFF8000
01FFFF8000
01FFFF8000
01FFFF8000
01FFFF0000
01FFFF0000
01FFFF0000
00FFFF0000
00FFFF0000
00FFFE0000
00FFFE0000
00FFFE0000
00FFFE0000
7FFFFE0000
7FFFFE0000
7FFFFC0000
7FFFFC0000
7FFFFC0000
7FFFF80000
7FFFF00000
7FFFE00000
ENDCHAR
STARTCHAR z
ENCODING 122
SWIDTH 386 0
DWIDTH 29 0
BBX 27 55 1 0
BITMAP
7FFFFFE0
7FFFFFE0
7FFFFFE0
7FFFFFE0
7FFFFFE0
7FFFFFE0
7FFFFFE0
7FFFFFE0
7FFFFFE0
7FFFFFE0
0003FFE0
0007FFC0
0007FFC0
000FFFC0
000FFF80
000FFF80
001FFF80
001FFF00
001FFF00
003FFE00
003FFE00
007FFE00
007FFC00
007FFC00
00FFFC00
00FFF800
00FFF800
01FFF800
01FFF000
03FFF000
03FFF000
03FFE000
07FFE000
07FFC000
07FFC000
0FFFC000
0FFF8000
0FFF8000
1FFF8000
1FFF0000
3FFF0000
3FFF0000
3FFE0000
7FFE0000
7FFC0000
7FFFFFE0
FFFFFFE0
FFFFFFE0
FFFFFFE0
FFFFFFE0
FFFFFFE0
FFFFFFE0
FFFFFFE0
FFFFFFE0
FFFFFFE0
ENDCHAR
STARTCHAR braceleft
ENCODING 123
SWIDTH 340 0
DWIDTH 26 0
BBX 23 74 1 -7
BITMAP
0000FE
000FFE
003FFE
00FFFE
01FFFE
01FFFE
03FFFE
03FFFE
03FFFE
07FFFE
07FFF8
07FFE0
07FFC0
07FFC0
07FFC0
07FFC0
07FFC0
07FFC0
07FFC0
07FFC0
07FFC0
07FFC0
07FFC0
07FFC0
07FFC0
07FFC0
07FFC0
07FFC0
07FFC0
07FFC0
07FFC0
0FFF80
1FFF80
FFFF00
FFFE00
FFFC00
FFF000
FFF000
FFFC00
FFFE00
FFFF00
1FFF80
0FFF80
07FFC0
07FFC0
07FFC0
07FFC0
07FFC0
07FFC0
07FFC0
07FFC0
07FFC0
07FFC0
07FFC0
07FFC0
07FFC0
07FFC0
07FFC0
07FFC0
07FFC0
07FFC0
07FFC0
07FFE0
07FFF0
07FFFE
03FFFE
03FFFE
03FFFE
01FFFE
01FFFE
00FFFE
003FFE
000FFE
0000FE
ENDCHAR
STARTCHAR bar
ENCODING 124
SWIDTH 216 0
DWIDTH 16 0
BBX 12 75 2 -3
BITMAP
FFF0
FFF0
FFF0
FFF0
FFF0
FFF0
FFF0
FFF0
FFF0
FFF0
FFF0
FFF0
FFF0
FFF0
FFF0
FFF0
FFF0
FFF0
FFF0
FFF0
FFF0
FFF0
FFF0
FFF0
FFF0
FFF0
FFF0
FFF0
FFF0
FFF0
FFF0
FFF0
FFF0
FFF0
FFF0
FFF0
FFF0
FFF0
FFF0
FFF0
FFF0
FFF0
FFF0
FFF0
FFF0
FFF0
FFF0
FFF0
FFF0
FFF0
FFF0
FFF0
FFF0
FFF0
FFF0
FFF0
FFF0
FFF0
FFF0
FFF0
FFF0
FFF0
FFF0
FFF0
FFF0
FFF0
FFF0
FFF0
FFF0
FFF0
FFF0
FFF0
FFF0
FFF0
FFF0
ENDCHAR
STARTCHAR braceright
ENCODING 125
SWIDTH 340 0
DWIDTH 26 0
BBX 23 74 2 -7
BITMAP
FE0000
FFE000
FFF800
FFFC00
FFFE00
FFFF00
FFFF00
FFFF80
FFFF80
FFFF80
3FFF80
0FFF80
0FFF80
07FF80
07FF80
07FF80
07FF80
07FF80
07FF80
07FF80
07FF80
07FF80
07FF80
07FF80
07FF80
07FF80
07FF80
07FF80
07FFC0
07FFC0
07FFC0
07FFC0
03FFE0
03FFFE
01FFFE
00FFFE
001FFE
001FFE
007FFE
01FFFE
03FFFE
03FFF0
07FFC0
07FFC0
07FFC0
07FFC0
07FF80
07FF80
07FF80
07FF80
07FF80
07FF80
07FF80
07FF80
07FF80
07FF80
07FF80
07FF80
07FF80
07FF80
07FF80
0FFF80
0FFF80
3FFF80
FFFF80
FFFF80
FFFF80
FFFF00
FFFF00
FFFE00
FFFC00
FFF800
FFE000
FE0000
ENDCHAR
STARTCHAR asciitilde
ENCODING 126
SWIDTH 493 0
DWIDTH 37 0
BBX 35 13 2 30
BITMAP
03FE000800
0FFFE01F80
1FFFFC3FE0
1FFFFFFFC0
3FFFFFFFC0
7FFFFFFF80
7FFFFFFF80
FFFFFFFF80
FFFFFFFF00
7F0FFFFE00
1E01FFFE00
04007FFC00
000007F000
ENDCHAR
STARTCHAR uni00A0
ENCODING 160
SWIDTH 234 0
DWIDTH 18 0
BBX 1 1 0 0
BITMAP
00
ENDCHAR
STARTCHAR exclamdown
ENCODING 161
SWIDTH 227 0
DWIDTH 17 0
BBX 13 65 2 -4
BITMAP
FFF8
FFF8
FFF8
FFF8
FFF8
FFF8
FFF8
FFF8
FFF8
FFF8
FFF8
0000
0000
0000
0000
0000
0000
0000
1FE0
3FE0
3FE0
3FE0
3FE0
3FE0
3FE0
3FE0
3FE0
3FE0
3FE0
3FE0
3FE0
3FE0
3FE0
3FE0
3FE0
3FF0
3FF0
3FF0
7FF0
7FF0
7FF0
7FF0
7FF0
7FF0
7FF0
7FF0
7FF0
7FF0
7FF0
7FF0
7FF0
7FF0
7FF0
7FF8
7FF8
7FF8
FFF8
FFF8
FFF8
FFF8
FFF8
FFF8
FFF8
FFF8
FFF8
ENDCHAR
STARTCHAR cent
ENCODING 162
SWIDTH 481 0
DWIDTH 36 0
BBX 32 68 2 -6
BITMAP
0007F000
0007F000
0007F000
0007F000
0007F000
0007F000
001FFC00
00FFFF80
03FFFFC0
07FFFFF0
0FFFFFF8
1FFFFFFC
3FFFFFFC
3FFFFFFE
7FFFFFFE
7FFFFFFF
7FFC3FFF
7FFC1FFF
FFF81FFF
FFF81FFF
FFF81FFF
FFF81FFF
FFF81FFF
FFF81FFF
FFF81FFF
FFF81FFF
FFF81FFF
FFF81FFF
FFF81FFF
FFF80000
FFF80000
FFF80000
FFF80000
FFF80000
FFF80000
FFF80000
FFF80000
FFF80000
FFF80000
FFF81FFF
FFF81FFF
FFF81FFF
FFF81FFF
FFF81FFF
FFF81FFF
FFF81FFF
FFF81FFF
FFF81FFF
FFF81FFF
FFF81FFF
FFFC1FFF
7FFC3FFF
7FFFFFFF
7FFFFFFF
3FFFFFFE
3FFFFFFE
1FFFFFFC
1FFFFFF8
0FFFFFF0
07FFFFE0
01FFFFC0
007FFE00
0007F000
0007F000
0007F000
0007F000
0007F000
0007F000
ENDCHAR
STARTCHAR sterling
ENCODING 163
SWIDTH 474 0
DWIDTH 36 0
BBX 32 59 2 0
BITMAP
0007FC00
003FFF80
00FFFFE0
03FFFFF0
07FFFFF8
07FFFFFC
0FFFFFFC
0FFFFFFE
1FFFFFFE
1FFFFFFE
1FFFFFFE
1FFF8FFF
1FFF0FFF
1FFF0FFF
1FFF0FFF
1FFF0FFF
1FFF0FFF
1FFF0000
1FFF0000
1FFF8000
0FFF8000
0FFF8000
0FFF8000
0FFFC000
07FFC000
FFFFFFF8
FFFFFFF8
FFFFFFF8
FFFFFFF8
FFFFFFF8
FFFFFFF8
FFFFFFF8
FFFFFFF8
FFFFFFF8
03FFE000
03FFF000
03FFF000
03FFF000
03FFF000
03FFF000
03FFF000
03FFF000
07FFE000
07FFE000
07FFE000
0FFFC000
1FFF8000
3FFF0000
7FFE0000
FFFFFFFF
FFFFFFFF
FFFFFFFF
FFFFFFFF
FFFFFFFF
FFFFFFFF
FFFFFFFF
FFFFFFFF
FFFFFFFF
FFFFFFFF
ENDCHAR
STARTCHAR currency
ENCODING 164
SWIDTH 488 0
DWIDTH 37 0
BBX 33 33 2 19
BITMAP
0C00001000
1E0FF83800
3F7FFE7C00
7FFFFFFE00
FFFFFFFF00
FFFFFFFF80
7FFFFFFF00
3FFFFFFC00
1FFC1FFC00
3FF007FC00
3FE003FE00
3FC001FE00
7F8001FE00
7F8000FE00
7F8000FE00
7F8000FF00
7F8000FF00
7F8000FF00
7F8000FE00
7F8001FE00
7F8001FE00
3FC001FE00
3FE003FE00
3FF007FC00
1FF81FFC00
3FFFFFFC00
7FFFFFFE00
FFFFFFFF00
FFFFFFFF80
7FFFFFFE00
3F7FFE7C00
1E0FF83800
0C00001000
ENDCHAR
STARTCHAR yen
ENCODING 165
SWIDTH 463 0
DWIDTH 35 0
BBX 33 65 0 0
BITMAP
FFF80FFF80
7FF80FFF80
7FFC0FFF80
7FFC0FFF00
7FFC0FFF00
3FFC1FFF00
3FFC1FFF00
3FFC1FFE00
3FFC1FFE00
1FFE1FFE00
1FFE1FFE00
1FFE3FFC00
1FFE3FFC00
0FFE3FFC00
0FFE3FFC00
0FFF3FF800
0FFF3FF800
0FFF3FF800
07FF7FF800
07FF7FF800
07FF7FF000
07FFFFF000
03FFFFF000
03FFFFF000
03FFFFE000
03FFFFE000
01FFFFE000
01FFFFE000
01FFFFC000
01FFFFC000
01FFFFC000
00FFFFC000
00FFFFC000
00FFFF8000
00FFFF8000
007FFF8000
007FFF8000
007FFF0000
007FFF0000
1FFFFFFC00
1FFFFFFC00
1FFFFFFC00
1FFFFFFC00
1FFFFFFC00
1FFFFFFC00
001FFE0000
001FFE0000
001FFE0000
001FFE0000
1FFFFFFC00
1FFFFFFC00
1FFFFFFC00
1FFFFFFC00
1FFFFFFC00
1FFFFFFC00
001FFE0000
001FFE0000
001FFE0000
001FFE0000
001FFE0000
001FFE0000
001FFE0000
001FFE0000
001FFE0000
001FFE0000
ENDCHAR
STARTCHAR brokenbar
ENCODING 166
SWIDTH 222 0
DWIDTH 17 0
BBX 12 75 2 -3
BITMAP
FFF0
FFF0
FFF0
FFF0
FFF0
FFF0
FFF0
FFF0
FFF0
FFF0
FFF0
FFF0
FFF0
FFF0
FFF0
FFF0
FFF0
FFF0
FFF0
FFF0
FFF0
FFF0
FFF0
FFF0
FFF0
FFF0
FFF0
FFF0
FFF0
FFF0
FFF0
FFF0
FFF0
FFF0
0000
0000
0000
0000
0000
0000
0000
0000
FFF0
FFF0
FFF0
FFF0
FFF0
FFF0
FFF0
FFF0
FFF0
FFF0
FFF0
FFF0
FFF0
FFF0
FFF0
FFF0
FFF0
FFF0
FFF0
FFF0
FFF0
FFF0
FFF0
FFF0
FFF0
FFF0
FFF0
FFF0
FFF0
FFF0
FFF0
FFF0
FFF0
ENDCHAR
STARTCHAR section
ENCODING 167
SWIDTH 449 0
DWIDTH 34 0
BBX 30 60 2 0
BITMAP
001FF000
00FFFE00
03FFFF80
0FFFFFC0
1FFFFFE0
1FFFFFF0
3FFFFFF0
7FFFFFF8
7FFFFFF8
7FFFFFF8
FFFC7FFC
FFF03FFC
FFF01FFC
FFF01FFC
FFF01FFC
7FF80000
7FFC0000
7FFF0000
3FFF8000
1FFFE000
0FFFF000
07FFFC00
0FFFFF00
1FFFFF80
3FFFFFC0
3FFFFFF0
7FF3FFF0
7FE0FFF8
FFE03FFC
FFE01FFC
FFE00FFC
FFE00FFC
7FF80FFC
7FFE1FF8
3FFFFFF8
1FFFFFF0
0FFFFFF0
07FFFFE0
01FFFFC0
00FFFFC0
003FFFE0
000FFFF0
0003FFF0
0001FFF8
0000FFF8
00007FFC
FFF03FFC
FFF03FFC
FFF03FFC
FFF83FFC
FFFFFFFC
FFFFFFFC
7FFFFFF8
7FFFFFF8
7FFFFFF0
3FFFFFE0
1FFFFFC0
0FFFFF80
03FFFF00
00FFF800
ENDCHAR
STARTCHAR dieresis
ENCODING 168
SWIDTH 477 0
DWIDTH 36 0
BBX 31 11 2 59
BITMAP
FFFC3FFE
FFFC3FFE
FFFC3FFE
FFFC3FFE
FFFC3FFE
FFFC3FFE
FFFC3FFE
FFFC3FFE
FFFC3FFE
FFFC3FFE
FFFC3FFE
ENDCHAR
STARTCHAR copyright
ENCODING 169
SWIDTH 675 0
DWIDTH 51 0
BBX 48 49 1 8
BITMAP
00001FF80000
0000FFFF8000
0007FFFFE000
000FFFFFF800
003FFFFFFC00
007FF00FFF00
00FF8000FF80
01FE00007FC0
03FC00001FE0
07F007F00FF0
0FE01FFC07F0
0FE03FFE03F8
1FC07FFF01F8
1F80FFFF01FC
3F80FFFF80FC
3F00FE7F807E
7F00FE3F807E
7E00FE3F807E
7E00FE3F803F
7E00FE3F803F
7C00FE3F803F
FC00FE3F803F
FC00FE00003F
FC00FE00001F
FC00FE00001F
FC00FE00001F
FC00FE00003F
FC00FE3F803F
7C00FE3F803F
7E00FE3F803F
7E00FE3F803F
7E00FE3F807E
7F00FE3F807E
3F00FE3F807E
3F80FE7F80FC
1F80FFFF80FC
1FC0FFFF01F8
0FC07FFF03F8
0FE03FFE07F0
07F01FFC0FF0
03FC07F01FE0
01FE00007FC0
00FF8000FF80
007FF00FFF00
003FFFFFFE00
000FFFFFF800
0007FFFFE000
0000FFFF8000
00001FF80000
ENDCHAR
STARTCHAR ordfeminine
ENCODING 170
SWIDTH 392 0
DWIDTH 29 0
BBX 25 45 2 29
BITMAP
00FF8000
07FFF000
0FFFF800
1FFFFE00
3FFFFE00
7FFFFF00
7FFFFF00
7FFFFF80
FFE3FF80
FFE3FF80
FFC1FF80
FFC1FF80
FFC1FF80
0001FF80
0001FF80
0001FF80
0007FF80
003FFF80
00FFFF80
07FFFF80
0FFFFF80
1FFFFF80
3FFDFF80
7FF1FF80
7FE1FF80
FFE1FF80
FFC1FF80
FFC1FF80
FFC1FF80
FFC1FF80
FFC1FF80
FFC1FF80
FFC1FF80
FFC1FF80
FFC1FF80
FFE3FF80
FFE3FF80
FFFFFF80
FFFFFF80
7FFFFF80
7FFFFF80
7FFDFF80
3FFDFF80
1FF1FF80
07E00000
ENDCHAR
STARTCHAR guillemotleft
ENCODING 171
SWIDTH 578 0
DWIDTH 43 0
BBX 40 35 1 10
BITMAP
0000600003
0001E00007
0003E0001F
000FE0007F
003FE001FF
00FFE007FF
03FFE01FFF
0FFFE07FFF
3FFFE0FFFF
7FFFE3FFFF
FFFFE3FFFF
FFFFE3FFFF
FFFFE3FFFF
FFFF83FFFE
FFFE03FFF0
FFF003FF80
FFC003FE00
FF0003F800
FFC003FF00
FFF803FFC0
FFFE03FFF0
FFFFC3FFFE
FFFFE3FFFF
FFFFE3FFFF
FFFFE3FFFF
3FFFE1FFFF
1FFFE0FFFF
07FFE03FFF
01FFE00FFF
007FE003FF
003FE000FF
000FE0007F
0003E0001F
0000E00007
0000200001
ENDCHAR
STARTCHAR logicalnot
ENCODING 172
SWIDTH 404 0
DWIDTH 30 0
BBX 27 20 1 17
BITMAP
FFFFFFE0
FFFFFFE0
FFFFFFE0
FFFFFFE0
FFFFFFE0
FFFFFFE0
FFFFFFE0
0000FFE0
0000FFE0
0000FFE0
0000FFE0
0000FFE0
0000FFE0
0000FFE0
0000FFE0
0000FFE0
0000FFE0
0000FFE0
0000FFE0
0000FFE0
ENDCHAR
STARTCHAR uni00AD
ENCODING 173
SWIDTH 293 0
DWIDTH 22 0
BBX 19 9 2 19
BITMAP
FFFFE0
FFFFE0
FFFFE0
FFFFE0
FFFFE0
FFFFE0
FFFFE0
FFFFE0
FFFFE0
ENDCHAR
STARTCHAR registered
ENCODING 174
SWIDTH 675 0
DWIDTH 51 0
BBX 48 49 1 8
BITMAP
00001FF80000
0000FFFF8000
0007FFFFE000
000FFFFFF800
003FFFFFFC00
007FF00FFF00
00FF8000FF80
01FE00007FC0
03FC00001FE0
07F0FFFC0FF0
0FE0FFFE07F0
0FE0FFFF03F8
1FC0FFFF01F8
1F80FFFF81FC
3F80FFFF80FC
3F00FE3F807E
7F00FE3F807E
7E00FE3F807E
7E00FE3F803F
7E00FE3F803F
7C00FE3F803F
FC00FFFF003F
FC00FFFF003F
FC00FFFE001F
FC00FFFE001F
FC00FFFF001F
FC00FE7F003F
FC00FE3F003F
7C00FE3F803F
7E00FE3F803F
7E00FE3F803F
7E00FE3F807E
7F00FE3F807E
3F00FE3F807E
3F80FE3F80FC
1F80FE3F80FC
1FC0FE3F81F8
0FC0FE3F83F8
0FE0FE3F87F0
07F0FE3F8FF0
03FC00001FE0
01FE00007FC0
00FF8000FF80
007FF00FFF00
003FFFFFFE00
000FFFFFF800
0007FFFFE000
0000FFFF8000
00001FF80000
ENDCHAR
STARTCHAR macron
ENCODING 175
SWIDTH 833 0
DWIDTH 62 0
BBX 24 6 19 60
BITMAP
FFFFFF
FFFFFF
FFFFFF
FFFFFF
FFFFFF
FFFFFF
ENDCHAR
STARTCHAR degree
ENCODING 176
SWIDTH 389 0
DWIDTH 29 0
BBX 26 25 2 34
BITMAP
00FF8000
03FFE000
0FFFF800
1FFFFC00
3FFFFE00
7FFFFF00
7FFFFF00
FFC1FF80
FF80FF80
FF007F80
FF007F80
FE003F80
FE003FC0
FE003FC0
FF007F80
FF007F80
FF80FF80
FFC1FF80
7FFFFF00
7FFFFF00
3FFFFE00
1FFFFC00
0FFFF800
03FFE000
00FF8000
ENDCHAR
STARTCHAR plusminus
ENCODING 177
SWIDTH 358 0
DWIDTH 27 0
BBX 23 39 2 0
BITMAP
01FF00
01FF00
01FF00
01FF00
01FF00
01FF00
01FF00
FFFFFE
FFFFFE
FFFFFE
FFFFFE
FFFFFE
FFFFFE
FFFFFE
FFFFFE
FFFFFE
01FF00
01FF00
01FF00
01FF00
01FF00
01FF00
01FF00
01FF00
000000
000000
000000
000000
000000
000000
7FFFF0
7FFFF0
7FFFF0
7FFFF0
7FFFF0
7FFFF0
7FFFF0
7FFFF0
7FFFF0
ENDCHAR
STARTCHAR uni00B2
ENCODING 178
SWIDTH 302 0
DWIDTH 23 0
BBX 19 37 2 29
BITMAP
004000
0FFC00
3FFF00
3FFF80
7FFFC0
7FFFC0
FFFFC0
FFFFE0
FF1FE0
FE1FE0
FE1FE0
FE1FE0
FE1FE0
FE1FE0
FE3FE0
003FC0
007FC0
007F80
00FF80
01FF00
03FF00
03FE00
07FC00
0FF800
1FF800
1FF000
3FE000
7FC000
7FC000
7F8000
FFFFE0
FFFFE0
FFFFE0
FFFFE0
FFFFE0
FFFFE0
FFFFE0
ENDCHAR
STARTCHAR uni00B3
ENCODING 179
SWIDTH 298 0
DWIDTH 22 0
BBX 18 37 2 29
BITMAP
004000
0FFC00
3FFF00
7FFF00
7FFF80
FFFFC0
FFFFC0
FFFFC0
FF1FC0
FE1FC0
FE1FC0
001FC0
003FC0
007FC0
01FFC0
01FF80
01FF00
01FF00
01FF80
01FFC0
003FC0
003FC0
001FC0
FE1FC0
FE1FC0
FE1FC0
FE1FC0
FE1FC0
FE1FC0
FF3FC0
FFFFC0
FFFFC0
7FFF80
7FFF80
3FFF00
1FFE00
07F000
ENDCHAR
STARTCHAR acute
ENCODING 180
SWIDTH 317 0
DWIDTH 24 0
BBX 18 17 3 57
BITMAP
000040
0001C0
0007C0
001FC0
007FC0
01FFC0
0FFFC0
3FFFC0
FFFFC0
FFFFC0
FFFFC0
FFFFC0
FFFFC0
FFFF00
FFE000
FC0000
800000
ENDCHAR
STARTCHAR uni00B5
ENCODING 181
SWIDTH 490 0
DWIDTH 37 0
BBX 33 62 2 -7
BITMAP
FFFC0FFF80
FFFC0FFF80
FFFC0FFF80
FFFC0FFF80
FFFC0FFF80
FFFC0FFF80
FFFC0FFF80
FFFC0FFF80
FFFC0FFF80
FFFC0FFF80
FFFC0FFF80
FFFC0FFF80
FFFC0FFF80
FFFC0FFF80
FFFC0FFF80
FFFC0FFF80
FFFC0FFF80
FFFC0FFF80
FFFC0FFF80
FFFC0FFF80
FFFC0FFF80
FFFC0FFF80
FFFC0FFF80
FFFC0FFF80
FFFC0FFF80
FFFC0FFF80
FFFC0FFF80
FFFC0FFF80
FFFC0FFF80
FFFC0FFF80
FFFC0FFF80
FFFC0FFF80
FFFC0FFF80
FFFC0FFF80
FFFC0FFF80
FFFC0FFF80
FFFC0FFF80
FFFC0FFF80
FFFC0FFF80
FFFC0FFF80
FFFC0FFF80
FFFC0FFF80
FFFC1FFF80
FFFC1FFF80
FFFC1FFF80
FFFFFFFF80
FFFFFFFF80
FFFFFFFF80
FFFFFFFF80
FFFFFFFF80
FFFFEFFF80
FFFFEFFF80
FFFFCFFF80
FFFF8FFF80
FFFF0FFF80
FFFC000000
FFFC000000
FFFC000000
FFFC000000
FFFC000000
FFFC000000
FFFC000000
ENDCHAR
STARTCHAR paragraph
ENCODING 182
SWIDTH 498 0
DWIDTH 37 0
BBX 34 59 1 0
BITMAP
0003FFFFC0
007FFFFFC0
01FFFFFFC0
07FFFFFFC0
0FFFFFFFC0
1FFFFFFFC0
3FFFFFFFC0
7FFFFFFFC0
7FFFFFFFC0
7FFFFFFFC0
FFFFFFFFC0
FFFFFC7FC0
FFFFFC7FC0
FFFFFC7FC0
FFFFFC7FC0
FFFFFC7FC0
FFFFFC7FC0
FFFFFC7FC0
FFFFFC7FC0
7FFFFC7FC0
7FFFFC7FC0
7FFFFC7FC0
3FFFFC7FC0
3FFFFC7FC0
1FFFFC7FC0
1FFFFC7FC0
07FFFC7FC0
03FFFC7FC0
00FFFC7FC0
000FFC7FC0
0007FC7FC0
0007FC7FC0
0007FC7FC0
0007FC7FC0
0007FC7FC0
0007FC7FC0
0007FC7FC0
0007FC7FC0
0007FC7FC0
0007FC7FC0
0007FC7FC0
0007FC7FC0
0007FC7FC0
0007FC7FC0
0007FC7FC0
0007FC7FC0
0007FC7FC0
0007FC7FC0
0007FC7FC0
0007FC7FC0
0007FC7FC0
0007FC7FC0
0007FC7FC0
0007FC7FC0
0007FC7FC0
0007FC7FC0
0007FC7FC0
0007FC7FC0
0007FC7FC0
ENDCHAR
STARTCHAR periodcentered
ENCODING 183
SWIDTH 234 0
DWIDTH 18 0
BBX 12 11 3 27
BITMAP
FFF0
FFF0
FFF0
FFF0
FFF0
FFF0
FFF0
FFF0
FFF0
FFF0
FFF0
ENDCHAR
STARTCHAR cedilla
ENCODING 184
SWIDTH 496 0
DWIDTH 37 0
BBX 18 24 10 -23
BITMAP
0FC000
07E000
03F000
03F800
01FC00
01FE00
01FE00
00FF00
00FF00
00FF80
00FF80
00FF80
00FFC0
00FFC0
83FFC0
FFFFC0
FFFFC0
FFFFC0
FFFF80
FFFF80
FFFF00
FFFE00
FFFC00
1FE000
ENDCHAR
STARTCHAR uni00B9
ENCODING 185
SWIDTH 206 0
DWIDTH 15 0
BBX 12 35 1 30
BITMAP
03F0
03F0
07F0
1FF0
FFF0
FFF0
FFF0
FFF0
FFF0
E7F0
07F0
07F0
07F0
07F0
07F0
07F0
07F0
07F0
07F0
07F0
07F0
07F0
07F0
07F0
07F0
07F0
07F0
07F0
07F0
07F0
07F0
07F0
07F0
07F0
07F0
ENDCHAR
STARTCHAR ordmasculine
ENCODING 186
SWIDTH 397 0
DWIDTH 30 0
BBX 26 45 2 29
BITMAP
007F8000
03FFE000
07FFF800
0FFFFC00
1FFFFE00
3FFFFF00
7FFFFF00
7FFFFF80
7FE3FF80
FFE1FF80
FFE1FFC0
FFC1FFC0
FFC1FFC0
FFC1FFC0
FFC1FFC0
FFC1FFC0
FFC1FFC0
FFC1FFC0
FFC1FFC0
FFC1FFC0
FFC1FFC0
FFC1FFC0
FFC1FFC0
FFC1FFC0
FFC1FFC0
FFC1FFC0
FFC1FFC0
FFC1FFC0
FFC1FFC0
FFC1FFC0
FFC1FFC0
FFC1FFC0
FFC1FFC0
FFC1FFC0
FFE1FFC0
FFE1FFC0
FFF3FF80
7FFFFF80
7FFFFF80
3FFFFF00
3FFFFE00
1FFFFE00
0FFFFC00
03FFF000
00FF8000
ENDCHAR
STARTCHAR guillemotright
ENCODING 187
SWIDTH 578 0
DWIDTH 43 0
BBX 40 35 2 10
BITMAP
C000060000
F000078000
FC0007E000
FE0007F800
FF8007FC00
FFE007FF00
FFF807FFC0
FFFE07FFF0
FFFF87FFFC
FFFFE7FFFF
FFFFE7FFFF
FFFFE7FFFF
FFFFE7FFFF
3FFFE1FFFF
0FFFE07FFF
01FFE00FFF
007FE001FF
001FE000FF
007FE003FF
03FFE01FFF
0FFFE07FFF
3FFFE1FFFF
FFFFE7FFFF
FFFFE7FFFF
FFFFE7FFFF
FFFFC7FFFE
FFFF07FFF8
FFFC07FFE0
FFF007FFC0
FFE007FF00
FF8007FC00
FE0007F000
F80007C000
E000078000
C000060000
ENDCHAR
STARTCHAR onequarter
ENCODING 188
SWIDTH 814 0
DWIDTH 61 0
BBX 50 65 5 0
BITMAP
01F80001FFC000
03F80001FF8000
07F80001FF8000
0FF80003FF8000
FFF80003FF0000
7FF80003FF0000
7FF80007FE0000
7FF80007FE0000
FFF80007FE0000
F7F8000FFC0000
07F8000FFC0000
07F8000FFC0000
07F8001FF80000
07F8001FF80000
07F8001FF00000
07F8003FF00000
07F8003FF00000
07F8003FE00000
07F8007FE00000
07F8007FE00000
07F8007FC00000
07F800FFC00000
07F800FF800000
07F800FF800000
07F800FF800000
07F801FF000000
07F801FF000000
07F801FE000000
07F803FE000000
07F803FE000000
07F803FC07FF80
07F807FC07FF80
07F807FC0FFF80
07F807F80FFF80
07F80FF80FFF80
00000FF01FFF80
00000FF01FFF80
00001FF01FFF80
00001FE01FFF80
00001FE03FFF80
00003FC03F7F80
00003FC03F7F80
00003FC07F7F80
00007F807F7F80
00007F807E7F80
00007F80FE7F80
0000FF00FE7F80
0000FF00FE7F80
0000FE00FC7F80
0001FE01FC7F80
0001FE01FC7F80
0001FC01FC7F80
0003FC03F87F80
0003F803FFFFC0
0003F803FFFFC0
0007F803FFFFC0
0007F003FFFFC0
0007F003FFFFC0
000FF003FFFFC0
000FE000007F80
000FE000007F80
001FC000007F80
001FC000007F80
001FC000007F80
003F8000007F80
ENDCHAR
STARTCHAR onehalf
ENCODING 189
SWIDTH 861 0
DWIDTH 65 0
BBX 54 65 5 0
BITMAP
01F80000FFC000
03F80001FFC000
07F80001FF8000
0FF80001FF8000
FFF80003FF8000
7FF80003FF0000
7FF80003FF0000
7FF80007FE0000
FFF80007FE0000
F7F80007FE0000
07F8000FFC0000
07F8000FFC0000
07F8000FFC0000
07F8001FF80000
07F8001FF80000
07F8001FF00000
07F8003FF00000
07F8003FF00000
07F8003FE00000
07F8007FE00000
07F8007FC00000
07F8007FC00000
07F8007FC00000
07F800FF800000
07F800FF800000
07F800FF800000
07F801FF000000
07F801FF000000
07F801FE000800
07F803FE01FF80
07F803FE07FFE0
07F803FC07FFF0
07F807FC0FFFF8
07F807F80FFFF8
07F807F81FFFF8
00000FF81FFFFC
00000FF01FE3FC
00000FF01FC3FC
00001FF01FC3FC
00001FE01FC3FC
00001FE01FC3FC
00003FC01FC3FC
00003FC01FC7FC
00003FC00007F8
00007F80000FF8
00007F80000FF0
00007F80001FF0
0000FF00003FE0
0000FF00007FE0
0000FE00007FC0
0001FE0000FF80
0001FE0001FF00
0001FC0003FF00
0003FC0003FE00
0003F80007FC00
0003F8000FF800
0007F8000FF800
0007F0000FF000
0007F0001FFFFC
000FF0001FFFFC
000FE0001FFFFC
000FE0001FFFFC
001FC0001FFFFC
001FC0001FFFFC
001FC0001FFFFC
ENDCHAR
STARTCHAR threequarters
ENCODING 190
SWIDTH 854 0
DWIDTH 64 0
BBX 52 66 6 0
BITMAP
00400000000000
0FFC00003FF800
3FFF00003FF000
7FFF00007FF000
7FFF80007FE000
FFFFC0007FE000
FFFFC000FFC000
FFFFC000FFC000
FF1FC000FFC000
FE1FC001FF8000
FE1FC001FF8000
001FC001FF8000
003FC003FF0000
007FC003FF0000
01FFC003FE0000
01FF8007FE0000
01FF0007FE0000
01FF0007FC0000
01FF800FFC0000
01FFC00FF80000
003FC00FF80000
003FC01FF80000
001FC01FF00000
FE1FC01FF00000
FE1FC03FF00000
FE1FC03FE00000
FE1FC03FE00000
FE1FC07FC00000
FE1FC07FC00000
FF3FC07FC00000
FFFFC0FF800000
FFFFC0FF81FFE0
7FFF80FF81FFE0
7FFF81FF03FFE0
3FFF01FF03FFE0
1FFE01FE03FFE0
07F001FE07FFE0
000003FE07FFE0
000003FC07FFE0
000003FC07FFE0
000007F80FFFE0
000007F80FDFE0
000007F80FDFE0
00000FF01FDFE0
00000FF01FDFE0
00000FF01F9FE0
00001FE03F9FE0
00001FE03F9FE0
00001FC03F9FE0
00003FC03F1FE0
00003FC07F1FE0
00003F807F1FE0
00007F807F1FE0
00007F00FE1FE0
00007F00FFFFF0
0000FF00FFFFF0
0000FE00FFFFF0
0000FE00FFFFF0
0001FE00FFFFF0
0001FC00FFFFF0
0001FC00001FE0
0003F800001FE0
0003F800001FE0
0003F800001FE0
0007F000001FE0
0007F000001FE0
ENDCHAR
STARTCHAR questiondown
ENCODING 191
SWIDTH 493 0
DWIDTH 37 0
BBX 34 66 1 -5
BITMAP
00001FFF00
00001FFF00
00001FFF00
00001FFF00
00001FFF00
00001FFF00
00001FFF00
00001FFF00
00001FFF00
00001FFF00
00001FFF00
0000000000
0000000000
0000000000
0000000000
0000000000
0000000000
00001FFF00
00001FFF00
00001FFF00
00001FFF00
00001FFF00
00001FFF00
0001FFFF00
000FFFFF00
003FFFFF00
00FFFFFF00
01FFFFFF00
03FFFFFF00
07FFFFFF00
0FFFFFFF00
0FFFFFFF00
1FFFFF0000
1FFFF00000
3FFFC00000
3FFF800000
3FFF800000
7FFF000000
7FFE000000
7FFE000000
7FFE000000
7FFE000000
FFFE07FFC0
FFFC07FFC0
FFFC07FFC0
FFFC07FFC0
FFFC07FFC0
FFFC07FFC0
FFFC07FFC0
FFFC07FFC0
7FFC07FFC0
7FFE07FFC0
7FFE0FFFC0
7FFF1FFFC0
7FFFFFFFC0
3FFFFFFFC0
3FFFFFFFC0
3FFFFFFF80
1FFFFFFF80
1FFFFFFF00
0FFFFFFF00
07FFFFFE00
03FFFFFC00
01FFFFF000
007FFFC000
000FFE0000
ENDCHAR
STARTCHAR Agrave
ENCODING 192
SWIDTH 485 0
DWIDTH 36 0
BBX 34 84 1 0
BITMAP
0080000000
00E0000000
00F8000000
00FE000000
00FF800000
00FFE00000
00FFFC0000
00FFFF0000
00FFFFC000
00FFFFC000
00FFFFC000
00FFFFC000
00FFFFC000
003FFFC000
0001FFC000
00000FC000
0000004000
0000000000
0000000000
03FFFFF000
03FFFFF000
03FFFFF000
03FFFFF800
03FFFFF800
03FFFFF800
03FFFFF800
03FFFFF800
03FFFFF800
07FFFFF800
07FFFFF800
07FFFFF800
07FFFFF800
07FFBFF800
07FFBFFC00
07FFBFFC00
07FF3FFC00
07FF3FFC00
07FF3FFC00
0FFF3FFC00
0FFF3FFC00
0FFF3FFC00
0FFF3FFC00
0FFF3FFC00
0FFF1FFC00
0FFF1FFE00
0FFF1FFE00
0FFF1FFE00
0FFF1FFE00
0FFE1FFE00
1FFE1FFE00
1FFE1FFE00
1FFE1FFE00
1FFE1FFE00
1FFE1FFE00
1FFE1FFF00
1FFE0FFF00
1FFE0FFF00
1FFE0FFF00
1FFE0FFF00
3FFE0FFF00
3FFE0FFF00
3FFE0FFF00
3FFC0FFF00
3FFFFFFF00
3FFFFFFF00
3FFFFFFF80
3FFFFFFF80
3FFFFFFF80
3FFFFFFF80
7FFFFFFF80
7FFFFFFF80
7FFFFFFF80
7FFFFFFF80
7FF807FF80
7FF807FF80
7FF807FFC0
7FF807FFC0
7FF803FFC0
7FF803FFC0
7FF803FFC0
FFF803FFC0
FFF803FFC0
FFF803FFC0
FFF803FFC0
ENDCHAR
STARTCHAR Aacute
ENCODING 193
SWIDTH 485 0
DWIDTH 36 0
BBX 34 84 1 0
BITMAP
0000004000
000001C000
000007C000
00001FC000
00007FC000
0001FFC000
000FFFC000
003FFFC000
00FFFFC000
00FFFFC000
00FFFFC000
00FFFFC000
00FFFFC000
00FFFF0000
00FFE00000
00FC000000
0080000000
0000000000
0000000000
03FFFFF000
03FFFFF000
03FFFFF000
03FFFFF800
03FFFFF800
03FFFFF800
03FFFFF800
03FFFFF800
03FFFFF800
07FFFFF800
07FFFFF800
07FFFFF800
07FFFFF800
07FFBFF800
07FFBFFC00
07FFBFFC00
07FF3FFC00
07FF3FFC00
07FF3FFC00
0FFF3FFC00
0FFF3FFC00
0FFF3FFC00
0FFF3FFC00
0FFF3FFC00
0FFF1FFC00
0FFF1FFE00
0FFF1FFE00
0FFF1FFE00
0FFF1FFE00
0FFE1FFE00
1FFE1FFE00
1FFE1FFE00
1FFE1FFE00
1FFE1FFE00
1FFE1FFE00
1FFE1FFF00
1FFE0FFF00
1FFE0FFF00
1FFE0FFF00
1FFE0FFF00
3FFE0FFF00
3FFE0FFF00
3FFE0FFF00
3FFC0FFF00
3FFFFFFF00
3FFFFFFF00
3FFFFFFF80
3FFFFFFF80
3FFFFFFF80
3FFFFFFF80
7FFFFFFF80
7FFFFFFF80
7FFFFFFF80
7FFFFFFF80
7FF807FF80
7FF807FF80
7FF807FFC0
7FF807FFC0
7FF803FFC0
7FF803FFC0
7FF803FFC0
FFF803FFC0
FFF803FFC0
FFF803FFC0
FFF803FFC0
ENDCHAR
STARTCHAR Acircumflex
ENCODING 194
SWIDTH 485 0
DWIDTH 36 0
BBX 34 84 1 0
BITMAP
007FFF8000
00FFFF8000
00FFFFC000
01FFFFC000
01FFFFE000
03FF7FE000
07FF7FF000
07FF3FF800
0FFF3FF800
0FFE3FFC00
1FFE1FFC00
1FFE1FFE00
3FFC1FFF00
7FFC1FFF00
7FFC0FFF80
8000000000
0000000000
0000000000
0000000000
03FFFFF000
03FFFFF000
03FFFFF000
03FFFFF800
03FFFFF800
03FFFFF800
03FFFFF800
03FFFFF800
03FFFFF800
07FFFFF800
07FFFFF800
07FFFFF800
07FFFFF800
07FFBFF800
07FFBFFC00
07FFBFFC00
07FF3FFC00
07FF3FFC00
07FF3FFC00
0FFF3FFC00
0FFF3FFC00
0FFF3FFC00
0FFF3FFC00
0FFF3FFC00
0FFF1FFC00
0FFF1FFE00
0FFF1FFE00
0FFF1FFE00
0FFF1FFE00
0FFE1FFE00
1FFE1FFE00
1FFE1FFE00
1FFE1FFE00
1FFE1FFE00
1FFE1FFE00
1FFE1FFF00
1FFE0FFF00
1FFE0FFF00
1FFE0FFF00
1FFE0FFF00
3FFE0FFF00
3FFE0FFF00
3FFE0FFF00
3FFC0FFF00
3FFFFFFF00
3FFFFFFF00
3FFFFFFF80
3FFFFFFF80
3FFFFFFF80
3FFFFFFF80
7FFFFFFF80
7FFFFFFF80
7FFFFFFF80
7FFFFFFF80
7FF807FF80
7FF807FF80
7FF807FFC0
7FF807FFC0
7FF803FFC0
7FF803FFC0
7FF803FFC0
FFF803FFC0
FFF803FFC0
FFF803FFC0
FFF803FFC0
ENDCHAR
STARTCHAR Atilde
ENCODING 195
SWIDTH 485 0
DWIDTH 36 0
BBX 34 82 1 0
BITMAP
00FE002000
03FFC03C00
07FFF87F80
07FFFFFF00
0FFFFFFF00
0FFFFFFE00
1FFFFFFE00
1FFFFFFC00
3FFFFFFC00
0F83FFF800
0300FFF000
00001FC000
0000000000
0000000000
0000000000
0000000000
0000000000
03FFFFF000
03FFFFF000
03FFFFF000
03FFFFF800
03FFFFF800
03FFFFF800
03FFFFF800
03FFFFF800
03FFFFF800
07FFFFF800
07FFFFF800
07FFFFF800
07FFFFF800
07FFBFF800
07FFBFFC00
07FFBFFC00
07FF3FFC00
07FF3FFC00
07FF3FFC00
0FFF3FFC00
0FFF3FFC00
0FFF3FFC00
0FFF3FFC00
0FFF3FFC00
0FFF1FFC00
0FFF1FFE00
0FFF1FFE00
0FFF1FFE00
0FFF1FFE00
0FFE1FFE00
1FFE1FFE00
1FFE1FFE00
1FFE1FFE00
1FFE1FFE00
1FFE1FFE00
1FFE1FFF00
1FFE0FFF00
1FFE0FFF00
1FFE0FFF00
1FFE0FFF00
3FFE0FFF00
3FFE0FFF00
3FFE0FFF00
3FFC0FFF00
3FFFFFFF00
3FFFFFFF00
3FFFFFFF80
3FFFFFFF80
3FFFFFFF80
3FFFFFFF80
7FFFFFFF80
7FFFFFFF80
7FFFFFFF80
7FFFFFFF80
7FF807FF80
7FF807FF80
7FF807FFC0
7FF807FFC0
7FF803FFC0
7FF803FFC0
7FF803FFC0
FFF803FFC0
FFF803FFC0
FFF803FFC0
FFF803FFC0
ENDCHAR
STARTCHAR Adieresis
ENCODING 196
SWIDTH 485 0
DWIDTH 36 0
BBX 34 80 1 0
BITMAP
7FFE1FFF00
7FFE1FFF00
7FFE1FFF00
7FFE1FFF00
7FFE1FFF00
7FFE1FFF00
7FFE1FFF00
7FFE1FFF00
7FFE1FFF00
7FFE1FFF00
7FFE1FFF00
0000000000
0000000000
0000000000
0000000000
03FFFFF000
03FFFFF000
03FFFFF000
03FFFFF800
03FFFFF800
03FFFFF800
03FFFFF800
03FFFFF800
03FFFFF800
07FFFFF800
07FFFFF800
07FFFFF800
07FFFFF800
07FFBFF800
07FFBFFC00
07FFBFFC00
07FF3FFC00
07FF3FFC00
07FF3FFC00
0FFF3FFC00
0FFF3FFC00
0FFF3FFC00
0FFF3FFC00
0FFF3FFC00
0FFF1FFC00
0FFF1FFE00
0FFF1FFE00
0FFF1FFE00
0FFF1FFE00
0FFE1FFE00
1FFE1FFE00
1FFE1FFE00
1FFE1FFE00
1FFE1FFE00
1FFE1FFE00
1FFE1FFF00
1FFE0FFF00
1FFE0FFF00
1FFE0FFF00
1FFE0FFF00
3FFE0FFF00
3FFE0FFF00
3FFE0FFF00
3FFC0FFF00
3FFFFFFF00
3FFFFFFF00
3FFFFFFF80
3FFFFFFF80
3FFFFFFF80
3FFFFFFF80
7FFFFFFF80
7FFFFFFF80
7FFFFFFF80
7FFFFFFF80
7FF807FF80
7FF807FF80
7FF807FFC0
7FF807FFC0
7FF803FFC0
7FF803FFC0
7FF803FFC0
FFF803FFC0
FFF803FFC0
FFF803FFC0
FFF803FFC0
ENDCHAR
STARTCHAR Aring
ENCODING 197
SWIDTH 485 0
DWIDTH 36 0
BBX 34 93 1 0
BITMAP
0007F80000
003FFF0000
00FFFF8000
01FFFFE000
03FFFFE000
03FFFFF000
07FFFFF800
07FE1FF800
0FF807F800
0FF807FC00
0FF003FC00
0FF003FC00
0FF003FC00
0FF003FC00
0FF003FC00
0FF007FC00
0FF807F800
07FE1FF800
07FFFFF800
03FFFFF000
03FFFFE000
01FFFFE000
00FFFF8000
003FFF0000
0007F80000
0000000000
0000000000
0000000000
03FFFFF000
03FFFFF000
03FFFFF000
03FFFFF800
03FFFFF800
03FFFFF800
03FFFFF800
03FFFFF800
03FFFFF800
07FFFFF800
07FFFFF800
07FFFFF800
07FFFFF800
07FFBFF800
07FFBFFC00
07FFBFFC00
07FF3FFC00
07FF3FFC00
07FF3FFC00
0FFF3FFC00
0FFF3FFC00
0FFF3FFC00
0FFF3FFC00
0FFF3FFC00
0FFF1FFC00
0FFF1FFE00
0FFF1FFE00
0FFF1FFE00
0FFF1FFE00
0FFE1FFE00
1FFE1FFE00
1FFE1FFE00
1FFE1FFE00
1FFE1FFE00
1FFE1FFE00
1FFE1FFF00
1FFE0FFF00
1FFE0FFF00
1FFE0FFF00
1FFE0FFF00
3FFE0FFF00
3FFE0FFF00
3FFE0FFF00
3FFC0FFF00
3FFFFFFF00
3FFFFFFF00
3FFFFFFF80
3FFFFFFF80
3FFFFFFF80
3FFFFFFF80
7FFFFFFF80
7FFFFFFF80
7FFFFFFF80
7FFFFFFF80
7FF807FF80
7FF807FF80
7FF807FFC0
7FF807FFC0
7FF803FFC0
7FF803FFC0
7FF803FFC0
FFF803FFC0
FFF803FFC0
FFF803FFC0
FFF803FFC0
ENDCHAR
STARTCHAR AE
ENCODING 198
SWIDTH 640 0
DWIDTH 48 0
BBX 49 65 -2 0
BITMAP
000FFFFFFFFF00
000FFFFFFFFF00
000FFFFFFFFF00
001FFFFFFFFF00
001FFFFFFFFF00
001FFFFFFFFF00
001FFFFFFFFF00
001FFFFFFFFF00
001FFFFFFFFF00
003FFFFFFFFF00
003FFFFFFFFF00
003FFC7FF80000
003FFC7FF80000
003FFC7FF80000
003FFC7FF80000
007FFC7FF80000
007FFC7FF80000
007FFC7FF80000
007FF87FF80000
007FF87FF80000
00FFF87FF80000
00FFF87FF80000
00FFF87FF80000
00FFF87FF80000
00FFF87FF80000
00FFF87FF80000
01FFF07FFFFE00
01FFF07FFFFE00
01FFF07FFFFE00
01FFF07FFFFE00
01FFF07FFFFE00
03FFF07FFFFE00
03FFF07FFFFE00
03FFE07FFFFE00
03FFE07FFFFE00
03FFE07FFFFE00
03FFE07FFFFE00
07FFFFFFF80000
07FFFFFFF80000
07FFFFFFF80000
07FFFFFFF80000
07FFFFFFF80000
0FFFFFFFF80000
0FFFFFFFF80000
0FFFFFFFF80000
0FFFFFFFF80000
0FFFFFFFF80000
0FFF807FF80000
1FFF807FF80000
1FFF807FF80000
1FFF807FF80000
1FFF807FF80000
1FFF007FF80000
3FFF007FFFFF80
3FFF007FFFFF80
3FFF007FFFFF80
3FFF007FFFFF80
3FFF007FFFFF80
3FFE007FFFFF80
7FFE007FFFFF80
7FFE007FFFFF80
7FFE007FFFFF80
7FFE007FFFFF80
7FFE007FFFFF80
FFFC007FFFFF80
ENDCHAR
STARTCHAR Ccedilla
ENCODING 199
SWIDTH 474 0
DWIDTH 36 0
BBX 32 90 2 -24
BITMAP
00008000
003FFE00
00FFFF80
03FFFFC0
07FFFFF0
0FFFFFF8
1FFFFFF8
1FFFFFFC
3FFFFFFE
3FFFFFFE
3FFFFFFE
7FFFFFFF
7FFFFFFF
7FFC3FFF
7FF81FFF
7FF81FFF
FFF81FFF
FFF81FFF
FFF81FFF
FFF81FFF
FFF81FFF
FFF81FFF
FFF81FFF
FFF81FFF
FFF81FFF
FFF81FFF
FFF81FFF
FFF80000
FFF80000
FFF80000
FFF80000
FFF80000
FFF80000
FFF80000
FFF80000
FFF80000
FFF80000
FFF80000
FFF81FFF
FFF81FFF
FFF81FFF
FFF81FFF
FFF81FFF
FFF81FFF
FFF81FFF
FFF81FFF
FFF81FFF
FFF81FFF
FFF81FFF
FFF81FFF
FFF81FFF
FFF81FFF
FFF81FFF
7FFC1FFF
7FFC3FFF
7FFFFFFF
7FFFFFFF
7FFFFFFE
3FFFFFFE
3FFFFFFC
1FFFFFFC
0FFFFFF8
0FFFFFF8
07FFFFF0
01FFFFC0
00FFFF80
001FFC00
0007E000
0003F000
0003F800
0001FC00
0001FE00
0001FE00
0000FF00
0000FF00
0000FF80
0000FF80
0000FF80
0000FFC0
0000FFC0
0083FFC0
00FFFFC0
00FFFFC0
00FFFFC0
00FFFF80
00FFFF80
00FFFF00
00FFFE00
00FFFC00
001FE000
ENDCHAR
STARTCHAR Egrave
ENCODING 200
SWIDTH 412 0
DWIDTH 31 0
BBX 26 84 3 0
BITMAP
08000000
0E000000
0F800000
0FE00000
0FF80000
0FFE0000
0FFFC000
0FFFF000
0FFFFC00
0FFFFC00
0FFFFC00
0FFFFC00
0FFFFC00
03FFFC00
001FFC00
0000FC00
00000400
00000000
00000000
FFFFFFC0
FFFFFFC0
FFFFFFC0
FFFFFFC0
FFFFFFC0
FFFFFFC0
FFFFFFC0
FFFFFFC0
FFFFFFC0
FFFFFFC0
FFFFFFC0
FFFFFFC0
FFFFFFC0
FFF80000
FFF80000
FFF80000
FFF80000
FFF80000
FFF80000
FFF80000
FFF80000
FFF80000
FFF80000
FFF80000
FFF80000
FFFFFF80
FFFFFF80
FFFFFF80
FFFFFF80
FFFFFF80
FFFFFF80
FFFFFF80
FFFFFF80
FFFFFF80
FFFFFF80
FFFFFF80
FFFFFF80
FFF80000
FFF80000
FFF80000
FFF80000
FFF80000
FFF80000
FFF80000
FFF80000
FFF80000
FFF80000
FFF80000
FFF80000
FFF80000
FFF80000
FFF80000
FFFFFFC0
FFFFFFC0
FFFFFFC0
FFFFFFC0
FFFFFFC0
FFFFFFC0
FFFFFFC0
FFFFFFC0
FFFFFFC0
FFFFFFC0
FFFFFFC0
FFFFFFC0
FFFFFFC0
ENDCHAR
STARTCHAR Eacute
ENCODING 201
SWIDTH 412 0
DWIDTH 31 0
BBX 26 84 3 0
BITMAP
00000400
00001C00
00007C00
0001FC00
0007FC00
001FFC00
00FFFC00
03FFFC00
0FFFFC00
0FFFFC00
0FFFFC00
0FFFFC00
0FFFFC00
0FFFF000
0FFE0000
0FC00000
08000000
00000000
00000000
FFFFFFC0
FFFFFFC0
FFFFFFC0
FFFFFFC0
FFFFFFC0
FFFFFFC0
FFFFFFC0
FFFFFFC0
FFFFFFC0
FFFFFFC0
FFFFFFC0
FFFFFFC0
FFFFFFC0
FFF80000
FFF80000
FFF80000
FFF80000
FFF80000
FFF80000
FFF80000
FFF80000
FFF80000
FFF80000
FFF80000
FFF80000
FFFFFF80
FFFFFF80
FFFFFF80
FFFFFF80
FFFFFF80
FFFFFF80
FFFFFF80
FFFFFF80
FFFFFF80
FFFFFF80
FFFFFF80
FFFFFF80
FFF80000
FFF80000
FFF80000
FFF80000
FFF80000
FFF80000
FFF80000
FFF80000
FFF80000
FFF80000
FFF80000
FFF80000
FFF80000
FFF80000
FFF80000
FFFFFFC0
FFFFFFC0
FFFFFFC0
FFFFFFC0
FFFFFFC0
FFFFFFC0
FFFFFFC0
FFFFFFC0
FFFFFFC0
FFFFFFC0
FFFFFFC0
FFFFFFC0
FFFFFFC0
ENDCHAR
STARTCHAR Ecircumflex
ENCODING 202
SWIDTH 412 0
DWIDTH 31 0
BBX 32 84 1 0
BITMAP
00FFFF00
01FFFF00
01FFFF80
03FFFF80
03FFFFC0
07FEFFC0
0FFEFFE0
0FFE7FF0
1FFE7FF0
1FFC7FF8
3FFC3FF8
3FFC3FFC
7FF83FFE
FFF83FFE
FFF81FFF
00000000
00000000
00000000
00000000
3FFFFFF0
3FFFFFF0
3FFFFFF0
3FFFFFF0
3FFFFFF0
3FFFFFF0
3FFFFFF0
3FFFFFF0
3FFFFFF0
3FFFFFF0
3FFFFFF0
3FFFFFF0
3FFFFFF0
3FFE0000
3FFE0000
3FFE0000
3FFE0000
3FFE0000
3FFE0000
3FFE0000
3FFE0000
3FFE0000
3FFE0000
3FFE0000
3FFE0000
3FFFFFE0
3FFFFFE0
3FFFFFE0
3FFFFFE0
3FFFFFE0
3FFFFFE0
3FFFFFE0
3FFFFFE0
3FFFFFE0
3FFFFFE0
3FFFFFE0
3FFFFFE0
3FFE0000
3FFE0000
3FFE0000
3FFE0000
3FFE0000
3FFE0000
3FFE0000
3FFE0000
3FFE0000
3FFE0000
3FFE0000
3FFE0000
3FFE0000
3FFE0000
3FFE0000
3FFFFFF0
3FFFFFF0
3FFFFFF0
3FFFFFF0
3FFFFFF0
3FFFFFF0
3FFFFFF0
3FFFFFF0
3FFFFFF0
3FFFFFF0
3FFFFFF0
3FFFFFF0
3FFFFFF0
ENDCHAR
STARTCHAR Edieresis
ENCODING 203
SWIDTH 412 0
DWIDTH 31 0
BBX 31 80 0 0
BITMAP
FFFC3FFE
FFFC3FFE
FFFC3FFE
FFFC3FFE
FFFC3FFE
FFFC3FFE
FFFC3FFE
FFFC3FFE
FFFC3FFE
FFFC3FFE
FFFC3FFE
00000000
00000000
00000000
00000000
1FFFFFF8
1FFFFFF8
1FFFFFF8
1FFFFFF8
1FFFFFF8
1FFFFFF8
1FFFFFF8
1FFFFFF8
1FFFFFF8
1FFFFFF8
1FFFFFF8
1FFFFFF8
1FFFFFF8
1FFF0000
1FFF0000
1FFF0000
1FFF0000
1FFF0000
1FFF0000
1FFF0000
1FFF0000
1FFF0000
1FFF0000
1FFF0000
1FFF0000
1FFFFFF0
1FFFFFF0
1FFFFFF0
1FFFFFF0
1FFFFFF0
1FFFFFF0
1FFFFFF0
1FFFFFF0
1FFFFFF0
1FFFFFF0
1FFFFFF0
1FFFFFF0
1FFF0000
1FFF0000
1FFF0000
1FFF0000
1FFF0000
1FFF0000
1FFF0000
1FFF0000
1FFF0000
1FFF0000
1FFF0000
1FFF0000
1FFF0000
1FFF0000
1FFF0000
1FFFFFF8
1FFFFFF8
1FFFFFF8
1FFFFFF8
1FFFFFF8
1FFFFFF8
1FFFFFF8
1FFFFFF8
1FFFFFF8
1FFFFFF8
1FFFFFF8
1FFFFFF8
1FFFFFF8
ENDCHAR
STARTCHAR Igrave
ENCODING 204
SWIDTH 227 0
DWIDTH 17 0
BBX 18 84 0 0
BITMAP
800000
E00000
F80000
FE0000
FF8000
FFE000
FFFC00
FFFF00
FFFFC0
FFFFC0
FFFFC0
FFFFC0
FFFFC0
3FFFC0
01FFC0
000FC0
000040
000000
000000
3FFE00
3FFE00
3FFE00
3FFE00
3FFE00
3FFE00
3FFE00
3FFE00
3FFE00
3FFE00
3FFE00
3FFE00
3FFE00
3FFE00
3FFE00
3FFE00
3FFE00
3FFE00
3FFE00
3FFE00
3FFE00
3FFE00
3FFE00
3FFE00
3FFE00
3FFE00
3FFE00
3FFE00
3FFE00
3FFE00
3FFE00
3FFE00
3FFE00
3FFE00
3FFE00
3FFE00
3FFE00
3FFE00
3FFE00
3FFE00
3FFE00
3FFE00
3FFE00
3FFE00
3FFE00
3FFE00
3FFE00
3FFE00
3FFE00
3FFE00
3FFE00
3FFE00
3FFE00
3FFE00
3FFE00
3FFE00
3FFE00
3FFE00
3FFE00
3FFE00
3FFE00
3FFE00
3FFE00
3FFE00
3FFE00
ENDCHAR
STARTCHAR Iacute
ENCODING 205
SWIDTH 227 0
DWIDTH 17 0
BBX 18 84 -1 0
BITMAP
000040
0001C0
0007C0
001FC0
007FC0
01FFC0
0FFFC0
3FFFC0
FFFFC0
FFFFC0
FFFFC0
FFFFC0
FFFFC0
FFFF00
FFE000
FC0000
800000
000000
000000
1FFF00
1FFF00
1FFF00
1FFF00
1FFF00
1FFF00
1FFF00
1FFF00
1FFF00
1FFF00
1FFF00
1FFF00
1FFF00
1FFF00
1FFF00
1FFF00
1FFF00
1FFF00
1FFF00
1FFF00
1FFF00
1FFF00
1FFF00
1FFF00
1FFF00
1FFF00
1FFF00
1FFF00
1FFF00
1FFF00
1FFF00
1FFF00
1FFF00
1FFF00
1FFF00
1FFF00
1FFF00
1FFF00
1FFF00
1FFF00
1FFF00
1FFF00
1FFF00
1FFF00
1FFF00
1FFF00
1FFF00
1FFF00
1FFF00
1FFF00
1FFF00
1FFF00
1FFF00
1FFF00
1FFF00
1FFF00
1FFF00
1FFF00
1FFF00
1FFF00
1FFF00
1FFF00
1FFF00
1FFF00
1FFF00
ENDCHAR
STARTCHAR Icircumflex
ENCODING 206
SWIDTH 227 0
DWIDTH 17 0
BBX 32 84 -7 0
BITMAP
00FFFF00
01FFFF00
01FFFF80
03FFFF80
03FFFFC0
07FEFFC0
0FFEFFE0
0FFE7FF0
1FFE7FF0
1FFC7FF8
3FFC3FF8
3FFC3FFC
7FF83FFE
FFF83FFE
FFF81FFF
00000000
00000000
00000000
00000000
007FFC00
007FFC00
007FFC00
007FFC00
007FFC00
007FFC00
007FFC00
007FFC00
007FFC00
007FFC00
007FFC00
007FFC00
007FFC00
007FFC00
007FFC00
007FFC00
007FFC00
007FFC00
007FFC00
007FFC00
007FFC00
007FFC00
007FFC00
007FFC00
007FFC00
007FFC00
007FFC00
007FFC00
007FFC00
007FFC00
007FFC00
007FFC00
007FFC00
007FFC00
007FFC00
007FFC00
007FFC00
007FFC00
007FFC00
007FFC00
007FFC00
007FFC00
007FFC00
007FFC00
007FFC00
007FFC00
007FFC00
007FFC00
007FFC00
007FFC00
007FFC00
007FFC00
007FFC00
007FFC00
007FFC00
007FFC00
007FFC00
007FFC00
007FFC00
007FFC00
007FFC00
007FFC00
007FFC00
007FFC00
007FFC00
ENDCHAR
STARTCHAR Idieresis
ENCODING 207
SWIDTH 227 0
DWIDTH 17 0
BBX 31 80 -8 0
BITMAP
FFFC3FFE
FFFC3FFE
FFFC3FFE
FFFC3FFE
FFFC3FFE
FFFC3FFE
FFFC3FFE
FFFC3FFE
FFFC3FFE
FFFC3FFE
FFFC3FFE
00000000
00000000
00000000
00000000
003FFE00
003FFE00
003FFE00
003FFE00
003FFE00
003FFE00
003FFE00
003FFE00
003FFE00
003FFE00
003FFE00
003FFE00
003FFE00
003FFE00
003FFE00
003FFE00
003FFE00
003FFE00
003FFE00
003FFE00
003FFE00
003FFE00
003FFE00
003FFE00
003FFE00
003FFE00
003FFE00
003FFE00
003FFE00
003FFE00
003FFE00
003FFE00
003FFE00
003FFE00
003FFE00
003FFE00
003FFE00
003FFE00
003FFE00
003FFE00
003FFE00
003FFE00
003FFE00
003FFE00
003FFE00
003FFE00
003FFE00
003FFE00
003FFE00
003FFE00
003FFE00
003FFE00
003FFE00
003FFE00
003FFE00
003FFE00
003FFE00
003FFE00
003FFE00
003FFE00
003FFE00
003FFE00
003FFE00
003FFE00
003FFE00
ENDCHAR
STARTCHAR Eth
ENCODING 208
SWIDTH 493 0
DWIDTH 37 0
BBX 35 65 0 0
BITMAP
1FFFFF8000
1FFFFFF000
1FFFFFF800
1FFFFFFE00
1FFFFFFE00
1FFFFFFF00
1FFFFFFF80
1FFFFFFF80
1FFFFFFFC0
1FFFFFFFC0
1FFFFFFFC0
1FFF0FFFC0
1FFF07FFC0
1FFF07FFC0
1FFF03FFC0
1FFF03FFE0
1FFF03FFE0
1FFF03FFE0
1FFF03FFE0
1FFF03FFE0
1FFF03FFE0
1FFF03FFE0
1FFF03FFE0
1FFF03FFE0
1FFF03FFE0
1FFF03FFE0
1FFF03FFE0
FFFFE3FFE0
FFFFE3FFE0
FFFFE3FFE0
FFFFE3FFE0
FFFFE3FFE0
FFFFE3FFE0
FFFFE3FFE0
FFFFE3FFE0
FFFFE3FFE0
1FFF03FFE0
1FFF03FFE0
1FFF03FFE0
1FFF03FFE0
1FFF03FFE0
1FFF03FFE0
1FFF03FFE0
1FFF03FFE0
1FFF03FFE0
1FFF03FFE0
1FFF03FFE0
1FFF03FFE0
1FFF03FFE0
1FFF03FFE0
1FFF07FFC0
1FFF07FFC0
1FFF0FFFC0
1FFFFFFFC0
1FFFFFFFC0
1FFFFFFFC0
1FFFFFFF80
1FFFFFFF80
1FFFFFFF00
1FFFFFFF00
1FFFFFFE00
1FFFFFFC00
1FFFFFF800
1FFFFFF000
1FFFFF8000
ENDCHAR
STARTCHAR Ntilde
ENCODING 209
SWIDTH 498 0
DWIDTH 37 0
BBX 32 82 3 0
BITMAP
01FC0040
07FF8078
0FFFF0FF
0FFFFFFE
1FFFFFFE
1FFFFFFC
3FFFFFFC
3FFFFFF8
7FFFFFF8
1F07FFF0
0601FFE0
00003F80
00000000
00000000
00000000
00000000
00000000
FFF81FFF
FFF81FFF
FFFC1FFF
FFFC1FFF
FFFC1FFF
FFFC1FFF
FFFC1FFF
FFFE1FFF
FFFE1FFF
FFFE1FFF
FFFE1FFF
FFFE1FFF
FFFF1FFF
FFFF1FFF
FFFF1FFF
FFFF1FFF
FFFF1FFF
FFFF1FFF
FFFF9FFF
FFFF9FFF
FFFF9FFF
FFFF9FFF
FFFF9FFF
FFFFDFFF
FFFFDFFF
FFFFDFFF
FFFFDFFF
FFFFDFFF
FFFFFFFF
FFFFFFFF
FFFFFFFF
FFFFFFFF
FFFFFFFF
FFF7FFFF
FFF7FFFF
FFF7FFFF
FFF7FFFF
FFF7FFFF
FFF3FFFF
FFF3FFFF
FFF3FFFF
FFF3FFFF
FFF3FFFF
FFF1FFFF
FFF1FFFF
FFF1FFFF
FFF1FFFF
FFF1FFFF
FFF0FFFF
FFF0FFFF
FFF0FFFF
FFF0FFFF
FFF0FFFF
FFF07FFF
FFF07FFF
FFF07FFF
FFF07FFF
FFF07FFF
FFF03FFF
FFF03FFF
FFF03FFF
FFF03FFF
FFF03FFF
FFF01FFF
FFF01FFF
ENDCHAR
STARTCHAR Ograve
ENCODING 210
SWIDTH 486 0
DWIDTH 36 0
BBX 32 84 2 0
BITMAP
01000000
01C00000
01F00000
01FC0000
01FF0000
01FFC000
01FFF800
01FFFE00
01FFFF80
01FFFF80
01FFFF80
01FFFF80
01FFFF80
007FFF80
0003FF80
00001F80
00000080
00000000
00008000
003FFE00
01FFFF80
03FFFFE0
07FFFFF0
0FFFFFF8
1FFFFFF8
3FFFFFFC
3FFFFFFC
3FFFFFFE
7FFFFFFE
7FFFFFFE
7FFFFFFF
7FFC3FFF
FFFC1FFF
FFF81FFF
FFF81FFF
FFF81FFF
FFF81FFF
FFF81FFF
FFF81FFF
FFF81FFF
FFF81FFF
FFF81FFF
FFF81FFF
FFF81FFF
FFF81FFF
FFF81FFF
FFF81FFF
FFF81FFF
FFF81FFF
FFF81FFF
FFF81FFF
FFF81FFF
FFF81FFF
FFF81FFF
FFF81FFF
FFF81FFF
FFF81FFF
FFF81FFF
FFF81FFF
FFF81FFF
FFF81FFF
FFF81FFF
FFF81FFF
FFF81FFF
FFF81FFF
FFF81FFF
FFF81FFF
FFF81FFF
FFF81FFF
FFF81FFF
7FFC1FFF
7FFC3FFF
7FFFFFFF
7FFFFFFE
7FFFFFFE
3FFFFFFE
3FFFFFFC
1FFFFFFC
1FFFFFF8
0FFFFFF0
07FFFFE0
03FFFFC0
00FFFF80
003FFE00
ENDCHAR
STARTCHAR Oacute
ENCODING 211
SWIDTH 486 0
DWIDTH 36 0
BBX 32 84 2 0
BITMAP
00000080
00000380
00000F80
00003F80
0000FF80
0003FF80
001FFF80
007FFF80
01FFFF80
01FFFF80
01FFFF80
01FFFF80
01FFFF80
01FFFE00
01FFC000
01F80000
01000000
00000000
00008000
003FFE00
01FFFF80
03FFFFE0
07FFFFF0
0FFFFFF8
1FFFFFF8
3FFFFFFC
3FFFFFFC
3FFFFFFE
7FFFFFFE
7FFFFFFE
7FFFFFFF
7FFC3FFF
FFFC1FFF
FFF81FFF
FFF81FFF
FFF81FFF
FFF81FFF
FFF81FFF
FFF81FFF
FFF81FFF
FFF81FFF
FFF81FFF
FFF81FFF
FFF81FFF
FFF81FFF
FFF81FFF
FFF81FFF
FFF81FFF
FFF81FFF
FFF81FFF
FFF81FFF
FFF81FFF
FFF81FFF
FFF81FFF
FFF81FFF
FFF81FFF
FFF81FFF
FFF81FFF
FFF81FFF
FFF81FFF
FFF81FFF
FFF81FFF
FFF81FFF
FFF81FFF
FFF81FFF
FFF81FFF
FFF81FFF
FFF81FFF
FFF81FFF
FFF81FFF
7FFC1FFF
7FFC3FFF
7FFFFFFF
7FFFFFFE
7FFFFFFE
3FFFFFFE
3FFFFFFC
1FFFFFFC
1FFFFFF8
0FFFFFF0
07FFFFE0
03FFFFC0
00FFFF80
003FFE00
ENDCHAR
STARTCHAR Ocircumflex
ENCODING 212
SWIDTH 486 0
DWIDTH 36 0
BBX 33 84 2 0
BITMAP
007FFF8000
00FFFF8000
00FFFFC000
01FFFFC000
01FFFFE000
03FF7FE000
07FF7FF000
07FF3FF800
0FFF3FF800
0FFE3FFC00
1FFE1FFC00
1FFE1FFE00
3FFC1FFF00
7FFC1FFF00
7FFC0FFF80
8000000000
0000000000
0000000000
0000800000
003FFE0000
01FFFF8000
03FFFFE000
07FFFFF000
0FFFFFF800
1FFFFFF800
3FFFFFFC00
3FFFFFFC00
3FFFFFFE00
7FFFFFFE00
7FFFFFFE00
7FFFFFFF00
7FFC3FFF00
FFFC1FFF00
FFF81FFF00
FFF81FFF00
FFF81FFF00
FFF81FFF00
FFF81FFF00
FFF81FFF00
FFF81FFF00
FFF81FFF00
FFF81FFF00
FFF81FFF00
FFF81FFF00
FFF81FFF00
FFF81FFF00
FFF81FFF00
FFF81FFF00
FFF81FFF00
FFF81FFF00
FFF81FFF00
FFF81FFF00
FFF81FFF00
FFF81FFF00
FFF81FFF00
FFF81FFF00
FFF81FFF00
FFF81FFF00
FFF81FFF00
FFF81FFF00
FFF81FFF00
FFF81FFF00
FFF81FFF00
FFF81FFF00
FFF81FFF00
FFF81FFF00
FFF81FFF00
FFF81FFF00
FFF81FFF00
FFF81FFF00
7FFC1FFF00
7FFC3FFF00
7FFFFFFF00
7FFFFFFE00
7FFFFFFE00
3FFFFFFE00
3FFFFFFC00
1FFFFFFC00
1FFFFFF800
0FFFFFF000
07FFFFE000
03FFFFC000
00FFFF8000
003FFE0000
ENDCHAR
STARTCHAR Otilde
ENCODING 213
SWIDTH 486 0
DWIDTH 36 0
BBX 32 82 2 0
BITMAP
01FC0040
07FF8078
0FFFF0FF
0FFFFFFE
1FFFFFFE
1FFFFFFC
3FFFFFFC
3FFFFFF8
7FFFFFF8
1F07FFF0
0601FFE0
00003F80
00000000
00000000
00000000
00000000
00008000
003FFE00
01FFFF80
03FFFFE0
07FFFFF0
0FFFFFF8
1FFFFFF8
3FFFFFFC
3FFFFFFC
3FFFFFFE
7FFFFFFE
7FFFFFFE
7FFFFFFF
7FFC3FFF
FFFC1FFF
FFF81FFF
FFF81FFF
FFF81FFF
FFF81FFF
FFF81FFF
FFF81FFF
FFF81FFF
FFF81FFF
FFF81FFF
FFF81FFF
FFF81FFF
FFF81FFF
FFF81FFF
FFF81FFF
FFF81FFF
FFF81FFF
FFF81FFF
FFF81FFF
FFF81FFF
FFF81FFF
FFF81FFF
FFF81FFF
FFF81FFF
FFF81FFF
FFF81FFF
FFF81FFF
FFF81FFF
FFF81FFF
FFF81FFF
FFF81FFF
FFF81FFF
FFF81FFF
FFF81FFF
FFF81FFF
FFF81FFF
FFF81FFF
FFF81FFF
7FFC1FFF
7FFC3FFF
7FFFFFFF
7FFFFFFE
7FFFFFFE
3FFFFFFE
3FFFFFFC
1FFFFFFC
1FFFFFF8
0FFFFFF0
07FFFFE0
03FFFFC0
00FFFF80
003FFE00
ENDCHAR
STARTCHAR Odieresis
ENCODING 214
SWIDTH 486 0
DWIDTH 36 0
BBX 32 80 2 0
BITMAP
FFFC3FFE
FFFC3FFE
FFFC3FFE
FFFC3FFE
FFFC3FFE
FFFC3FFE
FFFC3FFE
FFFC3FFE
FFFC3FFE
FFFC3FFE
FFFC3FFE
00000000
00000000
00000000
00008000
003FFE00
01FFFF80
03FFFFE0
07FFFFF0
0FFFFFF8
1FFFFFF8
3FFFFFFC
3FFFFFFC
3FFFFFFE
7FFFFFFE
7FFFFFFE
7FFFFFFF
7FFC3FFF
FFFC1FFF
FFF81FFF
FFF81FFF
FFF81FFF
FFF81FFF
FFF81FFF
FFF81FFF
FFF81FFF
FFF81FFF
FFF81FFF
FFF81FFF
FFF81FFF
FFF81FFF
FFF81FFF
FFF81FFF
FFF81FFF
FFF81FFF
FFF81FFF
FFF81FFF
FFF81FFF
FFF81FFF
FFF81FFF
FFF81FFF
FFF81FFF
FFF81FFF
FFF81FFF
FFF81FFF
FFF81FFF
FFF81FFF
FFF81FFF
FFF81FFF
FFF81FFF
FFF81FFF
FFF81FFF
FFF81FFF
FFF81FFF
FFF81FFF
FFF81FFF
7FFC1FFF
7FFC3FFF
7FFFFFFF
7FFFFFFE
7FFFFFFE
3FFFFFFE
3FFFFFFC
1FFFFFFC
1FFFFFF8
0FFFFFF0
07FFFFE0
03FFFFC0
00FFFF80
003FFE00
ENDCHAR
STARTCHAR multiply
ENCODING 215
SWIDTH 347 0
DWIDTH 26 0
BBX 22 23 2 12
BITMAP
040080
060180
0F03C0
1F87E0
3FCFF0
7FFFF8
FFFFFC
7FFFF8
3FFFF0
1FFFE0
0FFFC0
07FF80
0FFFC0
1FFFE0
3FFFF0
7FFFF8
FFFFFC
FFFFFC
7FDFF8
3FCFF0
1F87E0
0F03C0
060180
ENDCHAR
STARTCHAR Oslash
ENCODING 216
SWIDTH 482 0
DWIDTH 36 0
BBX 32 80 2 -6
BITMAP
00000040
000000F8
000000F8
000000F8
000000F0
000001F0
000001F0
000001E0
000083E0
007FFFE0
01FFFFE0
03FFFFC0
0FFFFFF0
0FFFFFF0
1FFFFFF8
3FFFFFFC
3FFFFFFC
7FFFFFFE
7FFFFFFE
7FFFFFFE
7FFFFFFF
FFFC3FFF
FFF81FFF
FFF81FFF
FFF81FFF
FFF81FFF
FFF81FFF
FFF81FFF
FFF81FFF
FFF81FFF
FFF81FFF
FFF81FFF
FFF81FFF
FFF81FFF
FFF81FFF
FFF81FFF
FFF81FFF
FFF81FFF
FFF81FFF
FFF81FFF
FFF81FFF
FFF81FFF
FFF81FFF
FFF81FFF
FFF81FFF
FFF81FFF
FFF81FFF
FFF81FFF
FFF81FFF
FFF81FFF
FFF81FFF
FFF81FFF
FFF81FFF
FFF81FFF
FFF81FFF
FFF81FFF
FFF81FFF
FFF81FFF
FFF81FFF
FFF81FFF
FFF81FFF
7FFC3FFF
7FFFFFFE
7FFFFFFE
7FFFFFFE
3FFFFFFC
3FFFFFFC
1FFFFFF8
1FFFFFF8
0FFFFFF0
07FFFFE0
07FFFFC0
0FFFFF80
0FBFFC00
0F008000
0F000000
1F000000
1F000000
1E000000
06000000
ENDCHAR
STARTCHAR Ugrave
ENCODING 217
SWIDTH 474 0
DWIDTH 36 0
BBX 31 84 2 0
BITMAP
01000000
01C00000
01F00000
01FC0000
01FF0000
01FFC000
01FFF800
01FFFE00
01FFFF80
01FFFF80
01FFFF80
01FFFF80
01FFFF80
007FFF80
0003FF80
00001F80
00000080
00000000
00000000
FFF81FFE
FFF81FFE
FFF81FFE
FFF81FFE
FFF81FFE
FFF81FFE
FFF81FFE
FFF81FFE
FFF81FFE
FFF81FFE
FFF81FFE
FFF81FFE
FFF81FFE
FFF81FFE
FFF81FFE
FFF81FFE
FFF81FFE
FFF81FFE
FFF81FFE
FFF81FFE
FFF81FFE
FFF81FFE
FFF81FFE
FFF81FFE
FFF81FFE
FFF81FFE
FFF81FFE
FFF81FFE
FFF81FFE
FFF81FFE
FFF81FFE
FFF81FFE
FFF81FFE
FFF81FFE
FFF81FFE
FFF81FFE
FFF81FFE
FFF81FFE
FFF81FFE
FFF81FFE
FFF81FFE
FFF81FFE
FFF81FFE
FFF81FFE
FFF81FFE
FFF81FFE
FFF81FFE
FFF81FFE
FFF81FFE
FFF81FFE
FFF81FFE
FFF83FFE
FFFC3FFE
7FFFFFFE
7FFFFFFE
7FFFFFFC
7FFFFFFC
3FFFFFFC
3FFFFFF8
1FFFFFF8
0FFFFFF0
0FFFFFE0
07FFFFC0
01FFFF80
007FFC00
ENDCHAR
STARTCHAR Uacute
ENCODING 218
SWIDTH 474 0
DWIDTH 36 0
BBX 31 84 2 0
BITMAP
00000080
00000380
00000F80
00003F80
0000FF80
0003FF80
001FFF80
007FFF80
01FFFF80
01FFFF80
01FFFF80
01FFFF80
01FFFF80
01FFFE00
01FFC000
01F80000
01000000
00000000
00000000
FFF81FFE
FFF81FFE
FFF81FFE
FFF81FFE
FFF81FFE
FFF81FFE
FFF81FFE
FFF81FFE
FFF81FFE
FFF81FFE
FFF81FFE
FFF81FFE
FFF81FFE
FFF81FFE
FFF81FFE
FFF81FFE
FFF81FFE
FFF81FFE
FFF81FFE
FFF81FFE
FFF81FFE
FFF81FFE
FFF81FFE
FFF81FFE
FFF81FFE
FFF81FFE
FFF81FFE
FFF81FFE
FFF81FFE
FFF81FFE
FFF81FFE
FFF81FFE
FFF81FFE
FFF81FFE
FFF81FFE
FFF81FFE
FFF81FFE
FFF81FFE
FFF81FFE
FFF81FFE
FFF81FFE
FFF81FFE
FFF81FFE
FFF81FFE
FFF81FFE
FFF81FFE
FFF81FFE
FFF81FFE
FFF81FFE
FFF81FFE
FFF81FFE
FFF83FFE
FFFC3FFE
7FFFFFFE
7FFFFFFE
7FFFFFFC
7FFFFFFC
3FFFFFFC
3FFFFFF8
1FFFFFF8
0FFFFFF0
0FFFFFE0
07FFFFC0
01FFFF80
007FFC00
ENDCHAR
STARTCHAR Ucircumflex
ENCODING 219
SWIDTH 474 0
DWIDTH 36 0
BBX 32 84 2 0
BITMAP
00FFFF00
01FFFF00
01FFFF80
03FFFF80
03FFFFC0
07FEFFC0
0FFEFFE0
0FFE7FF0
1FFE7FF0
1FFC7FF8
3FFC3FF8
3FFC3FFC
7FF83FFE
FFF83FFE
FFF81FFF
00000000
00000000
00000000
00000000
FFF81FFE
FFF81FFE
FFF81FFE
FFF81FFE
FFF81FFE
FFF81FFE
FFF81FFE
FFF81FFE
FFF81FFE
FFF81FFE
FFF81FFE
FFF81FFE
FFF81FFE
FFF81FFE
FFF81FFE
FFF81FFE
FFF81FFE
FFF81FFE
FFF81FFE
FFF81FFE
FFF81FFE
FFF81FFE
FFF81FFE
FFF81FFE
FFF81FFE
FFF81FFE
FFF81FFE
FFF81FFE
FFF81FFE
FFF81FFE
FFF81FFE
FFF81FFE
FFF81FFE
FFF81FFE
FFF81FFE
FFF81FFE
FFF81FFE
FFF81FFE
FFF81FFE
FFF81FFE
FFF81FFE
FFF81FFE
FFF81FFE
FFF81FFE
FFF81FFE
FFF81FFE
FFF81FFE
FFF81FFE
FFF81FFE
FFF81FFE
FFF81FFE
FFF83FFE
FFFC3FFE
7FFFFFFE
7FFFFFFE
7FFFFFFC
7FFFFFFC
3FFFFFFC
3FFFFFF8
1FFFFFF8
0FFFFFF0
0FFFFFE0
07FFFFC0
01FFFF80
007FFC00
ENDCHAR
STARTCHAR Udieresis
ENCODING 220
SWIDTH 474 0
DWIDTH 36 0
BBX 31 80 2 0
BITMAP
FFFC3FFE
FFFC3FFE
FFFC3FFE
FFFC3FFE
FFFC3FFE
FFFC3FFE
FFFC3FFE
FFFC3FFE
FFFC3FFE
FFFC3FFE
FFFC3FFE
00000000
00000000
00000000
00000000
FFF81FFE
FFF81FFE
FFF81FFE
FFF81FFE
FFF81FFE
FFF81FFE
FFF81FFE
FFF81FFE
FFF81FFE
FFF81FFE
FFF81FFE
FFF81FFE
FFF81FFE
FFF81FFE
FFF81FFE
FFF81FFE
FFF81FFE
FFF81FFE
FFF81FFE
FFF81FFE
FFF81FFE
FFF81FFE
FFF81FFE
FFF81FFE
FFF81FFE
FFF81FFE
FFF81FFE
FFF81FFE
FFF81FFE
FFF81FFE
FFF81FFE
FFF81FFE
FFF81FFE
FFF81FFE
FFF81FFE
FFF81FFE
FFF81FFE
FFF81FFE
FFF81FFE
FFF81FFE
FFF81FFE
FFF81FFE
FFF81FFE
FFF81FFE
FFF81FFE
FFF81FFE
FFF81FFE
FFF81FFE
FFF81FFE
FFF81FFE
FFF81FFE
FFF83FFE
FFFC3FFE
7FFFFFFE
7FFFFFFE
7FFFFFFC
7FFFFFFC
3FFFFFFC
3FFFFFF8
1FFFFFF8
0FFFFFF0
0FFFFFE0
07FFFFC0
01FFFF80
007FFC00
ENDCHAR
STARTCHAR Yacute
ENCODING 221
SWIDTH 446 0
DWIDTH 33 0
BBX 33 84 0 0
BITMAP
0000004000
000001C000
000007C000
00001FC000
00007FC000
0001FFC000
000FFFC000
003FFFC000
00FFFFC000
00FFFFC000
00FFFFC000
00FFFFC000
00FFFFC000
00FFFF0000
00FFE00000
00FC000000
0080000000
0000000000
0000000000
FFF80FFF80
7FF80FFF80
7FFC0FFF00
7FFC0FFF00
7FFC0FFF00
3FFC1FFF00
3FFC1FFF00
3FFC1FFE00
3FFE1FFE00
1FFE1FFE00
1FFE1FFE00
1FFE3FFC00
1FFE3FFC00
0FFE3FFC00
0FFE3FFC00
0FFF3FF800
0FFF3FF800
07FF7FF800
07FF7FF800
07FF7FF000
07FF7FF000
07FFFFF000
03FFFFF000
03FFFFF000
03FFFFE000
03FFFFE000
01FFFFE000
01FFFFE000
01FFFFC000
01FFFFC000
00FFFFC000
00FFFFC000
00FFFF8000
00FFFF8000
007FFF8000
007FFF8000
007FFF0000
007FFF0000
007FFF0000
003FFF0000
003FFF0000
003FFE0000
003FFE0000
001FFE0000
001FFE0000
001FFE0000
001FFE0000
001FFE0000
001FFE0000
001FFE0000
001FFE0000
001FFE0000
001FFE0000
001FFE0000
001FFE0000
001FFE0000
001FFE0000
001FFE0000
001FFE0000
001FFE0000
001FFE0000
001FFE0000
001FFE0000
001FFE0000
001FFE0000
ENDCHAR
STARTCHAR Thorn
ENCODING 222
SWIDTH 462 0
DWIDTH 35 0
BBX 32 65 2 0
BITMAP
FFF80000
FFF80000
FFF80000
FFF80000
FFF80000
FFF80000
FFF80000
FFF80000
FFF80000
FFFF8000
FFFFFE00
FFFFFF80
FFFFFFE0
FFFFFFF0
FFFFFFF0
FFFFFFF8
FFFFFFF8
FFFFFFFC
FFFFFFFC
FFFFFFFC
FFF87FFE
FFF83FFE
FFF83FFE
FFF83FFE
FFF81FFE
FFF81FFE
FFF81FFF
FFF81FFF
FFF81FFF
FFF81FFF
FFF81FFF
FFF81FFF
FFF81FFE
FFF81FFE
FFF81FFE
FFF83FFE
FFF83FFE
FFF87FFE
FFF8FFFE
FFFFFFFC
FFFFFFFC
FFFFFFFC
FFFFFFF8
FFFFFFF8
FFFFFFF0
FFFFFFF0
FFFFFFE0
FFFFFF80
FFFFFE00
FFF80000
FFF80000
FFF80000
FFF80000
FFF80000
FFF80000
FFF80000
FFF80000
FFF80000
FFF80000
FFF80000
FFF80000
FFF80000
FFF80000
FFF80000
FFF80000
ENDCHAR
STARTCHAR germandbls
ENCODING 223
SWIDTH 492 0
DWIDTH 37 0
BBX 33 66 2 0
BITMAP
0001000000
00FFFE0000
03FFFF8000
0FFFFFE000
1FFFFFF000
3FFFFFF800
3FFFFFFC00
7FFFFFFC00
7FFFFFFC00
7FFFFFFE00
FFF83FFE00
FFF83FFE00
FFF83FFE00
FFF83FFE00
FFF83FFE00
FFF83FFE00
FFF83FFE00
FFF83FFE00
FFF83FFE00
FFF83FFE00
FFF83FFE00
FFF83FFE00
FFF83FFE00
FFF87FFC00
FFF9FFFC00
FFF9FFF800
FFF9FFF000
FFF9FFE000
FFF9FFE000
FFF9FFF800
FFF9FFFC00
FFF9FFFE00
FFF9FFFF00
FFF83FFF00
FFF80FFF00
FFF80FFF80
FFF807FF80
FFF807FF80
FFF807FF80
FFF807FF80
FFF807FF80
FFF807FF80
FFF807FF80
FFF807FF80
FFF807FF80
FFF807FF80
FFF807FF80
FFF807FF80
FFF807FF80
FFF807FF80
FFF807FF80
FFF807FF80
FFF807FF80
FFF80FFF80
FFF80FFF00
FFF83FFF00
FFF9FFFF00
FFF9FFFF00
FFF9FFFE00
FFF9FFFE00
FFF9FFFC00
FFF9FFF800
FFF9FFF800
FFF9FFE000
FFF9FFC000
FFF9FE0000
ENDCHAR
STARTCHAR agrave
ENCODING 224
SWIDTH 483 0
DWIDTH 36 0
BBX 32 75 2 0
BITMAP
00800000
00E00000
00F80000
00FE0000
00FF8000
00FFE000
00FFFC00
00FFFF00
00FFFFC0
00FFFFC0
00FFFFC0
00FFFFC0
00FFFFC0
003FFFC0
0001FFC0
00000FC0
00000040
00000000
00000000
00008000
007FFE00
03FFFF80
07FFFFE0
0FFFFFF0
1FFFFFF8
3FFFFFFC
3FFFFFFC
7FFFFFFE
7FFFFFFE
7FFFFFFE
7FFC7FFF
FFF83FFF
FFF83FFF
FFF81FFF
FFF81FFF
FFF81FFF
FFF81FFF
00001FFF
00001FFF
00001FFF
00007FFF
0003FFFF
001FFFFF
00FFFFFF
03FFFFFF
07FFFFFF
1FFFDFFF
1FFF1FFF
3FFE1FFF
7FFC1FFF
7FF81FFF
FFF81FFF
FFF81FFF
FFF81FFF
FFF81FFF
FFF81FFF
FFF81FFF
FFF81FFF
FFF81FFF
FFF81FFF
FFF81FFF
FFF81FFF
FFF83FFF
FFF83FFF
FFFC3FFF
FFFFFFFF
FFFFFFFF
FFFFFFFF
7FFFFFFF
7FFFDFFF
7FFFDFFF
3FFF9FFF
1FFF9FFF
0FFF1FFF
07FC1FFF
ENDCHAR
STARTCHAR aacute
ENCODING 225
SWIDTH 483 0
DWIDTH 36 0
BBX 32 75 2 0
BITMAP
00000080
00000380
00000F80
00003F80
0000FF80
0003FF80
001FFF80
007FFF80
01FFFF80
01FFFF80
01FFFF80
01FFFF80
01FFFF80
01FFFE00
01FFC000
01F80000
01000000
00000000
00000000
00008000
007FFE00
03FFFF80
07FFFFE0
0FFFFFF0
1FFFFFF8
3FFFFFFC
3FFFFFFC
7FFFFFFE
7FFFFFFE
7FFFFFFE
7FFC7FFF
FFF83FFF
FFF83FFF
FFF81FFF
FFF81FFF
FFF81FFF
FFF81FFF
00001FFF
00001FFF
00001FFF
00007FFF
0003FFFF
001FFFFF
00FFFFFF
03FFFFFF
07FFFFFF
1FFFDFFF
1FFF1FFF
3FFE1FFF
7FFC1FFF
7FF81FFF
FFF81FFF
FFF81FFF
FFF81FFF
FFF81FFF
FFF81FFF
FFF81FFF
FFF81FFF
FFF81FFF
FFF81FFF
FFF81FFF
FFF81FFF
FFF83FFF
FFF83FFF
FFFC3FFF
FFFFFFFF
FFFFFFFF
FFFFFFFF
7FFFFFFF
7FFFDFFF
7FFFDFFF
3FFF9FFF
1FFF9FFF
0FFF1FFF
07FC1FFF
ENDCHAR
STARTCHAR acircumflex
ENCODING 226
SWIDTH 483 0
DWIDTH 36 0
BBX 33 75 2 0
BITMAP
007FFF8000
00FFFF8000
00FFFFC000
01FFFFC000
01FFFFE000
03FF7FE000
07FF7FF000
07FF3FF800
0FFF3FF800
0FFE3FFC00
1FFE1FFC00
1FFE1FFE00
3FFC1FFF00
7FFC1FFF00
7FFC0FFF80
8000000000
0000000000
0000000000
0000000000
0000800000
007FFE0000
03FFFF8000
07FFFFE000
0FFFFFF000
1FFFFFF800
3FFFFFFC00
3FFFFFFC00
7FFFFFFE00
7FFFFFFE00
7FFFFFFE00
7FFC7FFF00
FFF83FFF00
FFF83FFF00
FFF81FFF00
FFF81FFF00
FFF81FFF00
FFF81FFF00
00001FFF00
00001FFF00
00001FFF00
00007FFF00
0003FFFF00
001FFFFF00
00FFFFFF00
03FFFFFF00
07FFFFFF00
1FFFDFFF00
1FFF1FFF00
3FFE1FFF00
7FFC1FFF00
7FF81FFF00
FFF81FFF00
FFF81FFF00
FFF81FFF00
FFF81FFF00
FFF81FFF00
FFF81FFF00
FFF81FFF00
FFF81FFF00
FFF81FFF00
FFF81FFF00
FFF81FFF00
FFF83FFF00
FFF83FFF00
FFFC3FFF00
FFFFFFFF00
FFFFFFFF00
FFFFFFFF00
7FFFFFFF00
7FFFDFFF00
7FFFDFFF00
3FFF9FFF00
1FFF9FFF00
0FFF1FFF00
07FC1FFF00
ENDCHAR
STARTCHAR atilde
ENCODING 227
SWIDTH 483 0
DWIDTH 36 0
BBX 32 73 2 0
BITMAP
01FC0040
07FF8078
0FFFF0FF
0FFFFFFE
1FFFFFFE
1FFFFFFC
3FFFFFFC
3FFFFFF8
7FFFFFF8
1F07FFF0
0601FFE0
00003F80
00000000
00000000
00000000
00000000
00000000
00008000
007FFE00
03FFFF80
07FFFFE0
0FFFFFF0
1FFFFFF8
3FFFFFFC
3FFFFFFC
7FFFFFFE
7FFFFFFE
7FFFFFFE
7FFC7FFF
FFF83FFF
FFF83FFF
FFF81FFF
FFF81FFF
FFF81FFF
FFF81FFF
00001FFF
00001FFF
00001FFF
00007FFF
0003FFFF
001FFFFF
00FFFFFF
03FFFFFF
07FFFFFF
1FFFDFFF
1FFF1FFF
3FFE1FFF
7FFC1FFF
7FF81FFF
FFF81FFF
FFF81FFF
FFF81FFF
FFF81FFF
FFF81FFF
FFF81FFF
FFF81FFF
FFF81FFF
FFF81FFF
FFF81FFF
FFF81FFF
FFF83FFF
FFF83FFF
FFFC3FFF
FFFFFFFF
FFFFFFFF
FFFFFFFF
7FFFFFFF
7FFFDFFF
7FFFDFFF
3FFF9FFF
1FFF9FFF
0FFF1FFF
07FC1FFF
ENDCHAR
STARTCHAR adieresis
ENCODING 228
SWIDTH 483 0
DWIDTH 36 0
BBX 32 71 2 0
BITMAP
FFFC3FFE
FFFC3FFE
FFFC3FFE
FFFC3FFE
FFFC3FFE
FFFC3FFE
FFFC3FFE
FFFC3FFE
FFFC3FFE
FFFC3FFE
FFFC3FFE
00000000
00000000
00000000
00000000
00008000
007FFE00
03FFFF80
07FFFFE0
0FFFFFF0
1FFFFFF8
3FFFFFFC
3FFFFFFC
7FFFFFFE
7FFFFFFE
7FFFFFFE
7FFC7FFF
FFF83FFF
FFF83FFF
FFF81FFF
FFF81FFF
FFF81FFF
FFF81FFF
00001FFF
00001FFF
00001FFF
00007FFF
0003FFFF
001FFFFF
00FFFFFF
03FFFFFF
07FFFFFF
1FFFDFFF
1FFF1FFF
3FFE1FFF
7FFC1FFF
7FF81FFF
FFF81FFF
FFF81FFF
FFF81FFF
FFF81FFF
FFF81FFF
FFF81FFF
FFF81FFF
FFF81FFF
FFF81FFF
FFF81FFF
FFF81FFF
FFF83FFF
FFF83FFF
FFFC3FFF
FFFFFFFF
FFFFFFFF
FFFFFFFF
7FFFFFFF
7FFFDFFF
7FFFDFFF
3FFF9FFF
1FFF9FFF
0FFF1FFF
07FC1FFF
ENDCHAR
STARTCHAR aring
ENCODING 229
SWIDTH 483 0
DWIDTH 36 0
BBX 32 84 2 0
BITMAP
0007F800
003FFF00
00FFFF80
01FFFFE0
03FFFFE0
03FFFFF0
07FFFFF8
07FE1FF8
0FF807F8
0FF807FC
0FF003FC
0FF003FC
0FF003FC
0FF003FC
0FF003FC
0FF007FC
0FF807F8
07FE1FF8
07FFFFF8
03FFFFF0
03FFFFE0
01FFFFE0
00FFFF80
003FFF00
0007F800
00000000
00000000
00000000
00008000
007FFE00
03FFFF80
07FFFFE0
0FFFFFF0
1FFFFFF8
3FFFFFFC
3FFFFFFC
7FFFFFFE
7FFFFFFE
7FFFFFFE
7FFC7FFF
FFF83FFF
FFF83FFF
FFF81FFF
FFF81FFF
FFF81FFF
FFF81FFF
00001FFF
00001FFF
00001FFF
00007FFF
0003FFFF
001FFFFF
00FFFFFF
03FFFFFF
07FFFFFF
1FFFDFFF
1FFF1FFF
3FFE1FFF
7FFC1FFF
7FF81FFF
FFF81FFF
FFF81FFF
FFF81FFF
FFF81FFF
FFF81FFF
FFF81FFF
FFF81FFF
FFF81FFF
FFF81FFF
FFF81FFF
FFF81FFF
FFF83FFF
FFF83FFF
FFFC3FFF
FFFFFFFF
FFFFFFFF
FFFFFFFF
7FFFFFFF
7FFFDFFF
7FFFDFFF
3FFF9FFF
1FFF9FFF
0FFF1FFF
07FC1FFF
ENDCHAR
STARTCHAR ae
ENCODING 230
SWIDTH 731 0
DWIDTH 55 0
BBX 52 56 1 0
BITMAP
00004000080000
003FFC01FFE000
01FFFF07FFF800
03FFFF8FFFFE00
0FFFFFDFFFFF00
0FFFFFFFFFFF80
1FFFFFFFFFFFC0
1FFFFFFFFFFFC0
3FFFFFFFFFFFE0
3FFFFFFFFFFFE0
3FFFFFFFFFFFE0
7FFE3FFFC3FFF0
7FFC1FFF83FFF0
7FFC1FFF81FFF0
7FFC1FFF81FFF0
7FFC1FFF81FFF0
7FFC0FFF81FFF0
00000FFF81FFF0
00001FFF81FFF0
00001FFF81FFF0
00001FFF81FFF0
0000FFFF81FFF0
0007FFFFFFFFF0
003FFFFFFFFFF0
00FFFFFFFFFFF0
03FFFFFFFFFFF0
07FFFFFFFFFFF0
0FFFFFFFFFFFF0
1FFFDFFFFFFFF0
1FFF1FFFFFFFF0
3FFE1FFF800000
3FFC1FFF800000
7FFC1FFF800000
7FFC1FFF800000
7FFC1FFF800000
7FFC1FFF81FFF0
7FFC1FFF81FFF0
FFFC1FFF81FFF0
FFFC1FFF81FFF0
FFFC1FFF81FFF0
FFFC1FFF81FFF0
FFFC1FFF81FFF0
FFFC1FFF81FFF0
7FFC1FFF81FFF0
7FFC1FFFC3FFE0
7FFE3FFFC3FFE0
7FFFFFFFFFFFE0
3FFFFFFFFFFFE0
3FFFFFFFFFFFC0
3FFFFFFFFFFFC0
1FFFFFFFFFFF80
0FFFFFDFFFFF80
07FFFF8FFFFF00
03FFFF0FFFFE00
01FFFE03FFFC00
007FF800FFF000
ENDCHAR
STARTCHAR ccedilla
ENCODING 231
SWIDTH 491 0
DWIDTH 37 0
BBX 33 80 2 -24
BITMAP
0000800000
003FFF0000
01FFFFC000
03FFFFE000
07FFFFF800
0FFFFFFC00
1FFFFFFE00
1FFFFFFE00
3FFFFFFF00
3FFFFFFF00
7FFFFFFF00
7FFC1FFF80
7FFC1FFF80
7FFC1FFF80
7FF81FFF80
FFF80FFF80
FFF80FFF80
FFF80FFF80
FFF80FFF80
FFF80FFF80
FFF80FFF80
FFF80FFF80
FFF80FFF80
FFF8000000
FFF8000000
FFF8000000
FFF8000000
FFF8000000
FFF8000000
FFF8000000
FFF8000000
FFF8000000
FFF8000000
FFF80FFF80
FFF80FFF80
FFF80FFF80
FFF80FFF80
FFF80FFF80
FFF80FFF80
FFF80FFF80
FFF80FFF80
FFF80FFF80
FFF80FFF80
FFF80FFF80
7FFC1FFF80
7FFC1FFF80
7FFE3FFF00
7FFFFFFF00
3FFFFFFF00
3FFFFFFE00
1FFFFFFE00
1FFFFFFC00
0FFFFFF800
07FFFFF000
03FFFFE000
00FFFF8000
001FFC0000
0003F00000
0001F80000
0001FC0000
0000FE0000
0000FF0000
0000FF0000
00007F8000
00007F8000
00007FC000
00007FC000
00007FC000
00007FE000
0000FFE000
0041FFE000
007FFFE000
007FFFE000
007FFFC000
007FFFC000
007FFFC000
007FFF8000
007FFF0000
007FFE0000
000FF00000
ENDCHAR
STARTCHAR egrave
ENCODING 232
SWIDTH 488 0
DWIDTH 37 0
BBX 33 75 2 0
BITMAP
0080000000
00E0000000
00F8000000
00FE000000
00FF800000
00FFE00000
00FFFC0000
00FFFF0000
00FFFFC000
00FFFFC000
00FFFFC000
00FFFFC000
00FFFFC000
003FFFC000
0001FFC000
00000FC000
0000004000
0000000000
0000000000
0000800000
003FFF0000
01FFFFC000
03FFFFE000
0FFFFFF800
1FFFFFF800
1FFFFFFC00
3FFFFFFE00
3FFFFFFE00
7FFFFFFF00
7FFFFFFF00
7FFE3FFF00
FFFC1FFF00
FFFC1FFF00
FFF81FFF00
FFF81FFF00
FFF81FFF80
FFF81FFF80
FFF81FFF80
FFF81FFF80
FFF81FFF80
FFF81FFF00
FFF81FFF00
FFFFFFFF00
FFFFFFFF00
FFFFFFFF00
FFFFFFFF00
FFFFFFFF00
FFFFFFFF00
FFFFFFFF00
FFF8000000
FFF8000000
FFF8000000
FFF8000000
FFF8000000
FFF81FFF80
FFF81FFF80
FFF81FFF80
FFF81FFF00
FFF81FFF00
FFF81FFF00
FFF81FFF00
FFF81FFF00
7FFC1FFF00
7FFC1FFF00
7FFC3FFF00
7FFFFFFF00
7FFFFFFE00
3FFFFFFE00
3FFFFFFC00
1FFFFFFC00
0FFFFFF800
0FFFFFF000
07FFFFE000
01FFFFC000
007FFE0000
ENDCHAR
STARTCHAR eacute
ENCODING 233
SWIDTH 488 0
DWIDTH 37 0
BBX 33 75 2 0
BITMAP
0000004000
000001C000
000007C000
00001FC000
00007FC000
0001FFC000
000FFFC000
003FFFC000
00FFFFC000
00FFFFC000
00FFFFC000
00FFFFC000
00FFFFC000
00FFFF0000
00FFE00000
00FC000000
0080000000
0000000000
0000000000
0000800000
003FFF0000
01FFFFC000
03FFFFE000
0FFFFFF800
1FFFFFF800
1FFFFFFC00
3FFFFFFE00
3FFFFFFE00
7FFFFFFF00
7FFFFFFF00
7FFE3FFF00
FFFC1FFF00
FFFC1FFF00
FFF81FFF00
FFF81FFF00
FFF81FFF80
FFF81FFF80
FFF81FFF80
FFF81FFF80
FFF81FFF80
FFF81FFF00
FFF81FFF00
FFFFFFFF00
FFFFFFFF00
FFFFFFFF00
FFFFFFFF00
FFFFFFFF00
FFFFFFFF00
FFFFFFFF00
FFF8000000
FFF8000000
FFF8000000
FFF8000000
FFF8000000
FFF81FFF80
FFF81FFF80
FFF81FFF80
FFF81FFF00
FFF81FFF00
FFF81FFF00
FFF81FFF00
FFF81FFF00
7FFC1FFF00
7FFC1FFF00
7FFC3FFF00
7FFFFFFF00
7FFFFFFE00
3FFFFFFE00
3FFFFFFC00
1FFFFFFC00
0FFFFFF800
0FFFFFF000
07FFFFE000
01FFFFC000
007FFE0000
ENDCHAR
STARTCHAR ecircumflex
ENCODING 234
SWIDTH 488 0
DWIDTH 37 0
BBX 33 75 2 0
BITMAP
007FFF8000
00FFFF8000
00FFFFC000
01FFFFC000
01FFFFE000
03FF7FE000
07FF7FF000
07FF3FF800
0FFF3FF800
0FFE3FFC00
1FFE1FFC00
1FFE1FFE00
3FFC1FFF00
7FFC1FFF00
7FFC0FFF80
8000000000
0000000000
0000000000
0000000000
0000800000
003FFF0000
01FFFFC000
03FFFFE000
0FFFFFF800
1FFFFFF800
1FFFFFFC00
3FFFFFFE00
3FFFFFFE00
7FFFFFFF00
7FFFFFFF00
7FFE3FFF00
FFFC1FFF00
FFFC1FFF00
FFF81FFF00
FFF81FFF00
FFF81FFF80
FFF81FFF80
FFF81FFF80
FFF81FFF80
FFF81FFF80
FFF81FFF00
FFF81FFF00
FFFFFFFF00
FFFFFFFF00
FFFFFFFF00
FFFFFFFF00
FFFFFFFF00
FFFFFFFF00
FFFFFFFF00
FFF8000000
FFF8000000
FFF8000000
FFF8000000
FFF8000000
FFF81FFF80
FFF81FFF80
FFF81FFF80
FFF81FFF00
FFF81FFF00
FFF81FFF00
FFF81FFF00
FFF81FFF00
7FFC1FFF00
7FFC1FFF00
7FFC3FFF00
7FFFFFFF00
7FFFFFFE00
3FFFFFFE00
3FFFFFFC00
1FFFFFFC00
0FFFFFF800
0FFFFFF000
07FFFFE000
01FFFFC000
007FFE0000
ENDCHAR
STARTCHAR edieresis
ENCODING 235
SWIDTH 488 0
DWIDTH 37 0
BBX 33 71 2 0
BITMAP
7FFE1FFF00
7FFE1FFF00
7FFE1FFF00
7FFE1FFF00
7FFE1FFF00
7FFE1FFF00
7FFE1FFF00
7FFE1FFF00
7FFE1FFF00
7FFE1FFF00
7FFE1FFF00
0000000000
0000000000
0000000000
0000000000
0000800000
003FFF0000
01FFFFC000
03FFFFE000
0FFFFFF800
1FFFFFF800
1FFFFFFC00
3FFFFFFE00
3FFFFFFE00
7FFFFFFF00
7FFFFFFF00
7FFE3FFF00
FFFC1FFF00
FFFC1FFF00
FFF81FFF00
FFF81FFF00
FFF81FFF80
FFF81FFF80
FFF81FFF80
FFF81FFF80
FFF81FFF80
FFF81FFF00
FFF81FFF00
FFFFFFFF00
FFFFFFFF00
FFFFFFFF00
FFFFFFFF00
FFFFFFFF00
FFFFFFFF00
FFFFFFFF00
FFF8000000
FFF8000000
FFF8000000
FFF8000000
FFF8000000
FFF81FFF80
FFF81FFF80
FFF81FFF80
FFF81FFF00
FFF81FFF00
FFF81FFF00
FFF81FFF00
FFF81FFF00
7FFC1FFF00
7FFC1FFF00
7FFC3FFF00
7FFFFFFF00
7FFFFFFE00
3FFFFFFE00
3FFFFFFC00
1FFFFFFC00
0FFFFFF800
0FFFFFF000
07FFFFE000
01FFFFC000
007FFE0000
ENDCHAR
STARTCHAR igrave
ENCODING 236
SWIDTH 235 0
DWIDTH 18 0
BBX 18 74 0 0
BITMAP
800000
E00000
F80000
FE0000
FF8000
FFE000
FFF800
FFFF00
FFFFC0
FFFFC0
FFFFC0
FFFFC0
FFFFC0
3FFFC0
01FFC0
000FC0
000040
000000
000000
3FFE00
3FFE00
3FFE00
3FFE00
3FFE00
3FFE00
3FFE00
3FFE00
3FFE00
3FFE00
3FFE00
3FFE00
3FFE00
3FFE00
3FFE00
3FFE00
3FFE00
3FFE00
3FFE00
3FFE00
3FFE00
3FFE00
3FFE00
3FFE00
3FFE00
3FFE00
3FFE00
3FFE00
3FFE00
3FFE00
3FFE00
3FFE00
3FFE00
3FFE00
3FFE00
3FFE00
3FFE00
3FFE00
3FFE00
3FFE00
3FFE00
3FFE00
3FFE00
3FFE00
3FFE00
3FFE00
3FFE00
3FFE00
3FFE00
3FFE00
3FFE00
3FFE00
3FFE00
3FFE00
3FFE00
ENDCHAR
STARTCHAR iacute
ENCODING 237
SWIDTH 235 0
DWIDTH 18 0
BBX 17 74 0 0
BITMAP
000080
000180
000780
001F80
00FF80
03FF80
0FFF80
3FFF80
FFFF80
FFFF80
FFFF80
FFFF80
FFFF80
FFFF00
FFE000
FC0000
800000
000000
000000
3FFE00
3FFE00
3FFE00
3FFE00
3FFE00
3FFE00
3FFE00
3FFE00
3FFE00
3FFE00
3FFE00
3FFE00
3FFE00
3FFE00
3FFE00
3FFE00
3FFE00
3FFE00
3FFE00
3FFE00
3FFE00
3FFE00
3FFE00
3FFE00
3FFE00
3FFE00
3FFE00
3FFE00
3FFE00
3FFE00
3FFE00
3FFE00
3FFE00
3FFE00
3FFE00
3FFE00
3FFE00
3FFE00
3FFE00
3FFE00
3FFE00
3FFE00
3FFE00
3FFE00
3FFE00
3FFE00
3FFE00
3FFE00
3FFE00
3FFE00
3FFE00
3FFE00
3FFE00
3FFE00
3FFE00
ENDCHAR
STARTCHAR icircumflex
ENCODING 238
SWIDTH 235 0
DWIDTH 18 0
BBX 32 74 -7 0
BITMAP
00FFFF00
01FFFF00
01FFFF80
03FFFF80
03FFFFC0
07FFFFE0
07FEFFE0
0FFE7FF0
1FFE7FF0
1FFC7FF8
3FFC3FF8
3FFC3FFC
7FF83FFE
FFF81FFE
FFF81FFF
00000000
00000000
00000000
00000000
007FFC00
007FFC00
007FFC00
007FFC00
007FFC00
007FFC00
007FFC00
007FFC00
007FFC00
007FFC00
007FFC00
007FFC00
007FFC00
007FFC00
007FFC00
007FFC00
007FFC00
007FFC00
007FFC00
007FFC00
007FFC00
007FFC00
007FFC00
007FFC00
007FFC00
007FFC00
007FFC00
007FFC00
007FFC00
007FFC00
007FFC00
007FFC00
007FFC00
007FFC00
007FFC00
007FFC00
007FFC00
007FFC00
007FFC00
007FFC00
007FFC00
007FFC00
007FFC00
007FFC00
007FFC00
007FFC00
007FFC00
007FFC00
007FFC00
007FFC00
007FFC00
007FFC00
007FFC00
007FFC00
007FFC00
ENDCHAR
STARTCHAR idieresis
ENCODING 239
SWIDTH 235 0
DWIDTH 18 0
BBX 31 70 -7 0
BITMAP
FFF83FFE
FFF83FFE
FFF83FFE
FFF83FFE
FFF83FFE
FFF83FFE
FFF83FFE
FFF83FFE
FFF83FFE
FFF83FFE
FFF83FFE
00000000
00000000
00000000
00000000
007FFC00
007FFC00
007FFC00
007FFC00
007FFC00
007FFC00
007FFC00
007FFC00
007FFC00
007FFC00
007FFC00
007FFC00
007FFC00
007FFC00
007FFC00
007FFC00
007FFC00
007FFC00
007FFC00
007FFC00
007FFC00
007FFC00
007FFC00
007FFC00
007FFC00
007FFC00
007FFC00
007FFC00
007FFC00
007FFC00
007FFC00
007FFC00
007FFC00
007FFC00
007FFC00
007FFC00
007FFC00
007FFC00
007FFC00
007FFC00
007FFC00
007FFC00
007FFC00
007FFC00
007FFC00
007FFC00
007FFC00
007FFC00
007FFC00
007FFC00
007FFC00
007FFC00
007FFC00
007FFC00
007FFC00
ENDCHAR
STARTCHAR eth
ENCODING 240
SWIDTH 503 0
DWIDTH 38 0
BBX 35 66 2 0
BITMAP
0E00000000
0FE0000000
0FF8000000
1FFE000100
1FFF800700
3FFFC00F80
3FFFF03FC0
7FFFF87FC0
7FFFFDFFE0
0FFFFFFFE0
03FFFFFF80
00FFFFFF00
007FFFFC00
001FFFF800
000FFFE000
0007FFF000
001FFFF800
007FFFF800
00FFFFFC00
01FFFFFC00
01FFFFFE00
00FF3FFE00
007E1FFF00
00781FFF00
00300FFF00
00000FFF80
00000FFF80
000007FF80
000007FF80
003FE7FFC0
01FFFFFFC0
03FFFFFFC0
0FFFFFFFC0
1FFFFFFFC0
1FFFFFFFC0
3FFFFFFFC0
3FFFFFFFC0
7FFFFFFFC0
7FFFFFFFC0
7FFF1FFFC0
FFFE0FFFC0
FFFC0FFFC0
FFFC07FFC0
FFFC07FFC0
FFFC07FFC0
FFFC07FFC0
FFFC07FFC0
FFFC07FFC0
FFFC07FFC0
FFFC07FFC0
FFFC07FFC0
FFFC07FFC0
FFFC07FFC0
FFFC0FFFC0
FFFE0FFF80
7FFFFFFF80
7FFFFFFF80
7FFFFFFF80
3FFFFFFF00
3FFFFFFF00
1FFFFFFE00
1FFFFFFC00
0FFFFFF800
07FFFFF000
01FFFFE000
007FFF0000
ENDCHAR
STARTCHAR ntilde
ENCODING 241
SWIDTH 499 0
DWIDTH 37 0
BBX 32 72 3 0
BITMAP
01F80040
07FF00F0
0FFFE1FE
1FFFFFFC
1FFFFFFC
3FFFFFFC
7FFFFFF8
7FFFFFF8
7FFFFFF0
3F0FFFE0
0E01FFC0
00003F80
00000000
00000000
00000000
00000000
00000800
FFF87FC0
FFF8FFF0
FFF9FFF8
FFFBFFFC
FFFBFFFC
FFFFFFFE
FFFFFFFE
FFFFFFFE
FFFFFFFF
FFFFFFFF
FFFC3FFF
FFF81FFF
FFF81FFF
FFF81FFF
FFF81FFF
FFF81FFF
FFF81FFF
FFF81FFF
FFF81FFF
FFF81FFF
FFF81FFF
FFF81FFF
FFF81FFF
FFF81FFF
FFF81FFF
FFF81FFF
FFF81FFF
FFF81FFF
FFF81FFF
FFF81FFF
FFF81FFF
FFF81FFF
FFF81FFF
FFF81FFF
FFF81FFF
FFF81FFF
FFF81FFF
FFF81FFF
FFF81FFF
FFF81FFF
FFF81FFF
FFF81FFF
FFF81FFF
FFF81FFF
FFF81FFF
FFF81FFF
FFF81FFF
FFF81FFF
FFF81FFF
FFF81FFF
FFF81FFF
FFF81FFF
FFF81FFF
FFF81FFF
FFF81FFF
ENDCHAR
STARTCHAR ograve
ENCODING 242
SWIDTH 497 0
DWIDTH 37 0
BBX 33 75 2 0
BITMAP
0080000000
00E0000000
00F8000000
00FE000000
00FF800000
00FFE00000
00FFFC0000
00FFFF0000
00FFFFC000
00FFFFC000
00FFFFC000
00FFFFC000
00FFFFC000
003FFFC000
0001FFC000
00000FC000
0000004000
0000000000
0000000000
0000800000
003FFE0000
00FFFF8000
03FFFFE000
07FFFFF000
0FFFFFF800
1FFFFFFC00
1FFFFFFC00
3FFFFFFE00
3FFFFFFE00
7FFFFFFF00
7FFE1FFF00
7FFC1FFF00
FFFC1FFF80
FFFC0FFF80
FFFC0FFF80
FFFC0FFF80
FFFC0FFF80
FFFC0FFF80
FFFC0FFF80
FFFC0FFF80
FFFC0FFF80
FFFC0FFF80
FFFC0FFF80
FFFC0FFF80
FFFC0FFF80
FFFC0FFF80
FFFC0FFF80
FFFC0FFF80
FFFC0FFF80
FFFC0FFF80
FFFC0FFF80
FFFC0FFF80
FFFC0FFF80
FFFC0FFF80
FFFC0FFF80
FFFC0FFF80
FFFC0FFF80
FFFC0FFF80
FFFC0FFF80
FFFC0FFF80
FFFC0FFF80
FFFC0FFF80
FFFC0FFF80
7FFC1FFF80
7FFE1FFF00
7FFFFFFF00
7FFFFFFF00
3FFFFFFE00
3FFFFFFE00
1FFFFFFC00
0FFFFFFC00
07FFFFF800
03FFFFE000
01FFFFC000
003FFF0000
ENDCHAR
STARTCHAR oacute
ENCODING 243
SWIDTH 497 0
DWIDTH 37 0
BBX 33 75 2 0
BITMAP
0000004000
000001C000
000007C000
00001FC000
00007FC000
0001FFC000
000FFFC000
003FFFC000
00FFFFC000
00FFFFC000
00FFFFC000
00FFFFC000
00FFFFC000
00FFFF0000
00FFE00000
00FC000000
0080000000
0000000000
0000000000
0000800000
003FFE0000
00FFFF8000
03FFFFE000
07FFFFF000
0FFFFFF800
1FFFFFFC00
1FFFFFFC00
3FFFFFFE00
3FFFFFFE00
7FFFFFFF00
7FFE1FFF00
7FFC1FFF00
FFFC1FFF80
FFFC0FFF80
FFFC0FFF80
FFFC0FFF80
FFFC0FFF80
FFFC0FFF80
FFFC0FFF80
FFFC0FFF80
FFFC0FFF80
FFFC0FFF80
FFFC0FFF80
FFFC0FFF80
FFFC0FFF80
FFFC0FFF80
FFFC0FFF80
FFFC0FFF80
FFFC0FFF80
FFFC0FFF80
FFFC0FFF80
FFFC0FFF80
FFFC0FFF80
FFFC0FFF80
FFFC0FFF80
FFFC0FFF80
FFFC0FFF80
FFFC0FFF80
FFFC0FFF80
FFFC0FFF80
FFFC0FFF80
FFFC0FFF80
FFFC0FFF80
7FFC1FFF80
7FFE1FFF00
7FFFFFFF00
7FFFFFFF00
3FFFFFFE00
3FFFFFFE00
1FFFFFFC00
0FFFFFFC00
07FFFFF800
03FFFFE000
01FFFFC000
003FFF0000
ENDCHAR
STARTCHAR ocircumflex
ENCODING 244
SWIDTH 497 0
DWIDTH 37 0
BBX 33 75 2 0
BITMAP
007FFF8000
00FFFF8000
00FFFFC000
01FFFFC000
01FFFFE000
03FF7FE000
07FF7FF000
07FF3FF800
0FFF3FF800
0FFE3FFC00
1FFE1FFC00
1FFE1FFE00
3FFC1FFF00
7FFC1FFF00
7FFC0FFF80
8000000000
0000000000
0000000000
0000000000
0000800000
003FFE0000
00FFFF8000
03FFFFE000
07FFFFF000
0FFFFFF800
1FFFFFFC00
1FFFFFFC00
3FFFFFFE00
3FFFFFFE00
7FFFFFFF00
7FFE1FFF00
7FFC1FFF00
FFFC1FFF80
FFFC0FFF80
FFFC0FFF80
FFFC0FFF80
FFFC0FFF80
FFFC0FFF80
FFFC0FFF80
FFFC0FFF80
FFFC0FFF80
FFFC0FFF80
FFFC0FFF80
FFFC0FFF80
FFFC0FFF80
FFFC0FFF80
FFFC0FFF80
FFFC0FFF80
FFFC0FFF80
FFFC0FFF80
FFFC0FFF80
FFFC0FFF80
FFFC0FFF80
FFFC0FFF80
FFFC0FFF80
FFFC0FFF80
FFFC0FFF80
FFFC0FFF80
FFFC0FFF80
FFFC0FFF80
FFFC0FFF80
FFFC0FFF80
FFFC0FFF80
7FFC1FFF80
7FFE1FFF00
7FFFFFFF00
7FFFFFFF00
3FFFFFFE00
3FFFFFFE00
1FFFFFFC00
0FFFFFFC00
07FFFFF800
03FFFFE000
01FFFFC000
003FFF0000
ENDCHAR
STARTCHAR otilde
ENCODING 245
SWIDTH 497 0
DWIDTH 37 0
BBX 33 73 2 0
BITMAP
01FC004000
07FF807800
0FFFF0FF00
0FFFFFFE00
1FFFFFFE00
1FFFFFFC00
3FFFFFFC00
3FFFFFF800
7FFFFFF800
1F07FFF000
0601FFE000
00003F8000
0000000000
0000000000
0000000000
0000000000
0000000000
0000800000
003FFE0000
00FFFF8000
03FFFFE000
07FFFFF000
0FFFFFF800
1FFFFFFC00
1FFFFFFC00
3FFFFFFE00
3FFFFFFE00
7FFFFFFF00
7FFE1FFF00
7FFC1FFF00
FFFC1FFF80
FFFC0FFF80
FFFC0FFF80
FFFC0FFF80
FFFC0FFF80
FFFC0FFF80
FFFC0FFF80
FFFC0FFF80
FFFC0FFF80
FFFC0FFF80
FFFC0FFF80
FFFC0FFF80
FFFC0FFF80
FFFC0FFF80
FFFC0FFF80
FFFC0FFF80
FFFC0FFF80
FFFC0FFF80
FFFC0FFF80
FFFC0FFF80
FFFC0FFF80
FFFC0FFF80
FFFC0FFF80
FFFC0FFF80
FFFC0FFF80
FFFC0FFF80
FFFC0FFF80
FFFC0FFF80
FFFC0FFF80
FFFC0FFF80
FFFC0FFF80
7FFC1FFF80
7FFE1FFF00
7FFFFFFF00
7FFFFFFF00
3FFFFFFE00
3FFFFFFE00
1FFFFFFC00
0FFFFFFC00
07FFFFF800
03FFFFE000
01FFFFC000
003FFF0000
ENDCHAR
STARTCHAR odieresis
ENCODING 246
SWIDTH 497 0
DWIDTH 37 0
BBX 33 71 2 0
BITMAP
7FFE1FFF00
7FFE1FFF00
7FFE1FFF00
7FFE1FFF00
7FFE1FFF00
7FFE1FFF00
7FFE1FFF00
7FFE1FFF00
7FFE1FFF00
7FFE1FFF00
7FFE1FFF00
0000000000
0000000000
0000000000
0000000000
0000800000
003FFE0000
00FFFF8000
03FFFFE000
07FFFFF000
0FFFFFF800
1FFFFFFC00
1FFFFFFC00
3FFFFFFE00
3FFFFFFE00
7FFFFFFF00
7FFE1FFF00
7FFC1FFF00
FFFC1FFF80
FFFC0FFF80
FFFC0FFF80
FFFC0FFF80
FFFC0FFF80
FFFC0FFF80
FFFC0FFF80
FFFC0FFF80
FFFC0FFF80
FFFC0FFF80
FFFC0FFF80
FFFC0FFF80
FFFC0FFF80
FFFC0FFF80
FFFC0FFF80
FFFC0FFF80
FFFC0FFF80
FFFC0FFF80
FFFC0FFF80
FFFC0FFF80
FFFC0FFF80
FFFC0FFF80
FFFC0FFF80
FFFC0FFF80
FFFC0FFF80
FFFC0FFF80
FFFC0FFF80
FFFC0FFF80
FFFC0FFF80
FFFC0FFF80
FFFC0FFF80
7FFC1FFF80
7FFE1FFF00
7FFFFFFF00
7FFFFFFF00
3FFFFFFE00
3FFFFFFE00
1FFFFFFC00
0FFFFFFC00
07FFFFF800
03FFFFE000
01FFFFC000
003FFF0000
ENDCHAR
STARTCHAR divide
ENCODING 247
SWIDTH 334 0
DWIDTH 25 0
BBX 23 38 1 9
BITMAP
03FF80
03FF80
03FF80
03FF80
03FF80
03FF80
03FF80
03FF80
03FF80
03FF80
03FF80
000000
000000
000000
FFFFFE
FFFFFE
FFFFFE
FFFFFE
FFFFFE
FFFFFE
FFFFFE
FFFFFE
FFFFFE
000000
000000
000000
000000
03FF80
03FF80
03FF80
03FF80
03FF80
03FF80
03FF80
03FF80
03FF80
03FF80
03FF80
ENDCHAR
STARTCHAR oslash
ENCODING 248
SWIDTH 483 0
DWIDTH 36 0
BBX 34 67 2 -6
BITMAP
0000000C00
0000000F00
0000001FC0
0000001F80
0000003F80
0000803F00
003FFE7E00
00FFFFFE00
03FFFFFC00
07FFFFFC00
0FFFFFF800
1FFFFFFC00
1FFFFFFC00
3FFFFFFE00
3FFFFFFF00
7FFFFFFF00
7FFE1FFF00
7FFC1FFF00
FFFC1FFF80
FFFC0FFF80
FFFC0FFF80
FFFC0FFF80
FFFC0FFF80
FFFC0FFF80
FFFC0FFF80
FFFC0FFF80
FFFC0FFF80
FFFC0FFF80
FFFC0FFF80
FFFC0FFF80
FFFC0FFF80
FFFC0FFF80
FFFC0FFF80
FFFC0FFF80
FFFC0FFF80
FFFC0FFF80
FFFC0FFF80
FFFC0FFF80
FFFC0FFF80
FFFC0FFF80
FFFC0FFF80
FFFC0FFF80
FFFC0FFF80
FFFC0FFF80
FFFC0FFF80
FFFC0FFF80
FFFC0FFF80
FFFC0FFF80
FFFC0FFF80
7FFC1FFF80
7FFE1FFF00
7FFFFFFF00
7FFFFFFF00
3FFFFFFE00
3FFFFFFE00
1FFFFFFC00
0FFFFFFC00
07FFFFF800
0FFFFFE000
0FFFFFC000
1FBFFF0000
1F80800000
3F00000000
3F00000000
3E00000000
7E00000000
0C00000000
ENDCHAR
STARTCHAR ugrave
ENCODING 249
SWIDTH 499 0
DWIDTH 37 0
BBX 33 74 2 0
BITMAP
0080000000
00E0000000
00F8000000
00FE000000
00FF800000
00FFE00000
00FFF80000
00FFFF0000
00FFFF8000
00FFFF8000
00FFFF8000
00FFFF8000
00FFFF8000
003FFF8000
0001FF8000
00000F8000
0000004000
0000000000
0000000000
FFFC0FFF80
FFFC0FFF80
FFFC0FFF80
FFFC0FFF80
FFFC0FFF80
FFFC0FFF80
FFFC0FFF80
FFFC0FFF80
FFFC0FFF80
FFFC0FFF80
FFFC0FFF80
FFFC0FFF80
FFFC0FFF80
FFFC0FFF80
FFFC0FFF80
FFFC0FFF80
FFFC0FFF80
FFFC0FFF80
FFFC0FFF80
FFFC0FFF80
FFFC0FFF80
FFFC0FFF80
FFFC0FFF80
FFFC0FFF80
FFFC0FFF80
FFFC0FFF80
FFFC0FFF80
FFFC0FFF80
FFFC0FFF80
FFFC0FFF80
FFFC0FFF80
FFFC0FFF80
FFFC0FFF80
FFFC0FFF80
FFFC0FFF80
FFFC0FFF80
FFFC0FFF80
FFFC0FFF80
FFFC0FFF80
FFFC0FFF80
FFFC0FFF80
FFFC0FFF80
FFFC1FFF80
7FFC1FFF80
7FFC1FFF80
7FFFFFFF80
7FFFFFFF80
7FFFFFFF80
7FFFFFFF80
3FFFFFFF80
3FFFEFFF80
1FFFEFFF80
1FFFCFFF80
0FFF8FFF80
03FF0FFF80
ENDCHAR
STARTCHAR uacute
ENCODING 250
SWIDTH 499 0
DWIDTH 37 0
BBX 33 74 2 0
BITMAP
0000004000
0000018000
0000078000
00003F8000
0000FF8000
0003FF8000
000FFF8000
003FFF8000
00FFFF8000
00FFFF8000
00FFFF8000
00FFFF8000
00FFFF8000
00FFFF0000
00FFE00000
00FC000000
0080000000
0000000000
0000000000
FFFC0FFF80
FFFC0FFF80
FFFC0FFF80
FFFC0FFF80
FFFC0FFF80
FFFC0FFF80
FFFC0FFF80
FFFC0FFF80
FFFC0FFF80
FFFC0FFF80
FFFC0FFF80
FFFC0FFF80
FFFC0FFF80
FFFC0FFF80
FFFC0FFF80
FFFC0FFF80
FFFC0FFF80
FFFC0FFF80
FFFC0FFF80
FFFC0FFF80
FFFC0FFF80
FFFC0FFF80
FFFC0FFF80
FFFC0FFF80
FFFC0FFF80
FFFC0FFF80
FFFC0FFF80
FFFC0FFF80
FFFC0FFF80
FFFC0FFF80
FFFC0FFF80
FFFC0FFF80
FFFC0FFF80
FFFC0FFF80
FFFC0FFF80
FFFC0FFF80
FFFC0FFF80
FFFC0FFF80
FFFC0FFF80
FFFC0FFF80
FFFC0FFF80
FFFC0FFF80
FFFC1FFF80
7FFC1FFF80
7FFC1FFF80
7FFFFFFF80
7FFFFFFF80
7FFFFFFF80
7FFFFFFF80
3FFFFFFF80
3FFFEFFF80
1FFFEFFF80
1FFFCFFF80
0FFF8FFF80
03FF0FFF80
ENDCHAR
STARTCHAR ucircumflex
ENCODING 251
SWIDTH 499 0
DWIDTH 37 0
BBX 33 74 2 0
BITMAP
007FFF0000
00FFFF8000
00FFFFC000
01FFFFC000
01FFFFE000
03FF7FE000
07FF7FF000
07FF3FF800
0FFF3FF800
0FFE3FFC00
1FFE1FFC00
1FFE1FFE00
3FFC1FFF00
7FFC1FFF00
FFFC0FFF80
0000000000
0000000000
0000000000
0000000000
FFFC0FFF80
FFFC0FFF80
FFFC0FFF80
FFFC0FFF80
FFFC0FFF80
FFFC0FFF80
FFFC0FFF80
FFFC0FFF80
FFFC0FFF80
FFFC0FFF80
FFFC0FFF80
FFFC0FFF80
FFFC0FFF80
FFFC0FFF80
FFFC0FFF80
FFFC0FFF80
FFFC0FFF80
FFFC0FFF80
FFFC0FFF80
FFFC0FFF80
FFFC0FFF80
FFFC0FFF80
FFFC0FFF80
FFFC0FFF80
FFFC0FFF80
FFFC0FFF80
FFFC0FFF80
FFFC0FFF80
FFFC0FFF80
FFFC0FFF80
FFFC0FFF80
FFFC0FFF80
FFFC0FFF80
FFFC0FFF80
FFFC0FFF80
FFFC0FFF80
FFFC0FFF80
FFFC0FFF80
FFFC0FFF80
FFFC0FFF80
FFFC0FFF80
FFFC0FFF80
FFFC1FFF80
7FFC1FFF80
7FFC1FFF80
7FFFFFFF80
7FFFFFFF80
7FFFFFFF80
7FFFFFFF80
3FFFFFFF80
3FFFEFFF80
1FFFEFFF80
1FFFCFFF80
0FFF8FFF80
03FF0FFF80
ENDCHAR
STARTCHAR udieresis
ENCODING 252
SWIDTH 499 0
DWIDTH 37 0
BBX 33 70 2 0
BITMAP
7FFC1FFF00
7FFC1FFF00
7FFC1FFF00
7FFC1FFF00
7FFC1FFF00
7FFC1FFF00
7FFC1FFF00
7FFC1FFF00
7FFC1FFF00
7FFC1FFF00
7FFC1FFF00
0000000000
0000000000
0000000000
0000000000
FFFC0FFF80
FFFC0FFF80
FFFC0FFF80
FFFC0FFF80
FFFC0FFF80
FFFC0FFF80
FFFC0FFF80
FFFC0FFF80
FFFC0FFF80
FFFC0FFF80
FFFC0FFF80
FFFC0FFF80
FFFC0FFF80
FFFC0FFF80
FFFC0FFF80
FFFC0FFF80
FFFC0FFF80
FFFC0FFF80
FFFC0FFF80
FFFC0FFF80
FFFC0FFF80
FFFC0FFF80
FFFC0FFF80
FFFC0FFF80
FFFC0FFF80
FFFC0FFF80
FFFC0FFF80
FFFC0FFF80
FFFC0FFF80
FFFC0FFF80
FFFC0FFF80
FFFC0FFF80
FFFC0FFF80
FFFC0FFF80
FFFC0FFF80
FFFC0FFF80
FFFC0FFF80
FFFC0FFF80
FFFC0FFF80
FFFC0FFF80
FFFC0FFF80
FFFC0FFF80
FFFC1FFF80
7FFC1FFF80
7FFC1FFF80
7FFFFFFF80
7FFFFFFF80
7FFFFFFF80
7FFFFFFF80
3FFFFFFF80
3FFFEFFF80
1FFFEFFF80
1FFFCFFF80
0FFF8FFF80
03FF0FFF80
ENDCHAR
STARTCHAR yacute
ENCODING 253
SWIDTH 461 0
DWIDTH 35 0
BBX 33 83 1 -9
BITMAP
0000008000
0000038000
00000F8000
00003F8000
0000FF8000
0003FF8000
000FFF8000
007FFF8000
01FFFF8000
01FFFF8000
01FFFF8000
01FFFF8000
01FFFF8000
01FFFE0000
01FFC00000
01F8000000
0100000000
0000000000
0000000000
FFF00FFF80
FFF00FFF00
FFF00FFF00
FFF00FFF00
FFF80FFF00
FFF80FFF00
7FF81FFF00
7FF81FFE00
7FF81FFE00
7FF81FFE00
7FF81FFE00
7FF81FFE00
3FF81FFE00
3FF81FFC00
3FF81FFC00
3FFC3FFC00
3FFC3FFC00
3FFC3FFC00
1FFC3FF800
1FFC3FF800
1FFC3FF800
1FFC3FF800
1FFC3FF800
1FFC3FF800
1FFC7FF000
0FFC7FF000
0FFE7FF000
0FFE7FF000
0FFE7FF000
0FFE7FF000
0FFE7FE000
07FE7FE000
07FE7FE000
07FE7FE000
07FEFFE000
07FEFFC000
07FEFFC000
03FFFFC000
03FFFFC000
03FFFFC000
03FFFFC000
03FFFF8000
03FFFF8000
03FFFF8000
01FFFF8000
01FFFF8000
01FFFF8000
01FFFF0000
01FFFF0000
01FFFF0000
00FFFF0000
00FFFF0000
00FFFE0000
00FFFE0000
00FFFE0000
00FFFE0000
7FFFFE0000
7FFFFE0000
7FFFFC0000
7FFFFC0000
7FFFFC0000
7FFFF80000
7FFFF00000
7FFFE00000
ENDCHAR
STARTCHAR thorn
ENCODING 254
SWIDTH 492 0
DWIDTH 37 0
BBX 33 72 2 -7
BITMAP
FFFC000000
FFFC000000
FFFC000000
FFFC000000
FFFC000000
FFFC000000
FFFC000000
FFFC000000
FFFC000000
FFFC040000
FFFC7FE000
FFFDFFF000
FFFFFFFC00
FFFFFFFC00
FFFFFFFE00
FFFFFFFE00
FFFFFFFF00
FFFFFFFF00
FFFFFFFF00
FFFFFFFF80
FFFE1FFF80
FFFC1FFF80
FFFC0FFF80
FFFC0FFF80
FFFC0FFF80
FFFC0FFF80
FFFC0FFF80
FFFC0FFF80
FFFC0FFF80
FFFC0FFF80
FFFC0FFF80
FFFC0FFF80
FFFC0FFF80
FFFC0FFF80
FFFC0FFF80
FFFC0FFF80
FFFC0FFF80
FFFC0FFF80
FFFC0FFF80
FFFC0FFF80
FFFC0FFF80
FFFC0FFF80
FFFC0FFF80
FFFC0FFF80
FFFC0FFF80
FFFC0FFF80
FFFC0FFF80
FFFC0FFF80
FFFC0FFF80
FFFC0FFF80
FFFC0FFF80
FFFC0FFF80
FFFC0FFF80
FFFC1FFF80
FFFE1FFF80
FFFFFFFF80
FFFFFFFF00
FFFFFFFF00
FFFFFFFF00
FFFFFFFE00
FFFFFFFE00
FFFDFFFC00
FFFCFFF800
FFFCFFF000
FFFC3FE000
FFFC040000
FFFC000000
FFFC000000
FFFC000000
FFFC000000
FFFC000000
FFFC000000
ENDCHAR
STARTCHAR ydieresis
ENCODING 255
SWIDTH 461 0
DWIDTH 35 0
BBX 33 79 1 -9
BITMAP
7FFC3FFE00
7FFC3FFE00
7FFC3FFE00
7FFC3FFE00
7FFC3FFE00
7FFC3FFE00
7FFC3FFE00
7FFC3FFE00
7FFC3FFE00
7FFC3FFE00
7FFC3FFE00
0000000000
0000000000
0000000000
0000000000
FFF00FFF80
FFF00FFF00
FFF00FFF00
FFF00FFF00
FFF80FFF00
FFF80FFF00
7FF81FFF00
7FF81FFE00
7FF81FFE00
7FF81FFE00
7FF81FFE00
7FF81FFE00
3FF81FFE00
3FF81FFC00
3FF81FFC00
3FFC3FFC00
3FFC3FFC00
3FFC3FFC00
1FFC3FF800
1FFC3FF800
1FFC3FF800
1FFC3FF800
1FFC3FF800
1FFC3FF800
1FFC7FF000
0FFC7FF000
0FFE7FF000
0FFE7FF000
0FFE7FF000
0FFE7FF000
0FFE7FE000
07FE7FE000
07FE7FE000
07FE7FE000
07FEFFE000
07FEFFC000
07FEFFC000
03FFFFC000
03FFFFC000
03FFFFC000
03FFFFC000
03FFFF8000
03FFFF8000
03FFFF8000
01FFFF8000
01FFFF8000
01FFFF8000
01FFFF0000
01FFFF0000
01FFFF0000
00FFFF0000
00FFFF0000
00FFFE0000
00FFFE0000
00FFFE0000
00FFFE0000
7FFFFE0000
7FFFFE0000
7FFFFC0000
7FFFFC0000
7FFFFC0000
7FFFF80000
7FFFF00000
7FFFE00000
ENDCHAR
STARTCHAR Amacron
ENCODING 256
SWIDTH 485 0
DWIDTH 36 0
BBX 34 76 1 0
BITMAP
07FFFFF800
07FFFFF800
07FFFFF800
07FFFFF800
07FFFFF800
07FFFFF800
0000000000
0000000000
0000000000
0000000000
0000000000
03FFFFF000
03FFFFF000
03FFFFF000
03FFFFF800
03FFFFF800
03FFFFF800
03FFFFF800
03FFFFF800
03FFFFF800
07FFFFF800
07FFFFF800
07FFFFF800
07FFFFF800
07FFBFF800
07FFBFFC00
07FFBFFC00
07FF3FFC00
07FF3FFC00
07FF3FFC00
0FFF3FFC00
0FFF3FFC00
0FFF3FFC00
0FFF3FFC00
0FFF3FFC00
0FFF1FFC00
0FFF1FFE00
0FFF1FFE00
0FFF1FFE00
0FFF1FFE00
0FFE1FFE00
1FFE1FFE00
1FFE1FFE00
1FFE1FFE00
1FFE1FFE00
1FFE1FFE00
1FFE1FFF00
1FFE0FFF00
1FFE0FFF00
1FFE0FFF00
1FFE0FFF00
3FFE0FFF00
3FFE0FFF00
3FFE0FFF00
3FFC0FFF00
3FFFFFFF00
3FFFFFFF00
3FFFFFFF80
3FFFFFFF80
3FFFFFFF80
3FFFFFFF80
7FFFFFFF80
7FFFFFFF80
7FFFFFFF80
7FFFFFFF80
7FF807FF80
7FF807FF80
7FF807FFC0
7FF807FFC0
7FF803FFC0
7FF803FFC0
7FF803FFC0
FFF803FFC0
FFF803FFC0
FFF803FFC0
FFF803FFC0
ENDCHAR
STARTCHAR amacron
ENCODING 257
SWIDTH 483 0
DWIDTH 36 0
BBX 32 67 2 0
BITMAP
0FFFFFF0
0FFFFFF0
0FFFFFF0
0FFFFFF0
0FFFFFF0
0FFFFFF0
00000000
00000000
00000000
00000000
00000000
00008000
007FFE00
03FFFF80
07FFFFE0
0FFFFFF0
1FFFFFF8
3FFFFFFC
3FFFFFFC
7FFFFFFE
7FFFFFFE
7FFFFFFE
7FFC7FFF
FFF83FFF
FFF83FFF
FFF81FFF
FFF81FFF
FFF81FFF
FFF81FFF
00001FFF
00001FFF
00001FFF
00007FFF
0003FFFF
001FFFFF
00FFFFFF
03FFFFFF
07FFFFFF
1FFFDFFF
1FFF1FFF
3FFE1FFF
7FFC1FFF
7FF81FFF
FFF81FFF
FFF81FFF
FFF81FFF
FFF81FFF
FFF81FFF
FFF81FFF
FFF81FFF
FFF81FFF
FFF81FFF
FFF81FFF
FFF81FFF
FFF83FFF
FFF83FFF
FFFC3FFF
FFFFFFFF
FFFFFFFF
FFFFFFFF
7FFFFFFF
7FFFDFFF
7FFFDFFF
3FFF9FFF
1FFF9FFF
0FFF1FFF
07FC1FFF
ENDCHAR
STARTCHAR Abreve
ENCODING 258
SWIDTH 485 0
DWIDTH 36 0
BBX 34 82 1 0
BITMAP
1FF803FF00
1FF803FF00
1FF803FF00
1FFC0FFF00
1FFFFFFF00
1FFFFFFE00
0FFFFFFE00
0FFFFFFC00
07FFFFFC00
03FFFFF800
01FFFFF000
007FFFC000
000FFE0000
0000000000
0000000000
0000000000
0000000000
03FFFFF000
03FFFFF000
03FFFFF000
03FFFFF800
03FFFFF800
03FFFFF800
03FFFFF800
03FFFFF800
03FFFFF800
07FFFFF800
07FFFFF800
07FFFFF800
07FFFFF800
07FFBFF800
07FFBFFC00
07FFBFFC00
07FF3FFC00
07FF3FFC00
07FF3FFC00
0FFF3FFC00
0FFF3FFC00
0FFF3FFC00
0FFF3FFC00
0FFF3FFC00
0FFF1FFC00
0FFF1FFE00
0FFF1FFE00
0FFF1FFE00
0FFF1FFE00
0FFE1FFE00
1FFE1FFE00
1FFE1FFE00
1FFE1FFE00
1FFE1FFE00
1FFE1FFE00
1FFE1FFF00
1FFE0FFF00
1FFE0FFF00
1FFE0FFF00
1FFE0FFF00
3FFE0FFF00
3FFE0FFF00
3FFE0FFF00
3FFC0FFF00
3FFFFFFF00
3FFFFFFF00
3FFFFFFF80
3FFFFFFF80
3FFFFFFF80
3FFFFFFF80
7FFFFFFF80
7FFFFFFF80
7FFFFFFF80
7FFFFFFF80
7FF807FF80
7FF807FF80
7FF807FFC0
7FF807FFC0
7FF803FFC0
7FF803FFC0
7FF803FFC0
FFF803FFC0
FFF803FFC0
FFF803FFC0
FFF803FFC0
ENDCHAR
STARTCHAR abreve
ENCODING 259
SWIDTH 483 0
DWIDTH 36 0
BBX 32 73 2 0
BITMAP
3FF007FE
3FF007FE
3FF007FE
3FF81FFE
3FFFFFFE
3FFFFFFC
1FFFFFFC
1FFFFFF8
0FFFFFF8
07FFFFF0
03FFFFE0
00FFFF80
001FFC00
00000000
00000000
00000000
00000000
00008000
007FFE00
03FFFF80
07FFFFE0
0FFFFFF0
1FFFFFF8
3FFFFFFC
3FFFFFFC
7FFFFFFE
7FFFFFFE
7FFFFFFE
7FFC7FFF
FFF83FFF
FFF83FFF
FFF81FFF
FFF81FFF
FFF81FFF
FFF81FFF
00001FFF
00001FFF
00001FFF
00007FFF
0003FFFF
001FFFFF
00FFFFFF
03FFFFFF
07FFFFFF
1FFFDFFF
1FFF1FFF
3FFE1FFF
7FFC1FFF
7FF81FFF
FFF81FFF
FFF81FFF
FFF81FFF
FFF81FFF
FFF81FFF
FFF81FFF
FFF81FFF
FFF81FFF
FFF81FFF
FFF81FFF
FFF81FFF
FFF83FFF
FFF83FFF
FFFC3FFF
FFFFFFFF
FFFFFFFF
FFFFFFFF
7FFFFFFF
7FFFDFFF
7FFFDFFF
3FFF9FFF
1FFF9FFF
0FFF1FFF
07FC1FFF
ENDCHAR
STARTCHAR Aogonek
ENCODING 260
SWIDTH 485 0
DWIDTH 36 0
BBX 35 88 1 -23
BITMAP
03FFFFF000
03FFFFF000
03FFFFF000
03FFFFF800
03FFFFF800
03FFFFF800
03FFFFF800
03FFFFF800
03FFFFF800
07FFFFF800
07FFFFF800
07FFFFF800
07FFFFF800
07FFBFF800
07FFBFFC00
07FFBFFC00
07FF3FFC00
07FF3FFC00
07FF3FFC00
0FFF3FFC00
0FFF3FFC00
0FFF3FFC00
0FFF3FFC00
0FFF3FFC00
0FFF1FFC00
0FFF1FFE00
0FFF1FFE00
0FFF1FFE00
0FFF1FFE00
0FFE1FFE00
1FFE1FFE00
1FFE1FFE00
1FFE1FFE00
1FFE1FFE00
1FFE1FFE00
1FFE1FFF00
1FFE0FFF00
1FFE0FFF00
1FFE0FFF00
1FFE0FFF00
3FFE0FFF00
3FFE0FFF00
3FFE0FFF00
3FFC0FFF00
3FFFFFFF00
3FFFFFFF00
3FFFFFFF80
3FFFFFFF80
3FFFFFFF80
3FFFFFFF80
7FFFFFFF80
7FFFFFFF80
7FFFFFFF80
7FFFFFFF80
7FF807FF80
7FF807FF80
7FF807FFC0
7FF807FFC0
7FF803FFC0
7FF803FFC0
7FF803FFC0
FFF803FFC0
FFF803FFC0
FFF803FFC0
FFF803FFC0
000001FE00
000007FC00
00000FFC00
00001FF800
00003FF000
00007FE000
0000FFE000
0000FFC000
0001FFC000
0001FFC000
0001FFC000
0001FFC000
0001FFE000
0001FFF020
0001FFFFE0
0001FFFFE0
0000FFFFE0
0000FFFFE0
00007FFFE0
00003FFFE0
00001FFFE0
000007FFE0
000001FF00
ENDCHAR
STARTCHAR aogonek
ENCODING 261
SWIDTH 483 0
DWIDTH 36 0
BBX 32 79 2 -23
BITMAP
00008000
007FFE00
03FFFF80
07FFFFE0
0FFFFFF0
1FFFFFF8
3FFFFFFC
3FFFFFFC
7FFFFFFE
7FFFFFFE
7FFFFFFE
7FFC7FFF
FFF83FFF
FFF83FFF
FFF81FFF
FFF81FFF
FFF81FFF
FFF81FFF
00001FFF
00001FFF
00001FFF
00007FFF
0003FFFF
001FFFFF
00FFFFFF
03FFFFFF
07FFFFFF
1FFFDFFF
1FFF1FFF
3FFE1FFF
7FFC1FFF
7FF81FFF
FFF81FFF
FFF81FFF
FFF81FFF
FFF81FFF
FFF81FFF
FFF81FFF
FFF81FFF
FFF81FFF
FFF81FFF
FFF81FFF
FFF81FFF
FFF83FFF
FFF83FFF
FFFC3FFF
FFFFFFFF
FFFFFFFF
FFFFFFFF
7FFFFFFF
7FFFDFFF
7FFFDFFF
3FFF9FFF
1FFF9FFF
0FFF1FFF
07FC1FFF
002007F8
00000FF0
00003FF0
00007FE0
0000FFC0
0001FF80
0003FF80
0003FF00
0007FF00
0007FF00
000FFF00
000FFF00
000FFF80
000FFFC1
0007FFFF
0007FFFF
0007FFFF
0003FFFF
0001FFFF
0001FFFF
00007FFF
00003FFF
000007F8
ENDCHAR
STARTCHAR Cacute
ENCODING 262
SWIDTH 474 0
DWIDTH 36 0
BBX 32 84 2 0
BITMAP
00000080
00000380
00000F80
00003F80
0000FF80
0003FF80
001FFF80
007FFF80
01FFFF80
01FFFF80
01FFFF80
01FFFF80
01FFFF80
01FFFE00
01FFC000
01F80000
01000000
00000000
00008000
003FFE00
01FFFF80
03FFFFC0
07FFFFF0
0FFFFFF8
1FFFFFF8
1FFFFFFC
3FFFFFFE
3FFFFFFE
3FFFFFFE
7FFFFFFF
7FFFFFFF
7FFC3FFF
7FF81FFF
7FF81FFF
FFF81FFF
FFF81FFF
FFF81FFF
FFF81FFF
FFF81FFF
FFF81FFF
FFF81FFF
FFF81FFF
FFF81FFF
FFF81FFF
FFF81FFF
FFF80000
FFF80000
FFF80000
FFF80000
FFF80000
FFF80000
FFF80000
FFF80000
FFF80000
FFF80000
FFF80000
FFF81FFF
FFF81FFF
FFF81FFF
FFF81FFF
FFF81FFF
FFF81FFF
FFF81FFF
FFF81FFF
FFF81FFF
FFF81FFF
FFF81FFF
FFF81FFF
FFF81FFF
FFF81FFF
FFFC1FFF
7FFC3FFF
7FFFFFFF
7FFFFFFF
7FFFFFFE
3FFFFFFE
3FFFFFFE
1FFFFFFC
1FFFFFFC
0FFFFFF8
07FFFFF0
03FFFFE0
00FFFF80
003FFE00
ENDCHAR
STARTCHAR cacute
ENCODING 263
SWIDTH 491 0
DWIDTH 37 0
BBX 33 74 2 0
BITMAP
0000004000
0000018000
0000078000
00001F8000
0000FF8000
0003FF8000
000FFF8000
003FFF8000
00FFFF8000
00FFFF8000
00FFFF8000
00FFFF8000
00FFFF8000
00FFFF0000
00FFE00000
00FC000000
0080000000
0000000000
0000800000
003FFF0000
01FFFFC000
03FFFFF000
07FFFFF800
0FFFFFFC00
1FFFFFFE00
1FFFFFFE00
3FFFFFFF00
3FFFFFFF00
7FFFFFFF00
7FFE1FFF80
7FFC1FFF80
7FFC1FFF80
7FF80FFF80
FFF80FFF80
FFF80FFF80
FFF80FFF80
FFF80FFF80
FFF80FFF80
FFF80FFF80
FFF80FFF80
FFF80FFF80
FFF8000000
FFF8000000
FFF8000000
FFF8000000
FFF8000000
FFF8000000
FFF8000000
FFF8000000
FFF8000000
FFF8000000
FFF80FFF80
FFF80FFF80
FFF80FFF80
FFF80FFF80
FFF80FFF80
FFF80FFF80
FFF80FFF80
FFF80FFF80
FFF80FFF80
FFF80FFF80
7FFC1FFF80
7FFC1FFF80
7FFE3FFF80
7FFFFFFF00
3FFFFFFF00
3FFFFFFF00
3FFFFFFE00
1FFFFFFC00
0FFFFFFC00
07FFFFF800
03FFFFE000
01FFFFC000
003FFF0000
ENDCHAR
STARTCHAR Ccircumflex
ENCODING 264
SWIDTH 474 0
DWIDTH 36 0
BBX 32 84 2 0
BITMAP
00FFFF00
01FFFF00
01FFFF80
03FFFF80
03FFFFC0
07FEFFC0
0FFEFFE0
0FFE7FF0
1FFE7FF0
1FFC7FF8
3FFC3FF8
3FFC3FFC
7FF83FFE
FFF83FFE
FFF81FFF
00000000
00000000
00000000
00008000
003FFE00
01FFFF80
03FFFFC0
07FFFFF0
0FFFFFF8
1FFFFFF8
1FFFFFFC
3FFFFFFE
3FFFFFFE
3FFFFFFE
7FFFFFFF
7FFFFFFF
7FFC3FFF
7FF81FFF
7FF81FFF
FFF81FFF
FFF81FFF
FFF81FFF
FFF81FFF
FFF81FFF
FFF81FFF
FFF81FFF
FFF81FFF
FFF81FFF
FFF81FFF
FFF81FFF
FFF80000
FFF80000
FFF80000
FFF80000
FFF80000
FFF80000
FFF80000
FFF80000
FFF80000
FFF80000
FFF80000
FFF81FFF
FFF81FFF
FFF81FFF
FFF81FFF
FFF81FFF
FFF81FFF
FFF81FFF
FFF81FFF
FFF81FFF
FFF81FFF
FFF81FFF
FFF81FFF
FFF81FFF
FFF81FFF
FFFC1FFF
7FFC3FFF
7FFFFFFF
7FFFFFFF
7FFFFFFE
3FFFFFFE
3FFFFFFE
1FFFFFFC
1FFFFFFC
0FFFFFF8
07FFFFF0
03FFFFE0
00FFFF80
003FFE00
ENDCHAR
STARTCHAR ccircumflex
ENCODING 265
SWIDTH 491 0
DWIDTH 37 0
BBX 33 74 2 0
BITMAP
007FFF8000
00FFFF8000
00FFFFC000
01FFFFC000
01FFFFE000
03FFFFE000
03FF7FF000
07FF3FF800
0FFF3FF800
0FFE3FFC00
1FFE1FFC00
1FFE1FFE00
3FFC1FFF00
7FFC0FFF00
7FFC0FFF80
0000000000
0000000000
0000000000
0000800000
003FFF0000
01FFFFC000
03FFFFF000
07FFFFF800
0FFFFFFC00
1FFFFFFE00
1FFFFFFE00
3FFFFFFF00
3FFFFFFF00
7FFFFFFF00
7FFE1FFF80
7FFC1FFF80
7FFC1FFF80
7FF80FFF80
FFF80FFF80
FFF80FFF80
FFF80FFF80
FFF80FFF80
FFF80FFF80
FFF80FFF80
FFF80FFF80
FFF80FFF80
FFF8000000
FFF8000000
FFF8000000
FFF8000000
FFF8000000
FFF8000000
FFF8000000
FFF8000000
FFF8000000
FFF8000000
FFF80FFF80
FFF80FFF80
FFF80FFF80
FFF80FFF80
FFF80FFF80
FFF80FFF80
FFF80FFF80
FFF80FFF80
FFF80FFF80
FFF80FFF80
7FFC1FFF80
7FFC1FFF80
7FFE3FFF80
7FFFFFFF00
3FFFFFFF00
3FFFFFFF00
3FFFFFFE00
1FFFFFFC00
0FFFFFFC00
07FFFFF800
03FFFFE000
01FFFFC000
003FFF0000
ENDCHAR
STARTCHAR Cdotaccent
ENCODING 266
SWIDTH 474 0
DWIDTH 36 0
BBX 32 80 2 0
BITMAP
007FFE00
007FFE00
007FFE00
007FFE00
007FFE00
007FFE00
007FFE00
007FFE00
007FFE00
007FFE00
007FFE00
00000000
00000000
00000000
00008000
003FFE00
01FFFF80
03FFFFC0
07FFFFF0
0FFFFFF8
1FFFFFF8
1FFFFFFC
3FFFFFFE
3FFFFFFE
3FFFFFFE
7FFFFFFF
7FFFFFFF
7FFC3FFF
7FF81FFF
7FF81FFF
FFF81FFF
FFF81FFF
FFF81FFF
FFF81FFF
FFF81FFF
FFF81FFF
FFF81FFF
FFF81FFF
FFF81FFF
FFF81FFF
FFF81FFF
FFF80000
FFF80000
FFF80000
FFF80000
FFF80000
FFF80000
FFF80000
FFF80000
FFF80000
FFF80000
FFF80000
FFF81FFF
FFF81FFF
FFF81FFF
FFF81FFF
FFF81FFF
FFF81FFF
FFF81FFF
FFF81FFF
FFF81FFF
FFF81FFF
FFF81FFF
FFF81FFF
FFF81FFF
FFF81FFF
FFFC1FFF
7FFC3FFF
7FFFFFFF
7FFFFFFF
7FFFFFFE
3FFFFFFE
3FFFFFFE
1FFFFFFC
1FFFFFFC
0FFFFFF8
07FFFFF0
03FFFFE0
00FFFF80
003FFE00
ENDCHAR
STARTCHAR cdotaccent
ENCODING 267
SWIDTH 491 0
DWIDTH 37 0
BBX 33 70 2 0
BITMAP
003FFE0000
003FFE0000
003FFE0000
003FFE0000
003FFE0000
003FFE0000
003FFE0000
003FFE0000
003FFE0000
003FFE0000
003FFE0000
0000000000
0000000000
0000000000
0000800000
003FFF0000
01FFFFC000
03FFFFF000
07FFFFF800
0FFFFFFC00
1FFFFFFE00
1FFFFFFE00
3FFFFFFF00
3FFFFFFF00
7FFFFFFF00
7FFE1FFF80
7FFC1FFF80
7FFC1FFF80
7FF80FFF80
FFF80FFF80
FFF80FFF80
FFF80FFF80
FFF80FFF80
FFF80FFF80
FFF80FFF80
FFF80FFF80
FFF80FFF80
FFF8000000
FFF8000000
FFF8000000
FFF8000000
FFF8000000
FFF8000000
FFF8000000
FFF8000000
FFF8000000
FFF8000000
FFF80FFF80
FFF80FFF80
FFF80FFF80
FFF80FFF80
FFF80FFF80
FFF80FFF80
FFF80FFF80
FFF80FFF80
FFF80FFF80
FFF80FFF80
7FFC1FFF80
7FFC1FFF80
7FFE3FFF80
7FFFFFFF00
3FFFFFFF00
3FFFFFFF00
3FFFFFFE00
1FFFFFFC00
0FFFFFFC00
07FFFFF800
03FFFFE000
01FFFFC000
003FFF0000
ENDCHAR
STARTCHAR Ccaron
ENCODING 268
SWIDTH 474 0
DWIDTH 36 0
BBX 32 84 2 0
BITMAP
FFF81FFF
FFF83FFE
7FF83FFE
3FFC3FFC
3FFC3FF8
1FFC7FF8
1FFE7FF0
0FFE7FF0
0FFEFFE0
07FEFFC0
03FFFFC0
03FFFF80
01FFFF80
01FFFF00
00FFFF00
00000000
00000000
00000000
00008000
003FFE00
01FFFF80
03FFFFC0
07FFFFF0
0FFFFFF8
1FFFFFF8
1FFFFFFC
3FFFFFFE
3FFFFFFE
3FFFFFFE
7FFFFFFF
7FFFFFFF
7FFC3FFF
7FF81FFF
7FF81FFF
FFF81FFF
FFF81FFF
FFF81FFF
FFF81FFF
FFF81FFF
FFF81FFF
FFF81FFF
FFF81FFF
FFF81FFF
FFF81FFF
FFF81FFF
FFF80000
FFF80000
FFF80000
FFF80000
FFF80000
FFF80000
FFF80000
FFF80000
FFF80000
FFF80000
FFF80000
FFF81FFF
FFF81FFF
FFF81FFF
FFF81FFF
FFF81FFF
FFF81FFF
FFF81FFF
FFF81FFF
FFF81FFF
FFF81FFF
FFF81FFF
FFF81FFF
FFF81FFF
FFF81FFF
FFFC1FFF
7FFC3FFF
7FFFFFFF
7FFFFFFF
7FFFFFFE
3FFFFFFE
3FFFFFFE
1FFFFFFC
1FFFFFFC
0FFFFFF8
07FFFFF0
03FFFFE0
00FFFF80
003FFE00
ENDCHAR
STARTCHAR ccaron
ENCODING 269
SWIDTH 491 0
DWIDTH 37 0
BBX 33 74 2 0
BITMAP
7FFC0FFF80
7FFC0FFF00
3FFC1FFF00
1FFE1FFE00
1FFE1FFC00
0FFE3FFC00
0FFF3FF800
07FF3FF800
03FF7FF000
03FF7FF000
01FFFFE000
01FFFFC000
00FFFFC000
00FFFF8000
007FFF8000
0000000000
0000000000
0000000000
0000800000
003FFF0000
01FFFFC000
03FFFFF000
07FFFFF800
0FFFFFFC00
1FFFFFFE00
1FFFFFFE00
3FFFFFFF00
3FFFFFFF00
7FFFFFFF00
7FFE1FFF80
7FFC1FFF80
7FFC1FFF80
7FF80FFF80
FFF80FFF80
FFF80FFF80
FFF80FFF80
FFF80FFF80
FFF80FFF80
FFF80FFF80
FFF80FFF80
FFF80FFF80
FFF8000000
FFF8000000
FFF8000000
FFF8000000
FFF8000000
FFF8000000
FFF8000000
FFF8000000
FFF8000000
FFF8000000
FFF80FFF80
FFF80FFF80
FFF80FFF80
FFF80FFF80
FFF80FFF80
FFF80FFF80
FFF80FFF80
FFF80FFF80
FFF80FFF80
FFF80FFF80
7FFC1FFF80
7FFC1FFF80
7FFE3FFF80
7FFFFFFF00
3FFFFFFF00
3FFFFFFF00
3FFFFFFE00
1FFFFFFC00
0FFFFFFC00
07FFFFF800
03FFFFE000
01FFFFC000
003FFF0000
ENDCHAR
STARTCHAR Dcaron
ENCODING 270
SWIDTH 493 0
DWIDTH 37 0
BBX 32 84 3 0
BITMAP
FFF81FFF
FFF83FFE
7FF83FFE
3FFC3FFC
3FFC3FF8
1FFC7FF8
1FFE7FF0
0FFE7FF0
0FFEFFE0
07FEFFC0
03FFFFC0
03FFFF80
01FFFF80
01FFFF00
00FFFF00
00000000
00000000
00000000
00000000
FFFFFC00
FFFFFF80
FFFFFFC0
FFFFFFF0
FFFFFFF0
FFFFFFF8
FFFFFFFC
FFFFFFFC
FFFFFFFE
FFFFFFFE
FFFFFFFE
FFF87FFE
FFF83FFE
FFF83FFE
FFF81FFE
FFF81FFF
FFF81FFF
FFF81FFF
FFF81FFF
FFF81FFF
FFF81FFF
FFF81FFF
FFF81FFF
FFF81FFF
FFF81FFF
FFF81FFF
FFF81FFF
FFF81FFF
FFF81FFF
FFF81FFF
FFF81FFF
FFF81FFF
FFF81FFF
FFF81FFF
FFF81FFF
FFF81FFF
FFF81FFF
FFF81FFF
FFF81FFF
FFF81FFF
FFF81FFF
FFF81FFF
FFF81FFF
FFF81FFF
FFF81FFF
FFF81FFF
FFF81FFF
FFF81FFF
FFF81FFF
FFF81FFF
FFF83FFE
FFF83FFE
FFF87FFE
FFFFFFFE
FFFFFFFE
FFFFFFFE
FFFFFFFC
FFFFFFFC
FFFFFFF8
FFFFFFF8
FFFFFFF0
FFFFFFE0
FFFFFFC0
FFFFFF80
FFFFFC00
ENDCHAR
STARTCHAR dcaron
ENCODING 271
SWIDTH 498 0
DWIDTH 37 0
BBX 52 65 2 0
BITMAP
00000FFF83FFF0
00000FFF83FFF0
00000FFF83FFF0
00000FFF83FFF0
00000FFF83FFF0
00000FFF83FFF0
00000FFF83FFF0
00000FFF83FFF0
00000FFF83FFF0
00100FFF83FFF0
01FF8FFF83FFF0
07FFCFFF803FE0
0FFFEFFF803FE0
1FFFFFFF803FE0
3FFFFFFF803FC0
3FFFFFFF807FC0
7FFFFFFF807F80
7FFFFFFF807F80
7FFFFFFF807F80
7FFFFFFF80FF00
FFFC3FFF800000
FFFC1FFF800000
FFFC1FFF800000
FFF81FFF800000
FFF80FFF800000
FFF80FFF800000
FFF80FFF800000
FFF80FFF800000
FFF80FFF800000
FFF80FFF800000
FFF80FFF800000
FFF80FFF800000
FFF80FFF800000
FFF80FFF800000
FFF80FFF800000
FFF80FFF800000
FFF80FFF800000
FFF80FFF800000
FFF80FFF800000
FFF80FFF800000
FFF80FFF800000
FFF80FFF800000
FFF80FFF800000
FFF80FFF800000
FFF80FFF800000
FFF80FFF800000
FFF80FFF800000
FFF80FFF800000
FFF80FFF800000
FFF80FFF800000
FFF81FFF800000
FFF81FFF800000
FFFC1FFF800000
FFFC1FFF800000
7FFE3FFF800000
7FFFFFFF800000
7FFFFFFF800000
7FFFFFFF800000
7FFFFFFF800000
3FFFEFFF800000
3FFFEFFF800000
1FFFEFFF800000
1FFFCFFF800000
0FFF8FFF800000
03FF0FFF800000
ENDCHAR
STARTCHAR Dcroat
ENCODING 272
SWIDTH 493 0
DWIDTH 37 0
BBX 35 65 0 0
BITMAP
1FFFFF8000
1FFFFFF000
1FFFFFF800
1FFFFFFE00
1FFFFFFE00
1FFFFFFF00
1FFFFFFF80
1FFFFFFF80
1FFFFFFFC0
1FFFFFFFC0
1FFFFFFFC0
1FFF0FFFC0
1FFF07FFC0
1FFF07FFC0
1FFF03FFC0
1FFF03FFE0
1FFF03FFE0
1FFF03FFE0
1FFF03FFE0
1FFF03FFE0
1FFF03FFE0
1FFF03FFE0
1FFF03FFE0
1FFF03FFE0
1FFF03FFE0
1FFF03FFE0
1FFF03FFE0
FFFFE3FFE0
FFFFE3FFE0
FFFFE3FFE0
FFFFE3FFE0
FFFFE3FFE0
FFFFE3FFE0
FFFFE3FFE0
FFFFE3FFE0
FFFFE3FFE0
1FFF03FFE0
1FFF03FFE0
1FFF03FFE0
1FFF03FFE0
1FFF03FFE0
1FFF03FFE0
1FFF03FFE0
1FFF03FFE0
1FFF03FFE0
1FFF03FFE0
1FFF03FFE0
1FFF03FFE0
1FFF03FFE0
1FFF03FFE0
1FFF07FFC0
1FFF07FFC0
1FFF0FFFC0
1FFFFFFFC0
1FFFFFFFC0
1FFFFFFFC0
1FFFFFFF80
1FFFFFFF80
1FFFFFFF00
1FFFFFFF00
1FFFFFFE00
1FFFFFFC00
1FFFFFF800
1FFFFFF000
1FFFFF8000
ENDCHAR
STARTCHAR dcroat
ENCODING 273
SWIDTH 498 0
DWIDTH 37 0
BBX 38 65 2 0
BITMAP
00000FFF80
00000FFF80
0003FFFFFC
0003FFFFFC
0003FFFFFC
0003FFFFFC
0003FFFFFC
0003FFFFFC
00000FFF80
00100FFF80
01FF8FFF80
07FFCFFF80
0FFFEFFF80
1FFFFFFF80
3FFFFFFF80
3FFFFFFF80
7FFFFFFF80
7FFFFFFF80
7FFFFFFF80
7FFFFFFF80
FFFC3FFF80
FFFC1FFF80
FFFC1FFF80
FFF81FFF80
FFF80FFF80
FFF80FFF80
FFF80FFF80
FFF80FFF80
FFF80FFF80
FFF80FFF80
FFF80FFF80
FFF80FFF80
FFF80FFF80
FFF80FFF80
FFF80FFF80
FFF80FFF80
FFF80FFF80
FFF80FFF80
FFF80FFF80
FFF80FFF80
FFF80FFF80
FFF80FFF80
FFF80FFF80
FFF80FFF80
FFF80FFF80
FFF80FFF80
FFF80FFF80
FFF80FFF80
FFF80FFF80
FFF80FFF80
FFF81FFF80
FFF81FFF80
FFFC1FFF80
FFFC1FFF80
7FFE3FFF80
7FFFFFFF80
7FFFFFFF80
7FFFFFFF80
7FFFFFFF80
3FFFEFFF80
3FFFEFFF80
1FFFEFFF80
1FFFCFFF80
0FFF8FFF80
03FF0FFF80
ENDCHAR
STARTCHAR Emacron
ENCODING 274
SWIDTH 412 0
DWIDTH 31 0
BBX 26 76 3 0
BITMAP
7FFFFF80
7FFFFF80
7FFFFF80
7FFFFF80
7FFFFF80
7FFFFF80
00000000
00000000
00000000
00000000
00000000
FFFFFFC0
FFFFFFC0
FFFFFFC0
FFFFFFC0
FFFFFFC0
FFFFFFC0
FFFFFFC0
FFFFFFC0
FFFFFFC0
FFFFFFC0
FFFFFFC0
FFFFFFC0
FFFFFFC0
FFF80000
FFF80000
FFF80000
FFF80000
FFF80000
FFF80000
FFF80000
FFF80000
FFF80000
FFF80000
FFF80000
FFF80000
FFFFFF80
FFFFFF80
FFFFFF80
FFFFFF80
FFFFFF80
FFFFFF80
FFFFFF80
FFFFFF80
FFFFFF80
FFFFFF80
FFFFFF80
FFFFFF80
FFF80000
FFF80000
FFF80000
FFF80000
FFF80000
FFF80000
FFF80000
FFF80000
FFF80000
FFF80000
FFF80000
FFF80000
FFF80000
FFF80000
FFF80000
FFFFFFC0
FFFFFFC0
FFFFFFC0
FFFFFFC0
FFFFFFC0
FFFFFFC0
FFFFFFC0
FFFFFFC0
FFFFFFC0
FFFFFFC0
FFFFFFC0
FFFFFFC0
FFFFFFC0
ENDCHAR
STARTCHAR emacron
ENCODING 275
SWIDTH 488 0
DWIDTH 37 0
BBX 33 67 2 0
BITMAP
0FFFFFF000
0FFFFFF000
0FFFFFF000
0FFFFFF000
0FFFFFF000
0FFFFFF000
0000000000
0000000000
0000000000
0000000000
0000000000
0000800000
003FFF0000
01FFFFC000
03FFFFE000
0FFFFFF800
1FFFFFF800
1FFFFFFC00
3FFFFFFE00
3FFFFFFE00
7FFFFFFF00
7FFFFFFF00
7FFE3FFF00
FFFC1FFF00
FFFC1FFF00
FFF81FFF00
FFF81FFF00
FFF81FFF80
FFF81FFF80
FFF81FFF80
FFF81FFF80
FFF81FFF80
FFF81FFF00
FFF81FFF00
FFFFFFFF00
FFFFFFFF00
FFFFFFFF00
FFFFFFFF00
FFFFFFFF00
FFFFFFFF00
FFFFFFFF00
FFF8000000
FFF8000000
FFF8000000
FFF8000000
FFF8000000
FFF81FFF80
FFF81FFF80
FFF81FFF80
FFF81FFF00
FFF81FFF00
FFF81FFF00
FFF81FFF00
FFF81FFF00
7FFC1FFF00
7FFC1FFF00
7FFC3FFF00
7FFFFFFF00
7FFFFFFE00
3FFFFFFE00
3FFFFFFC00
1FFFFFFC00
0FFFFFF800
0FFFFFF000
07FFFFE000
01FFFFC000
007FFE0000
ENDCHAR
STARTCHAR Ebreve
ENCODING 276
SWIDTH 412 0
DWIDTH 31 0
BBX 29 82 2 0
BITMAP
FFC01FF8
FFC01FF8
FFC01FF8
FFE07FF8
FFFFFFF8
7FFFFFF0
7FFFFFF0
7FFFFFE0
3FFFFFE0
1FFFFFC0
0FFFFF80
03FFFE00
007FF000
00000000
00000000
00000000
00000000
7FFFFFE0
7FFFFFE0
7FFFFFE0
7FFFFFE0
7FFFFFE0
7FFFFFE0
7FFFFFE0
7FFFFFE0
7FFFFFE0
7FFFFFE0
7FFFFFE0
7FFFFFE0
7FFFFFE0
7FFC0000
7FFC0000
7FFC0000
7FFC0000
7FFC0000
7FFC0000
7FFC0000
7FFC0000
7FFC0000
7FFC0000
7FFC0000
7FFC0000
7FFFFFC0
7FFFFFC0
7FFFFFC0
7FFFFFC0
7FFFFFC0
7FFFFFC0
7FFFFFC0
7FFFFFC0
7FFFFFC0
7FFFFFC0
7FFFFFC0
7FFFFFC0
7FFC0000
7FFC0000
7FFC0000
7FFC0000
7FFC0000
7FFC0000
7FFC0000
7FFC0000
7FFC0000
7FFC0000
7FFC0000
7FFC0000
7FFC0000
7FFC0000
7FFC0000
7FFFFFE0
7FFFFFE0
7FFFFFE0
7FFFFFE0
7FFFFFE0
7FFFFFE0
7FFFFFE0
7FFFFFE0
7FFFFFE0
7FFFFFE0
7FFFFFE0
7FFFFFE0
7FFFFFE0
ENDCHAR
STARTCHAR ebreve
ENCODING 277
SWIDTH 488 0
DWIDTH 37 0
BBX 33 73 2 0
BITMAP
3FF007FE00
3FF007FE00
3FF007FE00
3FF81FFE00
3FFFFFFE00
3FFFFFFC00
1FFFFFFC00
1FFFFFF800
0FFFFFF800
07FFFFF000
03FFFFE000
00FFFF8000
001FFC0000
0000000000
0000000000
0000000000
0000000000
0000800000
003FFF0000
01FFFFC000
03FFFFE000
0FFFFFF800
1FFFFFF800
1FFFFFFC00
3FFFFFFE00
3FFFFFFE00
7FFFFFFF00
7FFFFFFF00
7FFE3FFF00
FFFC1FFF00
FFFC1FFF00
FFF81FFF00
FFF81FFF00
FFF81FFF80
FFF81FFF80
FFF81FFF80
FFF81FFF80
FFF81FFF80
FFF81FFF00
FFF81FFF00
FFFFFFFF00
FFFFFFFF00
FFFFFFFF00
FFFFFFFF00
FFFFFFFF00
FFFFFFFF00
FFFFFFFF00
FFF8000000
FFF8000000
FFF8000000
FFF8000000
FFF8000000
FFF81FFF80
FFF81FFF80
FFF81FFF80
FFF81FFF00
FFF81FFF00
FFF81FFF00
FFF81FFF00
FFF81FFF00
7FFC1FFF00
7FFC1FFF00
7FFC3FFF00
7FFFFFFF00
7FFFFFFE00
3FFFFFFE00
3FFFFFFC00
1FFFFFFC00
0FFFFFF800
0FFFFFF000
07FFFFE000
01FFFFC000
007FFE0000
ENDCHAR
STARTCHAR Edotaccent
ENCODING 278
SWIDTH 412 0
DWIDTH 31 0
BBX 26 80 3 0
BITMAP
03FFF000
03FFF000
03FFF000
03FFF000
03FFF000
03FFF000
03FFF000
03FFF000
03FFF000
03FFF000
03FFF000
00000000
00000000
00000000
00000000
FFFFFFC0
FFFFFFC0
FFFFFFC0
FFFFFFC0
FFFFFFC0
FFFFFFC0
FFFFFFC0
FFFFFFC0
FFFFFFC0
FFFFFFC0
FFFFFFC0
FFFFFFC0
FFFFFFC0
FFF80000
FFF80000
FFF80000
FFF80000
FFF80000
FFF80000
FFF80000
FFF80000
FFF80000
FFF80000
FFF80000
FFF80000
FFFFFF80
FFFFFF80
FFFFFF80
FFFFFF80
FFFFFF80
FFFFFF80
FFFFFF80
FFFFFF80
FFFFFF80
FFFFFF80
FFFFFF80
FFFFFF80
FFF80000
FFF80000
FFF80000
FFF80000
FFF80000
FFF80000
FFF80000
FFF80000
FFF80000
FFF80000
FFF80000
FFF80000
FFF80000
FFF80000
FFF80000
FFFFFFC0
FFFFFFC0
FFFFFFC0
FFFFFFC0
FFFFFFC0
FFFFFFC0
FFFFFFC0
FFFFFFC0
FFFFFFC0
FFFFFFC0
FFFFFFC0
FFFFFFC0
FFFFFFC0
ENDCHAR
STARTCHAR edotaccent
ENCODING 279
SWIDTH 488 0
DWIDTH 37 0
BBX 33 71 2 0
BITMAP
003FFF0000
003FFF0000
003FFF0000
003FFF0000
003FFF0000
003FFF0000
003FFF0000
003FFF0000
003FFF0000
003FFF0000
003FFF0000
0000000000
0000000000
0000000000
0000000000
0000800000
003FFF0000
01FFFFC000
03FFFFE000
0FFFFFF800
1FFFFFF800
1FFFFFFC00
3FFFFFFE00
3FFFFFFE00
7FFFFFFF00
7FFFFFFF00
7FFE3FFF00
FFFC1FFF00
FFFC1FFF00
FFF81FFF00
FFF81FFF00
FFF81FFF80
FFF81FFF80
FFF81FFF80
FFF81FFF80
FFF81FFF80
FFF81FFF00
FFF81FFF00
FFFFFFFF00
FFFFFFFF00
FFFFFFFF00
FFFFFFFF00
FFFFFFFF00
FFFFFFFF00
FFFFFFFF00
FFF8000000
FFF8000000
FFF8000000
FFF8000000
FFF8000000
FFF81FFF80
FFF81FFF80
FFF81FFF80
FFF81FFF00
FFF81FFF00
FFF81FFF00
FFF81FFF00
FFF81FFF00
7FFC1FFF00
7FFC1FFF00
7FFC3FFF00
7FFFFFFF00
7FFFFFFE00
3FFFFFFE00
3FFFFFFC00
1FFFFFFC00
0FFFFFF800
0FFFFFF000
07FFFFE000
01FFFFC000
007FFE0000
ENDCHAR
STARTCHAR Eogonek
ENCODING 280
SWIDTH 412 0
DWIDTH 31 0
BBX 26 88 3 -23
BITMAP
FFFFFFC0
FFFFFFC0
FFFFFFC0
FFFFFFC0
FFFFFFC0
FFFFFFC0
FFFFFFC0
FFFFFFC0
FFFFFFC0
FFFFFFC0
FFFFFFC0
FFFFFFC0
FFFFFFC0
FFF80000
FFF80000
FFF80000
FFF80000
FFF80000
FFF80000
FFF80000
FFF80000
FFF80000
FFF80000
FFF80000
FFF80000
FFFFFF80
FFFFFF80
FFFFFF80
FFFFFF80
FFFFFF80
FFFFFF80
FFFFFF80
FFFFFF80
FFFFFF80
FFFFFF80
FFFFFF80
FFFFFF80
FFF80000
FFF80000
FFF80000
FFF80000
FFF80000
FFF80000
FFF80000
FFF80000
FFF80000
FFF80000
FFF80000
FFF80000
FFF80000
FFF80000
FFF80000
FFFFFFC0
FFFFFFC0
FFFFFFC0
FFFFFFC0
FFFFFFC0
FFFFFFC0
FFFFFFC0
FFFFFFC0
FFFFFFC0
FFFFFFC0
FFFFFFC0
FFFFFFC0
FFFFFFC0
007FC000
00FF8000
03FF0000
07FE0000
0FFE0000
1FFC0000
1FF80000
3FF80000
3FF80000
7FF80000
7FF80000
7FF80000
7FF80000
7FFE0800
7FFFF800
3FFFF800
3FFFF800
1FFFF800
1FFFF800
0FFFF800
03FFF800
01FFF800
003FC000
ENDCHAR
STARTCHAR eogonek
ENCODING 281
SWIDTH 488 0
DWIDTH 37 0
BBX 33 80 2 -24
BITMAP
0000800000
003FFF0000
01FFFFC000
03FFFFE000
07FFFFF000
0FFFFFF800
1FFFFFFC00
3FFFFFFE00
3FFFFFFE00
7FFFFFFE00
7FFFFFFF00
7FFE3FFF00
FFFC1FFF00
FFFC1FFF00
FFF81FFF00
FFF81FFF00
FFF81FFF00
FFF81FFF80
FFF81FFF80
FFF81FFF80
FFF81FFF80
FFF81FFF00
FFF81FFF00
FFF81FFF00
FFFFFFFF00
FFFFFFFF00
FFFFFFFF00
FFFFFFFF00
FFFFFFFF00
FFFFFFFF00
FFFFFFFF00
FFF8000000
FFF8000000
FFF8000000
FFF8000000
FFF8000000
FFF81FFF80
FFF81FFF80
FFF81FFF80
FFF81FFF00
FFF81FFF00
FFF81FFF00
FFF81FFF00
FFF81FFF00
7FFC1FFF00
7FFC1FFF00
7FFC1FFF00
7FFFFFFF00
7FFFFFFE00
3FFFFFFE00
3FFFFFFC00
1FFFFFFC00
0FFFFFF800
0FFFFFF000
07FFFFE000
01FFFFC000
007FFE0000
000FF80000
001FF00000
007FE00000
00FFC00000
01FF800000
03FF800000
07FF000000
07FF000000
0FFE000000
0FFE000000
0FFE000000
0FFE000000
0FFF000000
0FFF810000
0FFFFF0000
0FFFFF0000
07FFFF0000
07FFFF0000
03FFFF0000
01FFFF0000
00FFFF0000
003FFF0000
000FF80000
ENDCHAR
STARTCHAR Ecaron
ENCODING 282
SWIDTH 412 0
DWIDTH 31 0
BBX 32 84 1 0
BITMAP
FFF81FFF
FFF83FFE
7FF83FFE
3FFC3FFC
3FFC3FF8
1FFC7FF8
1FFE7FF0
0FFE7FF0
0FFEFFE0
07FEFFC0
03FFFFC0
03FFFF80
01FFFF80
01FFFF00
00FFFF00
00000000
00000000
00000000
00000000
3FFFFFF0
3FFFFFF0
3FFFFFF0
3FFFFFF0
3FFFFFF0
3FFFFFF0
3FFFFFF0
3FFFFFF0
3FFFFFF0
3FFFFFF0
3FFFFFF0
3FFFFFF0
3FFFFFF0
3FFE0000
3FFE0000
3FFE0000
3FFE0000
3FFE0000
3FFE0000
3FFE0000
3FFE0000
3FFE0000
3FFE0000
3FFE0000
3FFE0000
3FFFFFE0
3FFFFFE0
3FFFFFE0
3FFFFFE0
3FFFFFE0
3FFFFFE0
3FFFFFE0
3FFFFFE0
3FFFFFE0
3FFFFFE0
3FFFFFE0
3FFFFFE0
3FFE0000
3FFE0000
3FFE0000
3FFE0000
3FFE0000
3FFE0000
3FFE0000
3FFE0000
3FFE0000
3FFE0000
3FFE0000
3FFE0000
3FFE0000
3FFE0000
3FFE0000
3FFFFFF0
3FFFFFF0
3FFFFFF0
3FFFFFF0
3FFFFFF0
3FFFFFF0
3FFFFFF0
3FFFFFF0
3FFFFFF0
3FFFFFF0
3FFFFFF0
3FFFFFF0
3FFFFFF0
ENDCHAR
STARTCHAR ecaron
ENCODING 283
SWIDTH 488 0
DWIDTH 37 0
BBX 33 75 2 0
BITMAP
FFFC0FFF80
7FFC1FFF00
3FFC1FFF00
1FFE1FFE00
1FFE1FFC00
0FFE3FFC00
0FFF3FF800
07FF3FF800
07FF7FF000
03FF7FE000
01FFFFE000
01FFFFC000
00FFFFC000
00FFFF8000
007FFF8000
0000000000
0000000000
0000000000
0000000000
0000800000
003FFF0000
01FFFFC000
03FFFFE000
0FFFFFF800
1FFFFFF800
1FFFFFFC00
3FFFFFFE00
3FFFFFFE00
7FFFFFFF00
7FFFFFFF00
7FFE3FFF00
FFFC1FFF00
FFFC1FFF00
FFF81FFF00
FFF81FFF00
FFF81FFF80
FFF81FFF80
FFF81FFF80
FFF81FFF80
FFF81FFF80
FFF81FFF00
FFF81FFF00
FFFFFFFF00
FFFFFFFF00
FFFFFFFF00
FFFFFFFF00
FFFFFFFF00
FFFFFFFF00
FFFFFFFF00
FFF8000000
FFF8000000
FFF8000000
FFF8000000
FFF8000000
FFF81FFF80
FFF81FFF80
FFF81FFF80
FFF81FFF00
FFF81FFF00
FFF81FFF00
FFF81FFF00
FFF81FFF00
7FFC1FFF00
7FFC1FFF00
7FFC3FFF00
7FFFFFFF00
7FFFFFFE00
3FFFFFFE00
3FFFFFFC00
1FFFFFFC00
0FFFFFF800
0FFFFFF000
07FFFFE000
01FFFFC000
007FFE0000
ENDCHAR
STARTCHAR Gcircumflex
ENCODING 284
SWIDTH 485 0
DWIDTH 36 0
BBX 32 84 2 0
BITMAP
00FFFF00
01FFFF00
01FFFF80
03FFFF80
03FFFFC0
07FEFFC0
0FFEFFE0
0FFE7FF0
1FFE7FF0
1FFC7FF8
3FFC3FF8
3FFC3FFC
7FF83FFE
FFF83FFE
FFF81FFF
00000000
00000000
00000000
00008000
003FFE00
01FFFF80
03FFFFE0
07FFFFF0
0FFFFFF8
1FFFFFF8
1FFFFFFC
3FFFFFFC
3FFFFFFE
7FFFFFFE
7FFFFFFE
7FFFFFFE
7FFC1FFF
7FFC1FFF
FFF80FFF
FFF80FFF
FFF80FFF
FFF80FFF
FFF80FFF
FFF80FFF
FFF80FFF
FFF80FFF
FFF80000
FFF80000
FFF80000
FFF80000
FFF80000
FFF8FFFF
FFF8FFFF
FFF8FFFF
FFF8FFFF
FFF8FFFF
FFF8FFFF
FFF8FFFF
FFF8FFFF
FFF8FFFF
FFF8FFFF
FFF8FFFF
FFF80FFF
FFF80FFF
FFF80FFF
FFF80FFF
FFF80FFF
FFF80FFF
FFF80FFF
FFF80FFF
FFF80FFF
FFF80FFF
FFF80FFF
FFF80FFF
7FF80FFF
7FFC1FFF
7FFC1FFF
7FFFFFFF
7FFFFFFF
7FFFFFFF
3FFFFFFF
3FFFFFFF
1FFFFFFF
1FFFFFFF
0FFFFF7F
0FFFFE3F
07FFFC3F
01FFF83F
007FE01F
ENDCHAR
STARTCHAR gcircumflex
ENCODING 285
SWIDTH 504 0
DWIDTH 38 0
BBX 33 83 2 -9
BITMAP
007FFF0000
00FFFF8000
00FFFFC000
01FFFFC000
01FFFFE000
03FF7FE000
07FF7FF000
07FF3FF800
0FFF3FF800
0FFE3FFC00
1FFE3FFC00
3FFE1FFE00
3FFC1FFE00
7FFC1FFF00
FFFC0FFF80
0000000000
0000000000
0000000000
0010000000
03FF0FFF80
07FF8FFF80
0FFFCFFF80
1FFFEFFF80
3FFFEFFF80
3FFFFFFF80
3FFFFFFF80
7FFFFFFF80
7FFFFFFF80
7FFFFFFF80
7FFE1FFF80
7FFC1FFF80
7FFC0FFF80
7FFC0FFF80
7FFC0FFF80
7FFC0FFF80
7FFC0FFF80
7FFC0FFF80
7FFC0FFF80
7FFC0FFF80
7FFC0FFF80
7FFC0FFF80
7FFC0FFF80
7FFC0FFF80
7FFC0FFF80
7FFC0FFF80
7FFC0FFF80
7FFC0FFF80
7FFC0FFF80
7FFC0FFF80
7FFC0FFF80
7FFC0FFF80
7FFC0FFF80
7FFC0FFF80
7FFC0FFF80
7FFC0FFF80
7FFC0FFF80
7FFC0FFF80
7FFC1FFF80
7FFE3FFF80
7FFFFFFF80
7FFFFFFF80
7FFFFFFF80
3FFFFFFF80
3FFFFFFF80
1FFFFFFF80
1FFFEFFF80
0FFFCFFF80
07FF8FFF80
01FF0FFF80
00000FFF80
00001FFF80
08001FFF80
1E003FFF80
1FC0FFFF00
3FFFFFFF00
3FFFFFFE00
7FFFFFFE00
FFFFFFFC00
FFFFFFF800
7FFFFFF000
3FFFFFE000
0FFFFF8000
00FFF80000
ENDCHAR
STARTCHAR Gbreve
ENCODING 286
SWIDTH 485 0
DWIDTH 36 0
BBX 32 82 2 0
BITMAP
3FF007FE
3FF007FE
3FF007FE
3FF81FFE
3FFFFFFE
3FFFFFFC
1FFFFFFC
1FFFFFF8
0FFFFFF8
07FFFFF0
03FFFFE0
00FFFF80
001FFC00
00000000
00000000
00000000
00008000
003FFE00
01FFFF80
03FFFFE0
07FFFFF0
0FFFFFF8
1FFFFFF8
1FFFFFFC
3FFFFFFC
3FFFFFFE
7FFFFFFE
7FFFFFFE
7FFFFFFE
7FFC1FFF
7FFC1FFF
FFF80FFF
FFF80FFF
FFF80FFF
FFF80FFF
FFF80FFF
FFF80FFF
FFF80FFF
FFF80FFF
FFF80000
FFF80000
FFF80000
FFF80000
FFF80000
FFF8FFFF
FFF8FFFF
FFF8FFFF
FFF8FFFF
FFF8FFFF
FFF8FFFF
FFF8FFFF
FFF8FFFF
FFF8FFFF
FFF8FFFF
FFF8FFFF
FFF80FFF
FFF80FFF
FFF80FFF
FFF80FFF
FFF80FFF
FFF80FFF
FFF80FFF
FFF80FFF
FFF80FFF
FFF80FFF
FFF80FFF
FFF80FFF
7FF80FFF
7FFC1FFF
7FFC1FFF
7FFFFFFF
7FFFFFFF
7FFFFFFF
3FFFFFFF
3FFFFFFF
1FFFFFFF
1FFFFFFF
0FFFFF7F
0FFFFE3F
07FFFC3F
01FFF83F
007FE01F
ENDCHAR
STARTCHAR gbreve
ENCODING 287
SWIDTH 504 0
DWIDTH 38 0
BBX 33 81 2 -9
BITMAP
3FF003FE00
3FF003FE00
3FF807FE00
1FFC0FFE00
1FFFFFFE00
1FFFFFFE00
1FFFFFFC00
0FFFFFFC00
07FFFFF800
07FFFFF000
01FFFFE000
007FFF8000
000FFC0000
0000000000
0000000000
0000000000
0010000000
03FF0FFF80
07FF8FFF80
0FFFCFFF80
1FFFEFFF80
3FFFEFFF80
3FFFFFFF80
3FFFFFFF80
7FFFFFFF80
7FFFFFFF80
7FFFFFFF80
7FFE1FFF80
7FFC1FFF80
7FFC0FFF80
7FFC0FFF80
7FFC0FFF80
7FFC0FFF80
7FFC0FFF80
7FFC0FFF80
7FFC0FFF80
7FFC0FFF80
7FFC0FFF80
7FFC0FFF80
7FFC0FFF80
7FFC0FFF80
7FFC0FFF80
7FFC0FFF80
7FFC0FFF80
7FFC0FFF80
7FFC0FFF80
7FFC0FFF80
7FFC0FFF80
7FFC0FFF80
7FFC0FFF80
7FFC0FFF80
7FFC0FFF80
7FFC0FFF80
7FFC0FFF80
7FFC0FFF80
7FFC1FFF80
7FFE3FFF80
7FFFFFFF80
7FFFFFFF80
7FFFFFFF80
3FFFFFFF80
3FFFFFFF80
1FFFFFFF80
1FFFEFFF80
0FFFCFFF80
07FF8FFF80
01FF0FFF80
00000FFF80
00001FFF80
08001FFF80
1E003FFF80
1FC0FFFF00
3FFFFFFF00
3FFFFFFE00
7FFFFFFE00
FFFFFFFC00
FFFFFFF800
7FFFFFF000
3FFFFFE000
0FFFFF8000
00FFF80000
ENDCHAR
STARTCHAR Gdotaccent
ENCODING 288
SWIDTH 485 0
DWIDTH 36 0
BBX 32 80 2 0
BITMAP
007FFE00
007FFE00
007FFE00
007FFE00
007FFE00
007FFE00
007FFE00
007FFE00
007FFE00
007FFE00
007FFE00
00000000
00000000
00000000
00008000
003FFE00
01FFFF80
03FFFFE0
07FFFFF0
0FFFFFF8
1FFFFFF8
1FFFFFFC
3FFFFFFC
3FFFFFFE
7FFFFFFE
7FFFFFFE
7FFFFFFE
7FFC1FFF
7FFC1FFF
FFF80FFF
FFF80FFF
FFF80FFF
FFF80FFF
FFF80FFF
FFF80FFF
FFF80FFF
FFF80FFF
FFF80000
FFF80000
FFF80000
FFF80000
FFF80000
FFF8FFFF
FFF8FFFF
FFF8FFFF
FFF8FFFF
FFF8FFFF
FFF8FFFF
FFF8FFFF
FFF8FFFF
FFF8FFFF
FFF8FFFF
FFF8FFFF
FFF80FFF
FFF80FFF
FFF80FFF
FFF80FFF
FFF80FFF
FFF80FFF
FFF80FFF
FFF80FFF
FFF80FFF
FFF80FFF
FFF80FFF
FFF80FFF
7FF80FFF
7FFC1FFF
7FFC1FFF
7FFFFFFF
7FFFFFFF
7FFFFFFF
3FFFFFFF
3FFFFFFF
1FFFFFFF
1FFFFFFF
0FFFFF7F
0FFFFE3F
07FFFC3F
01FFF83F
007FE01F
ENDCHAR
STARTCHAR gdotaccent
ENCODING 289
SWIDTH 504 0
DWIDTH 38 0
BBX 33 79 2 -9
BITMAP
003FFE0000
003FFE0000
003FFE0000
003FFE0000
003FFE0000
003FFE0000
003FFE0000
003FFE0000
003FFE0000
003FFE0000
003FFE0000
0000000000
0000000000
0000000000
0010000000
03FF0FFF80
07FF8FFF80
0FFFCFFF80
1FFFEFFF80
3FFFEFFF80
3FFFFFFF80
3FFFFFFF80
7FFFFFFF80
7FFFFFFF80
7FFFFFFF80
7FFE1FFF80
7FFC1FFF80
7FFC0FFF80
7FFC0FFF80
7FFC0FFF80
7FFC0FFF80
7FFC0FFF80
7FFC0FFF80
7FFC0FFF80
7FFC0FFF80
7FFC0FFF80
7FFC0FFF80
7FFC0FFF80
7FFC0FFF80
7FFC0FFF80
7FFC0FFF80
7FFC0FFF80
7FFC0FFF80
7FFC0FFF80
7FFC0FFF80
7FFC0FFF80
7FFC0FFF80
7FFC0FFF80
7FFC0FFF80
7FFC0FFF80
7FFC0FFF80
7FFC0FFF80
7FFC0FFF80
7FFC1FFF80
7FFE3FFF80
7FFFFFFF80
7FFFFFFF80
7FFFFFFF80
3FFFFFFF80
3FFFFFFF80
1FFFFFFF80
1FFFEFFF80
0FFFCFFF80
07FF8FFF80
01FF0FFF80
00000FFF80
00001FFF80
08001FFF80
1E003FFF80
1FC0FFFF00
3FFFFFFF00
3FFFFFFE00
7FFFFFFE00
FFFFFFFC00
FFFFFFF800
7FFFFFF000
3FFFFFE000
0FFFFF8000
00FFF80000
ENDCHAR
STARTCHAR Gcommaaccent
ENCODING 290
SWIDTH 485 0
DWIDTH 36 0
BBX 32 89 2 -23
BITMAP
00008000
003FFE00
01FFFF80
03FFFFE0
07FFFFF0
0FFFFFF8
1FFFFFF8
1FFFFFFC
3FFFFFFC
3FFFFFFE
7FFFFFFE
7FFFFFFE
7FFFFFFE
7FFC1FFF
7FFC1FFF
FFF80FFF
FFF80FFF
FFF80FFF
FFF80FFF
FFF80FFF
FFF80FFF
FFF80FFF
FFF80FFF
FFF80000
FFF80000
FFF80000
FFF80000
FFF80000
FFF8FFFF
FFF8FFFF
FFF8FFFF
FFF8FFFF
FFF8FFFF
FFF8FFFF
FFF8FFFF
FFF8FFFF
FFF8FFFF
FFF8FFFF
FFF8FFFF
FFF80FFF
FFF80FFF
FFF80FFF
FFF80FFF
FFF80FFF
FFF80FFF
FFF80FFF
FFF80FFF
FFF80FFF
FFF80FFF
FFF80FFF
FFF80FFF
7FF80FFF
7FFC1FFF
7FFC1FFF
7FFFFFFF
7FFFFFFF
7FFFFFFF
3FFFFFFF
3FFFFFFF
1FFFFFFF
1FFFFFFF
0FFFFF7F
0FFFFE3F
07FFFC3F
01FFF83F
007FE01F
00020000
00000000
00000000
00000000
007FFE00
007FFE00
007FFE00
007FFE00
007FFE00
007FFE00
007FFE00
007FFE00
007FFE00
007FFE00
007FFE00
0003FC00
0007FC00
0007FC00
0007F800
0007F800
000FF000
000FF000
001FF000
ENDCHAR
STARTCHAR gcommaaccent
ENCODING 291
SWIDTH 504 0
DWIDTH 38 0
BBX 33 93 2 -9
BITMAP
0003F80000
0007F80000
0007F80000
000FF80000
000FF00000
000FF00000
001FF00000
001FE00000
003FE00000
003FFF0000
003FFF0000
003FFF0000
003FFF0000
003FFF0000
003FFF0000
003FFF0000
003FFF0000
003FFF0000
003FFF0000
003FFF0000
0000000000
0000000000
0000000000
0000000000
0000000000
0000000000
0000000000
0000000000
0010000000
03FF0FFF80
07FF8FFF80
0FFFCFFF80
1FFFEFFF80
3FFFEFFF80
3FFFFFFF80
3FFFFFFF80
7FFFFFFF80
7FFFFFFF80
7FFFFFFF80
7FFE1FFF80
7FFC1FFF80
7FFC0FFF80
7FFC0FFF80
7FFC0FFF80
7FFC0FFF80
7FFC0FFF80
7FFC0FFF80
7FFC0FFF80
7FFC0FFF80
7FFC0FFF80
7FFC0FFF80
7FFC0FFF80
7FFC0FFF80
7FFC0FFF80
7FFC0FFF80
7FFC0FFF80
7FFC0FFF80
7FFC0FFF80
7FFC0FFF80
7FFC0FFF80
7FFC0FFF80
7FFC0FFF80
7FFC0FFF80
7FFC0FFF80
7FFC0FFF80
7FFC0FFF80
7FFC0FFF80
7FFC1FFF80
7FFE3FFF80
7FFFFFFF80
7FFFFFFF80
7FFFFFFF80
3FFFFFFF80
3FFFFFFF80
1FFFFFFF80
1FFFEFFF80
0FFFCFFF80
07FF8FFF80
01FF0FFF80
00000FFF80
00001FFF80
08001FFF80
1E003FFF80
1FC0FFFF00
3FFFFFFF00
3FFFFFFE00
7FFFFFFE00
FFFFFFFC00
FFFFFFF800
7FFFFFF000
3FFFFFE000
0FFFFF8000
00FFF80000
ENDCHAR
STARTCHAR Hcircumflex
ENCODING 292
SWIDTH 499 0
DWIDTH 37 0
BBX 32 84 3 0
BITMAP
00FFFF00
01FFFF00
01FFFF80
03FFFF80
03FFFFC0
07FEFFC0
0FFEFFE0
0FFE7FF0
1FFE7FF0
1FFC7FF8
3FFC3FF8
3FFC3FFC
7FF83FFE
FFF83FFE
FFF81FFF
00000000
00000000
00000000
00000000
FFF81FFF
FFF81FFF
FFF81FFF
FFF81FFF
FFF81FFF
FFF81FFF
FFF81FFF
FFF81FFF
FFF81FFF
FFF81FFF
FFF81FFF
FFF81FFF
FFF81FFF
FFF81FFF
FFF81FFF
FFF81FFF
FFF81FFF
FFF81FFF
FFF81FFF
FFF81FFF
FFF81FFF
FFF81FFF
FFF81FFF
FFFFFFFF
FFFFFFFF
FFFFFFFF
FFFFFFFF
FFFFFFFF
FFFFFFFF
FFFFFFFF
FFFFFFFF
FFFFFFFF
FFFFFFFF
FFFFFFFF
FFFFFFFF
FFF81FFF
FFF81FFF
FFF81FFF
FFF81FFF
FFF81FFF
FFF81FFF
FFF81FFF
FFF81FFF
FFF81FFF
FFF81FFF
FFF81FFF
FFF81FFF
FFF81FFF
FFF81FFF
FFF81FFF
FFF81FFF
FFF81FFF
FFF81FFF
FFF81FFF
FFF81FFF
FFF81FFF
FFF81FFF
FFF81FFF
FFF81FFF
FFF81FFF
FFF81FFF
FFF81FFF
FFF81FFF
FFF81FFF
FFF81FFF
ENDCHAR
STARTCHAR hcircumflex
ENCODING 293
SWIDTH 505 0
DWIDTH 38 0
BBX 41 84 -6 0
BITMAP
00FFFF000000
01FFFF000000
01FFFF800000
03FFFF800000
03FFFFC00000
07FEFFC00000
0FFEFFE00000
0FFE7FF00000
1FFE7FF00000
1FFC7FF80000
3FFC3FF80000
3FFC3FFC0000
7FF83FFE0000
FFF83FFE0000
FFF81FFF0000
000000000000
000000000000
000000000000
000000000000
007FFC000000
007FFC000000
007FFC000000
007FFC000000
007FFC000000
007FFC000000
007FFC000000
007FFC000000
007FFC000000
007FFC020000
007FFC3FE000
007FFC7FF800
007FFCFFFC00
007FFDFFFE00
007FFDFFFF00
007FFFFFFF00
007FFFFFFF00
007FFFFFFF80
007FFFFFFF80
007FFFFFFF80
007FFE1FFF80
007FFE0FFF80
007FFC0FFF80
007FFC0FFF80
007FFC0FFF80
007FFC0FFF80
007FFC0FFF80
007FFC0FFF80
007FFC0FFF80
007FFC0FFF80
007FFC0FFF80
007FFC0FFF80
007FFC0FFF80
007FFC0FFF80
007FFC0FFF80
007FFC0FFF80
007FFC0FFF80
007FFC0FFF80
007FFC0FFF80
007FFC0FFF80
007FFC0FFF80
007FFC0FFF80
007FFC0FFF80
007FFC0FFF80
007FFC0FFF80
007FFC0FFF80
007FFC0FFF80
007FFC0FFF80
007FFC0FFF80
007FFC0FFF80
007FFC0FFF80
007FFC0FFF80
007FFC0FFF80
007FFC0FFF80
007FFC0FFF80
007FFC0FFF80
007FFC0FFF80
007FFC0FFF80
007FFC0FFF80
007FFC0FFF80
007FFC0FFF80
007FFC0FFF80
007FFC0FFF80
007FFC0FFF80
007FFC0FFF80
ENDCHAR
STARTCHAR Hbar
ENCODING 294
SWIDTH 483 0
DWIDTH 36 0
BBX 39 65 -1 0
BITMAP
0FFF81FFF0
0FFF81FFF0
0FFF81FFF0
0FFF81FFF0
0FFF81FFF0
0FFF81FFF0
0FFF81FFF0
0FFF81FFF0
0FFF81FFF0
0FFF81FFF0
FFFFFFFFFE
FFFFFFFFFE
FFFFFFFFFE
FFFFFFFFFE
FFFFFFFFFE
FFFFFFFFFE
0FFF81FFF0
0FFF81FFF0
0FFF81FFF0
0FFF81FFF0
0FFF81FFF0
0FFF81FFF0
0FFF81FFF0
0FFFFFFFF0
0FFFFFFFF0
0FFFFFFFF0
0FFFFFFFF0
0FFFFFFFF0
0FFFFFFFF0
0FFFFFFFF0
0FFFFFFFF0
0FFFFFFFF0
0FFFFFFFF0
0FFFFFFFF0
0FFFFFFFF0
0FFF81FFF0
0FFF81FFF0
0FFF81FFF0
0FFF81FFF0
0FFF81FFF0
0FFF81FFF0
0FFF81FFF0
0FFF81FFF0
0FFF81FFF0
0FFF81FFF0
0FFF81FFF0
0FFF81FFF0
0FFF81FFF0
0FFF81FFF0
0FFF81FFF0
0FFF81FFF0
0FFF81FFF0
0FFF81FFF0
0FFF81FFF0
0FFF81FFF0
0FFF81FFF0
0FFF81FFF0
0FFF81FFF0
0FFF81FFF0
0FFF81FFF0
0FFF81FFF0
0FFF81FFF0
0FFF81FFF0
0FFF81FFF0
0FFF81FFF0
ENDCHAR
STARTCHAR hbar
ENCODING 295
SWIDTH 505 0
DWIDTH 38 0
BBX 38 65 -3 0
BITMAP
03FFE00000
03FFE00000
03FFE00000
FFFFFF0000
FFFFFF0000
FFFFFF0000
FFFFFF0000
FFFFFF0000
FFFFFF0000
03FFE01000
03FFE1FF00
03FFE7FFC0
03FFEFFFE0
03FFEFFFF0
03FFFFFFF8
03FFFFFFF8
03FFFFFFF8
03FFFFFFFC
03FFFFFFFC
03FFF8FFFC
03FFF07FFC
03FFE07FFC
03FFE07FFC
03FFE07FFC
03FFE07FFC
03FFE07FFC
03FFE07FFC
03FFE07FFC
03FFE07FFC
03FFE07FFC
03FFE07FFC
03FFE07FFC
03FFE07FFC
03FFE07FFC
03FFE07FFC
03FFE07FFC
03FFE07FFC
03FFE07FFC
03FFE07FFC
03FFE07FFC
03FFE07FFC
03FFE07FFC
03FFE07FFC
03FFE07FFC
03FFE07FFC
03FFE07FFC
03FFE07FFC
03FFE07FFC
03FFE07FFC
03FFE07FFC
03FFE07FFC
03FFE07FFC
03FFE07FFC
03FFE07FFC
03FFE07FFC
03FFE07FFC
03FFE07FFC
03FFE07FFC
03FFE07FFC
03FFE07FFC
03FFE07FFC
03FFE07FFC
03FFE07FFC
03FFE07FFC
03FFE07FFC
ENDCHAR
STARTCHAR Itilde
ENCODING 296
SWIDTH 227 0
DWIDTH 17 0
BBX 31 82 -7 0
BITMAP
03F80080
0FFF00F0
1FFFE1FE
1FFFFFFC
3FFFFFFC
3FFFFFF8
7FFFFFF8
7FFFFFF0
FFFFFFF0
3E0FFFE0
0C03FFC0
00007F00
00000000
00000000
00000000
00000000
00000000
007FFC00
007FFC00
007FFC00
007FFC00
007FFC00
007FFC00
007FFC00
007FFC00
007FFC00
007FFC00
007FFC00
007FFC00
007FFC00
007FFC00
007FFC00
007FFC00
007FFC00
007FFC00
007FFC00
007FFC00
007FFC00
007FFC00
007FFC00
007FFC00
007FFC00
007FFC00
007FFC00
007FFC00
007FFC00
007FFC00
007FFC00
007FFC00
007FFC00
007FFC00
007FFC00
007FFC00
007FFC00
007FFC00
007FFC00
007FFC00
007FFC00
007FFC00
007FFC00
007FFC00
007FFC00
007FFC00
007FFC00
007FFC00
007FFC00
007FFC00
007FFC00
007FFC00
007FFC00
007FFC00
007FFC00
007FFC00
007FFC00
007FFC00
007FFC00
007FFC00
007FFC00
007FFC00
007FFC00
007FFC00
007FFC00
ENDCHAR
STARTCHAR itilde
ENCODING 297
SWIDTH 235 0
DWIDTH 18 0
BBX 30 72 -6 0
BITMAP
03F00080
0FFF01F0
1FFFC3FC
3FFFFFFC
3FFFFFF8
7FFFFFF8
7FFFFFF0
FFFFFFF0
FFFFFFE0
3E1FFFC0
0C03FF80
00007F00
00000000
00000000
00000000
00000000
00000000
00FFF800
00FFF800
00FFF800
00FFF800
00FFF800
00FFF800
00FFF800
00FFF800
00FFF800
00FFF800
00FFF800
00FFF800
00FFF800
00FFF800
00FFF800
00FFF800
00FFF800
00FFF800
00FFF800
00FFF800
00FFF800
00FFF800
00FFF800
00FFF800
00FFF800
00FFF800
00FFF800
00FFF800
00FFF800
00FFF800
00FFF800
00FFF800
00FFF800
00FFF800
00FFF800
00FFF800
00FFF800
00FFF800
00FFF800
00FFF800
00FFF800
00FFF800
00FFF800
00FFF800
00FFF800
00FFF800
00FFF800
00FFF800
00FFF800
00FFF800
00FFF800
00FFF800
00FFF800
00FFF800
00FFF800
ENDCHAR
STARTCHAR Imacron
ENCODING 298
SWIDTH 227 0
DWIDTH 17 0
BBX 24 76 -4 0
BITMAP
FFFFFF
FFFFFF
FFFFFF
FFFFFF
FFFFFF
FFFFFF
000000
000000
000000
000000
000000
03FFE0
03FFE0
03FFE0
03FFE0
03FFE0
03FFE0
03FFE0
03FFE0
03FFE0
03FFE0
03FFE0
03FFE0
03FFE0
03FFE0
03FFE0
03FFE0
03FFE0
03FFE0
03FFE0
03FFE0
03FFE0
03FFE0
03FFE0
03FFE0
03FFE0
03FFE0
03FFE0
03FFE0
03FFE0
03FFE0
03FFE0
03FFE0
03FFE0
03FFE0
03FFE0
03FFE0
03FFE0
03FFE0
03FFE0
03FFE0
03FFE0
03FFE0
03FFE0
03FFE0
03FFE0
03FFE0
03FFE0
03FFE0
03FFE0
03FFE0
03FFE0
03FFE0
03FFE0
03FFE0
03FFE0
03FFE0
03FFE0
03FFE0
03FFE0
03FFE0
03FFE0
03FFE0
03FFE0
03FFE0
03FFE0
ENDCHAR
STARTCHAR imacron
ENCODING 299
SWIDTH 235 0
DWIDTH 18 0
BBX 24 66 -3 0
BITMAP
FFFFFF
FFFFFF
FFFFFF
FFFFFF
FFFFFF
FFFFFF
000000
000000
000000
000000
000000
07FFC0
07FFC0
07FFC0
07FFC0
07FFC0
07FFC0
07FFC0
07FFC0
07FFC0
07FFC0
07FFC0
07FFC0
07FFC0
07FFC0
07FFC0
07FFC0
07FFC0
07FFC0
07FFC0
07FFC0
07FFC0
07FFC0
07FFC0
07FFC0
07FFC0
07FFC0
07FFC0
07FFC0
07FFC0
07FFC0
07FFC0
07FFC0
07FFC0
07FFC0
07FFC0
07FFC0
07FFC0
07FFC0
07FFC0
07FFC0
07FFC0
07FFC0
07FFC0
07FFC0
07FFC0
07FFC0
07FFC0
07FFC0
07FFC0
07FFC0
07FFC0
07FFC0
07FFC0
07FFC0
07FFC0
ENDCHAR
STARTCHAR Ibreve
ENCODING 300
SWIDTH 227 0
DWIDTH 17 0
BBX 29 82 -6 0
BITMAP
FFC01FF8
FFC01FF8
FFC01FF8
FFE07FF8
FFFFFFF8
7FFFFFF0
7FFFFFF0
7FFFFFE0
3FFFFFE0
1FFFFFC0
0FFFFF80
03FFFE00
007FF000
00000000
00000000
00000000
00000000
00FFF800
00FFF800
00FFF800
00FFF800
00FFF800
00FFF800
00FFF800
00FFF800
00FFF800
00FFF800
00FFF800
00FFF800
00FFF800
00FFF800
00FFF800
00FFF800
00FFF800
00FFF800
00FFF800
00FFF800
00FFF800
00FFF800
00FFF800
00FFF800
00FFF800
00FFF800
00FFF800
00FFF800
00FFF800
00FFF800
00FFF800
00FFF800
00FFF800
00FFF800
00FFF800
00FFF800
00FFF800
00FFF800
00FFF800
00FFF800
00FFF800
00FFF800
00FFF800
00FFF800
00FFF800
00FFF800
00FFF800
00FFF800
00FFF800
00FFF800
00FFF800
00FFF800
00FFF800
00FFF800
00FFF800
00FFF800
00FFF800
00FFF800
00FFF800
00FFF800
00FFF800
00FFF800
00FFF800
00FFF800
00FFF800
ENDCHAR
STARTCHAR ibreve
ENCODING 301
SWIDTH 235 0
DWIDTH 18 0
BBX 28 72 -5 0
BITMAP
FF801FF0
FF801FF0
FFC03FF0
FFE07FF0
FFFFFFF0
FFFFFFF0
7FFFFFE0
7FFFFFE0
3FFFFFC0
1FFFFF80
0FFFFF00
03FFFC00
007FE000
00000000
00000000
00000000
00000000
01FFF000
01FFF000
01FFF000
01FFF000
01FFF000
01FFF000
01FFF000
01FFF000
01FFF000
01FFF000
01FFF000
01FFF000
01FFF000
01FFF000
01FFF000
01FFF000
01FFF000
01FFF000
01FFF000
01FFF000
01FFF000
01FFF000
01FFF000
01FFF000
01FFF000
01FFF000
01FFF000
01FFF000
01FFF000
01FFF000
01FFF000
01FFF000
01FFF000
01FFF000
01FFF000
01FFF000
01FFF000
01FFF000
01FFF000
01FFF000
01FFF000
01FFF000
01FFF000
01FFF000
01FFF000
01FFF000
01FFF000
01FFF000
01FFF000
01FFF000
01FFF000
01FFF000
01FFF000
01FFF000
01FFF000
ENDCHAR
STARTCHAR Iogonek
ENCODING 302
SWIDTH 227 0
DWIDTH 17 0
BBX 20 88 -3 -23
BITMAP
07FFC0
07FFC0
07FFC0
07FFC0
07FFC0
07FFC0
07FFC0
07FFC0
07FFC0
07FFC0
07FFC0
07FFC0
07FFC0
07FFC0
07FFC0
07FFC0
07FFC0
07FFC0
07FFC0
07FFC0
07FFC0
07FFC0
07FFC0
07FFC0
07FFC0
07FFC0
07FFC0
07FFC0
07FFC0
07FFC0
07FFC0
07FFC0
07FFC0
07FFC0
07FFC0
07FFC0
07FFC0
07FFC0
07FFC0
07FFC0
07FFC0
07FFC0
07FFC0
07FFC0
07FFC0
07FFC0
07FFC0
07FFC0
07FFC0
07FFC0
07FFC0
07FFC0
07FFC0
07FFC0
07FFC0
07FFC0
07FFC0
07FFC0
07FFC0
07FFC0
07FFC0
07FFC0
07FFC0
07FFC0
07FFC0
00FF80
01FF00
03FE00
0FFC00
1FFC00
1FF800
3FF800
7FF000
7FF000
7FF000
FFF000
FFF000
FFF800
FFFC10
7FFFF0
7FFFF0
7FFFF0
3FFFF0
1FFFF0
1FFFF0
07FFF0
03FFF0
007F80
ENDCHAR
STARTCHAR iogonek
ENCODING 303
SWIDTH 244 0
DWIDTH 18 0
BBX 20 91 -2 -23
BITMAP
07FFC0
07FFC0
07FFC0
07FFC0
07FFC0
07FFC0
07FFC0
07FFC0
07FFC0
000000
000000
000000
000000
07FFC0
07FFC0
07FFC0
07FFC0
07FFC0
07FFC0
07FFC0
07FFC0
07FFC0
07FFC0
07FFC0
07FFC0
07FFC0
07FFC0
07FFC0
07FFC0
07FFC0
07FFC0
07FFC0
07FFC0
07FFC0
07FFC0
07FFC0
07FFC0
07FFC0
07FFC0
07FFC0
07FFC0
07FFC0
07FFC0
07FFC0
07FFC0
07FFC0
07FFC0
07FFC0
07FFC0
07FFC0
07FFC0
07FFC0
07FFC0
07FFC0
07FFC0
07FFC0
07FFC0
07FFC0
07FFC0
07FFC0
07FFC0
07FFC0
07FFC0
07FFC0
07FFC0
07FFC0
07FFC0
07FFC0
00FF80
01FF00
07FE00
0FFC00
1FFC00
1FF800
3FF800
7FF000
7FF000
7FF000
FFF000
FFF000
FFF800
FFFC10
7FFFF0
7FFFF0
7FFFF0
3FFFF0
1FFFF0
1FFFF0
07FFF0
03FFF0
007F80
ENDCHAR
STARTCHAR Idotaccent
ENCODING 304
SWIDTH 227 0
DWIDTH 17 0
BBX 14 80 1 0
BITMAP
FFFC
FFFC
FFFC
FFFC
FFFC
FFFC
FFFC
FFFC
FFFC
FFFC
FFFC
0000
0000
0000
0000
7FFC
7FFC
7FFC
7FFC
7FFC
7FFC
7FFC
7FFC
7FFC
7FFC
7FFC
7FFC
7FFC
7FFC
7FFC
7FFC
7FFC
7FFC
7FFC
7FFC
7FFC
7FFC
7FFC
7FFC
7FFC
7FFC
7FFC
7FFC
7FFC
7FFC
7FFC
7FFC
7FFC
7FFC
7FFC
7FFC
7FFC
7FFC
7FFC
7FFC
7FFC
7FFC
7FFC
7FFC
7FFC
7FFC
7FFC
7FFC
7FFC
7FFC
7FFC
7FFC
7FFC
7FFC
7FFC
7FFC
7FFC
7FFC
7FFC
7FFC
7FFC
7FFC
7FFC
7FFC
7FFC
ENDCHAR
STARTCHAR dotlessi
ENCODING 305
SWIDTH 235 0
DWIDTH 18 0
BBX 13 55 2 0
BITMAP
FFF8
FFF8
FFF8
FFF8
FFF8
FFF8
FFF8
FFF8
FFF8
FFF8
FFF8
FFF8
FFF8
FFF8
FFF8
FFF8
FFF8
FFF8
FFF8
FFF8
FFF8
FFF8
FFF8
FFF8
FFF8
FFF8
FFF8
FFF8
FFF8
FFF8
FFF8
FFF8
FFF8
FFF8
FFF8
FFF8
FFF8
FFF8
FFF8
FFF8
FFF8
FFF8
FFF8
FFF8
FFF8
FFF8
FFF8
FFF8
FFF8
FFF8
FFF8
FFF8
FFF8
FFF8
FFF8
ENDCHAR
STARTCHAR IJ
ENCODING 306
SWIDTH 693 0
DWIDTH 52 0
BBX 48 65 2 0
BITMAP
FFF800001FFF
FFF800001FFF
FFF800001FFF
FFF800001FFF
FFF800001FFF
FFF800001FFF
FFF800001FFF
FFF800001FFF
FFF800001FFF
FFF800001FFF
FFF800001FFF
FFF800001FFF
FFF800001FFF
FFF800001FFF
FFF800001FFF
FFF800001FFF
FFF800001FFF
FFF800001FFF
FFF800001FFF
FFF800001FFF
FFF800001FFF
FFF800001FFF
FFF800001FFF
FFF800001FFF
FFF800001FFF
FFF800001FFF
FFF800001FFF
FFF800001FFF
FFF800001FFF
FFF800001FFF
FFF800001FFF
FFF800001FFF
FFF800001FFF
FFF800001FFF
FFF8FFF81FFF
FFF8FFF81FFF
FFF8FFF81FFF
FFF8FFF81FFF
FFF8FFF81FFF
FFF8FFF81FFF
FFF8FFF81FFF
FFF8FFF81FFF
FFF8FFF81FFF
FFF8FFF81FFF
FFF8FFF81FFF
FFF8FFF81FFF
FFF8FFF81FFF
FFF8FFF81FFF
FFF8FFF81FFF
FFF8FFF81FFF
FFF8FFF81FFF
FFF8FFF81FFF
FFF87FFC3FFF
FFF87FFFFFFE
FFF87FFFFFFE
FFF87FFFFFFE
FFF87FFFFFFC
FFF83FFFFFFC
FFF83FFFFFF8
FFF81FFFFFF8
FFF80FFFFFF0
FFF807FFFFE0
FFF803FFFFC0
FFF800FFFF00
FFF8003FFC00
ENDCHAR
STARTCHAR ij
ENCODING 307
SWIDTH 506 0
DWIDTH 38 0
BBX 32 75 3 -7
BITMAP
FFF81FFF
FFF81FFF
FFF81FFF
FFF81FFF
FFF81FFF
FFF81FFF
FFF81FFF
FFF81FFF
FFF81FFF
00000000
00000000
00000000
00000000
FFF81FFF
FFF81FFF
FFF81FFF
FFF81FFF
FFF81FFF
FFF81FFF
FFF81FFF
FFF81FFF
FFF81FFF
FFF81FFF
FFF81FFF
FFF81FFF
FFF81FFF
FFF81FFF
FFF81FFF
FFF81FFF
FFF81FFF
FFF81FFF
FFF81FFF
FFF81FFF
FFF81FFF
FFF81FFF
FFF81FFF
FFF81FFF
FFF81FFF
FFF81FFF
FFF81FFF
FFF81FFF
FFF81FFF
FFF81FFF
FFF81FFF
FFF81FFF
FFF81FFF
FFF81FFF
FFF81FFF
FFF81FFF
FFF81FFF
FFF81FFF
FFF81FFF
FFF81FFF
FFF81FFF
FFF81FFF
FFF81FFF
FFF81FFF
FFF81FFF
FFF81FFF
FFF81FFF
FFF81FFF
FFF81FFF
FFF81FFF
FFF81FFF
FFF81FFF
FFF8FFFF
FFF8FFFF
FFF8FFFF
0000FFFF
0000FFFE
0000FFFE
0000FFFC
0000FFF8
0000FFF0
00007FC0
ENDCHAR
STARTCHAR Jcircumflex
ENCODING 308
SWIDTH 466 0
DWIDTH 35 0
BBX 42 84 1 0
BITMAP
00003FFFC000
00007FFFC000
00007FFFE000
0000FFFFE000
0000FFFFF000
0001FFBFF000
0003FFBFF800
0003FF9FFC00
0007FF9FFC00
0007FF1FFE00
000FFF0FFE00
000FFF0FFF00
001FFE0FFF80
003FFE0FFF80
003FFE07FFC0
004000000000
000000000000
000000000000
000000000000
00001FFF0000
00001FFF0000
00001FFF0000
00001FFF0000
00001FFF0000
00001FFF0000
00001FFF0000
00001FFF0000
00001FFF0000
00001FFF0000
00001FFF0000
00001FFF0000
00001FFF0000
00001FFF0000
00001FFF0000
00001FFF0000
00001FFF0000
00001FFF0000
00001FFF0000
00001FFF0000
00001FFF0000
00001FFF0000
00001FFF0000
00001FFF0000
00001FFF0000
00001FFF0000
00001FFF0000
00001FFF0000
00001FFF0000
00001FFF0000
00001FFF0000
00001FFF0000
00001FFF0000
00001FFF0000
FFF81FFF0000
FFF81FFF0000
FFF81FFF0000
FFF81FFF0000
FFF81FFF0000
FFF81FFF0000
FFF81FFF0000
FFF81FFF0000
FFF81FFF0000
FFF81FFF0000
FFF81FFF0000
FFF81FFF0000
FFF81FFF0000
FFF81FFF0000
FFF81FFF0000
FFF81FFF0000
FFF81FFF0000
FFF81FFF0000
7FFC3FFF0000
7FFFFFFE0000
7FFFFFFE0000
7FFFFFFE0000
7FFFFFFC0000
3FFFFFFC0000
3FFFFFF80000
1FFFFFF80000
0FFFFFF00000
07FFFFE00000
03FFFFC00000
00FFFF000000
003FFC000000
ENDCHAR
STARTCHAR jcircumflex
ENCODING 309
SWIDTH 263 0
DWIDTH 20 0
BBX 32 81 -5 -7
BITMAP
00FFFF00
01FFFF00
01FFFF80
03FFFF80
03FFFFC0
07FFFFE0
07FEFFE0
0FFE7FF0
1FFE7FF0
1FFC7FF8
3FFC3FF8
3FFC3FFC
7FF83FFE
FFF81FFE
FFF81FFF
00000000
00000000
00000000
00000000
007FFC00
007FFC00
007FFC00
007FFC00
007FFC00
007FFC00
007FFC00
007FFC00
007FFC00
007FFC00
007FFC00
007FFC00
007FFC00
007FFC00
007FFC00
007FFC00
007FFC00
007FFC00
007FFC00
007FFC00
007FFC00
007FFC00
007FFC00
007FFC00
007FFC00
007FFC00
007FFC00
007FFC00
007FFC00
007FFC00
007FFC00
007FFC00
007FFC00
007FFC00
007FFC00
007FFC00
007FFC00
007FFC00
007FFC00
007FFC00
007FFC00
007FFC00
007FFC00
007FFC00
007FFC00
007FFC00
007FFC00
007FFC00
007FFC00
007FFC00
007FFC00
007FFC00
03FFFC00
03FFFC00
03FFFC00
03FFF800
03FFF800
03FFF800
03FFF000
03FFE000
03FFC000
01FF0000
ENDCHAR
STARTCHAR Kcommaaccent
ENCODING 310
SWIDTH 472 0
DWIDTH 35 0
BBX 33 88 3 -23
BITMAP
FFF83FFF00
FFF83FFE00
FFF83FFE00
FFF83FFE00
FFF83FFC00
FFF87FFC00
FFF87FFC00
FFF87FFC00
FFF87FFC00
FFF8FFF800
FFF8FFF800
FFF8FFF800
FFF8FFF800
FFF9FFF000
FFF9FFF000
FFF9FFF000
FFF9FFF000
FFF9FFE000
FFFBFFE000
FFFBFFE000
FFFBFFE000
FFFBFFC000
FFFFFFC000
FFFFFFC000
FFFFFFC000
FFFFFF8000
FFFFFF8000
FFFFFF8000
FFFFFF8000
FFFFFF0000
FFFFFF8000
FFFFFF8000
FFFFFF8000
FFFFFF8000
FFFFFFC000
FFFFFFC000
FFFFFFC000
FFFBFFC000
FFFBFFE000
FFFBFFE000
FFFBFFE000
FFFBFFE000
FFF9FFF000
FFF9FFF000
FFF9FFF000
FFF9FFF000
FFF8FFF800
FFF8FFF800
FFF8FFF800
FFF8FFF800
FFF8FFF800
FFF87FFC00
FFF87FFC00
FFF87FFC00
FFF87FFC00
FFF83FFE00
FFF83FFE00
FFF83FFE00
FFF83FFE00
FFF83FFF00
FFF81FFF00
FFF81FFF00
FFF81FFF00
FFF81FFF80
FFF80FFF80
0000000000
0000000000
0000000000
0000000000
007FFE0000
007FFE0000
007FFE0000
007FFE0000
007FFE0000
007FFE0000
007FFE0000
007FFE0000
007FFE0000
007FFE0000
007FFE0000
0007FC0000
0007FC0000
0007F80000
000FF80000
000FF00000
000FF00000
000FF00000
001FE00000
ENDCHAR
STARTCHAR kcommaaccent
ENCODING 311
SWIDTH 497 0
DWIDTH 37 0
BBX 35 89 3 -24
BITMAP
FFF8000000
FFF8000000
FFF8000000
FFF8000000
FFF8000000
FFF8000000
FFF8000000
FFF8000000
FFF8000000
FFF8000000
FFF81FFF00
FFF83FFF00
FFF83FFF00
FFF83FFE00
FFF87FFE00
FFF87FFE00
FFF87FFC00
FFF8FFFC00
FFF8FFFC00
FFF8FFF800
FFF9FFF800
FFF9FFF800
FFF9FFF000
FFFBFFF000
FFFBFFF000
FFFBFFE000
FFFFFFE000
FFFFFFE000
FFFFFFC000
FFFFFFC000
FFFFFF8000
FFFFFF8000
FFFFFF8000
FFFFFF0000
FFFFFF0000
FFFFFF8000
FFFFFF8000
FFFFFF8000
FFFFFFC000
FFFFFFC000
FFFFFFC000
FFFFFFE000
FFFBFFE000
FFFBFFE000
FFFBFFF000
FFF9FFF000
FFF9FFF000
FFF9FFF800
FFF8FFF800
FFF8FFF800
FFF8FFFC00
FFF8FFFC00
FFF87FFC00
FFF87FFE00
FFF87FFE00
FFF83FFE00
FFF83FFF00
FFF83FFF00
FFF81FFF80
FFF81FFF80
FFF81FFF80
FFF80FFFC0
FFF80FFFC0
FFF80FFFC0
FFF807FFE0
0000000000
0000000000
0000000000
0000000000
001FFF8000
001FFF8000
001FFF8000
001FFF8000
001FFF8000
001FFF8000
001FFF8000
001FFF8000
001FFF8000
001FFF8000
001FFF8000
0000FF0000
0001FF0000
0001FF0000
0001FE0000
0003FE0000
0003FC0000
0003FC0000
0003FC0000
0007F80000
ENDCHAR
STARTCHAR kgreenlandic
ENCODING 312
SWIDTH 488 0
DWIDTH 37 0
BBX 35 55 2 0
BITMAP
FFF81FFF80
FFF81FFF80
FFF81FFF00
FFF83FFF00
FFF83FFF00
FFF83FFE00
FFF83FFE00
FFF87FFE00
FFF87FFC00
FFF87FFC00
FFF8FFFC00
FFF8FFF800
FFF8FFF800
FFF9FFF800
FFF9FFF000
FFF9FFF000
FFFBFFF000
FFFBFFE000
FFFBFFE000
FFFBFFE000
FFFFFFC000
FFFFFFC000
FFFFFFC000
FFFFFF8000
FFFFFF8000
FFFFFF8000
FFFFFF8000
FFFFFFC000
FFFFFFC000
FFFFFFC000
FFFFFFE000
FFFBFFE000
FFFBFFE000
FFFBFFF000
FFF9FFF000
FFF9FFF000
FFF9FFF800
FFF8FFF800
FFF8FFF800
FFF8FFFC00
FFF87FFC00
FFF87FFE00
FFF87FFE00
FFF83FFE00
FFF83FFF00
FFF83FFF00
FFF81FFF00
FFF81FFF80
FFF81FFF80
FFF80FFF80
FFF80FFFC0
FFF80FFFC0
FFF807FFC0
FFF807FFE0
FFF807FFE0
ENDCHAR
STARTCHAR Lacute
ENCODING 313
SWIDTH 397 0
DWIDTH 30 0
BBX 29 84 0 0
BITMAP
00004000
0001C000
0007C000
001FC000
007FC000
01FFC000
0FFFC000
3FFFC000
FFFFC000
FFFFC000
FFFFC000
FFFFC000
FFFFC000
FFFF0000
FFE00000
FC000000
80000000
00000000
00000000
1FFF0000
1FFF0000
1FFF0000
1FFF0000
1FFF0000
1FFF0000
1FFF0000
1FFF0000
1FFF0000
1FFF0000
1FFF0000
1FFF0000
1FFF0000
1FFF0000
1FFF0000
1FFF0000
1FFF0000
1FFF0000
1FFF0000
1FFF0000
1FFF0000
1FFF0000
1FFF0000
1FFF0000
1FFF0000
1FFF0000
1FFF0000
1FFF0000
1FFF0000
1FFF0000
1FFF0000
1FFF0000
1FFF0000
1FFF0000
1FFF0000
1FFF0000
1FFF0000
1FFF0000
1FFF0000
1FFF0000
1FFF0000
1FFF0000
1FFF0000
1FFF0000
1FFF0000
1FFF0000
1FFF0000
1FFF0000
1FFF0000
1FFF0000
1FFF0000
1FFF0000
1FFF0000
1FFF0000
1FFFFFF8
1FFFFFF8
1FFFFFF8
1FFFFFF8
1FFFFFF8
1FFFFFF8
1FFFFFF8
1FFFFFF8
1FFFFFF8
1FFFFFF8
1FFFFFF8
ENDCHAR
STARTCHAR lacute
ENCODING 314
SWIDTH 248 0
DWIDTH 19 0
BBX 18 84 0 0
BITMAP
000040
0001C0
0007C0
001FC0
007FC0
01FFC0
0FFFC0
3FFFC0
FFFFC0
FFFFC0
FFFFC0
FFFFC0
FFFFC0
FFFF00
FFE000
FC0000
800000
000000
000000
1FFF00
1FFF00
1FFF00
1FFF00
1FFF00
1FFF00
1FFF00
1FFF00
1FFF00
1FFF00
1FFF00
1FFF00
1FFF00
1FFF00
1FFF00
1FFF00
1FFF00
1FFF00
1FFF00
1FFF00
1FFF00
1FFF00
1FFF00
1FFF00
1FFF00
1FFF00
1FFF00
1FFF00
1FFF00
1FFF00
1FFF00
1FFF00
1FFF00
1FFF00
1FFF00
1FFF00
1FFF00
1FFF00
1FFF00
1FFF00
1FFF00
1FFF00
1FFF00
1FFF00
1FFF00
1FFF00
1FFF00
1FFF00
1FFF00
1FFF00
1FFF00
1FFF00
1FFF00
1FFF00
1FFF00
1FFF00
1FFF00
1FFF00
1FFF00
1FFF00
1FFF00
1FFF00
1FFF00
1FFF00
1FFF00
ENDCHAR
STARTCHAR Lcommaaccent
ENCODING 315
SWIDTH 397 0
DWIDTH 30 0
BBX 26 88 3 -23
BITMAP
FFF80000
FFF80000
FFF80000
FFF80000
FFF80000
FFF80000
FFF80000
FFF80000
FFF80000
FFF80000
FFF80000
FFF80000
FFF80000
FFF80000
FFF80000
FFF80000
FFF80000
FFF80000
FFF80000
FFF80000
FFF80000
FFF80000
FFF80000
FFF80000
FFF80000
FFF80000
FFF80000
FFF80000
FFF80000
FFF80000
FFF80000
FFF80000
FFF80000
FFF80000
FFF80000
FFF80000
FFF80000
FFF80000
FFF80000
FFF80000
FFF80000
FFF80000
FFF80000
FFF80000
FFF80000
FFF80000
FFF80000
FFF80000
FFF80000
FFF80000
FFF80000
FFF80000
FFF80000
FFF80000
FFFFFFC0
FFFFFFC0
FFFFFFC0
FFFFFFC0
FFFFFFC0
FFFFFFC0
FFFFFFC0
FFFFFFC0
FFFFFFC0
FFFFFFC0
FFFFFFC0
00000000
00000000
00000000
00000000
03FFE000
03FFE000
03FFE000
03FFE000
03FFE000
03FFE000
03FFE000
03FFE000
03FFE000
03FFE000
03FFE000
003FE000
003FC000
007FC000
007FC000
007F8000
007F8000
00FF0000
00FF0000
ENDCHAR
STARTCHAR lcommaaccent
ENCODING 316
SWIDTH 248 0
DWIDTH 19 0
BBX 14 88 3 -23
BITMAP
FFF8
FFF8
FFF8
FFF8
FFF8
FFF8
FFF8
FFF8
FFF8
FFF8
FFF8
FFF8
FFF8
FFF8
FFF8
FFF8
FFF8
FFF8
FFF8
FFF8
FFF8
FFF8
FFF8
FFF8
FFF8
FFF8
FFF8
FFF8
FFF8
FFF8
FFF8
FFF8
FFF8
FFF8
FFF8
FFF8
FFF8
FFF8
FFF8
FFF8
FFF8
FFF8
FFF8
FFF8
FFF8
FFF8
FFF8
FFF8
FFF8
FFF8
FFF8
FFF8
FFF8
FFF8
FFF8
FFF8
FFF8
FFF8
FFF8
FFF8
FFF8
FFF8
FFF8
FFF8
FFF8
0000
0000
0000
0000
FFFC
FFFC
FFFC
FFFC
FFFC
FFFC
FFFC
FFFC
FFFC
FFFC
FFFC
07FC
07F8
0FF8
0FF0
0FF0
1FF0
1FE0
1FE0
ENDCHAR
STARTCHAR Lcaron
ENCODING 317
SWIDTH 397 0
DWIDTH 30 0
BBX 30 65 3 0
BITMAP
FFF8FFFC
FFF8FFFC
FFF8FFFC
FFF8FFFC
FFF8FFFC
FFF8FFFC
FFF8FFFC
FFF8FFFC
FFF8FFFC
FFF8FFFC
FFF8FFFC
FFF80FF8
FFF80FF8
FFF80FF0
FFF80FF0
FFF81FF0
FFF81FE0
FFF81FE0
FFF83FC0
FFF83FC0
FFF80000
FFF80000
FFF80000
FFF80000
FFF80000
FFF80000
FFF80000
FFF80000
FFF80000
FFF80000
FFF80000
FFF80000
FFF80000
FFF80000
FFF80000
FFF80000
FFF80000
FFF80000
FFF80000
FFF80000
FFF80000
FFF80000
FFF80000
FFF80000
FFF80000
FFF80000
FFF80000
FFF80000
FFF80000
FFF80000
FFF80000
FFF80000
FFF80000
FFF80000
FFFFFFC0
FFFFFFC0
FFFFFFC0
FFFFFFC0
FFFFFFC0
FFFFFFC0
FFFFFFC0
FFFFFFC0
FFFFFFC0
FFFFFFC0
FFFFFFC0
ENDCHAR
STARTCHAR lcaron
ENCODING 318
SWIDTH 248 0
DWIDTH 19 0
BBX 32 65 3 0
BITMAP
FFF83FFF
FFF83FFF
FFF83FFF
FFF83FFF
FFF83FFF
FFF83FFF
FFF83FFF
FFF83FFF
FFF83FFF
FFF83FFF
FFF83FFF
FFF801FE
FFF803FE
FFF803FE
FFF803FC
FFF803FC
FFF807F8
FFF807F8
FFF807F8
FFF80FF0
FFF80000
FFF80000
FFF80000
FFF80000
FFF80000
FFF80000
FFF80000
FFF80000
FFF80000
FFF80000
FFF80000
FFF80000
FFF80000
FFF80000
FFF80000
FFF80000
FFF80000
FFF80000
FFF80000
FFF80000
FFF80000
FFF80000
FFF80000
FFF80000
FFF80000
FFF80000
FFF80000
FFF80000
FFF80000
FFF80000
FFF80000
FFF80000
FFF80000
FFF80000
FFF80000
FFF80000
FFF80000
FFF80000
FFF80000
FFF80000
FFF80000
FFF80000
FFF80000
FFF80000
FFF80000
ENDCHAR
STARTCHAR Ldot
ENCODING 319
SWIDTH 451 0
DWIDTH 34 0
BBX 29 65 3 0
BITMAP
FFF80000
FFF80000
FFF80000
FFF80000
FFF80000
FFF80000
FFF80000
FFF80000
FFF80000
FFF80000
FFF80000
FFF80000
FFF80000
FFF80000
FFF80000
FFF80000
FFF80000
FFF80000
FFF80000
FFF80000
FFF80000
FFF80000
FFF80000
FFF80000
FFF80000
FFF87FF8
FFF87FF8
FFF87FF8
FFF87FF8
FFF87FF8
FFF87FF8
FFF87FF8
FFF87FF8
FFF87FF8
FFF87FF8
FFF87FF8
FFF87FF8
FFF80000
FFF80000
FFF80000
FFF80000
FFF80000
FFF80000
FFF80000
FFF80000
FFF80000
FFF80000
FFF80000
FFF80000
FFF80000
FFF80000
FFF80000
FFF80000
FFF80000
FFFFFFC0
FFFFFFC0
FFFFFFC0
FFFFFFC0
FFFFFFC0
FFFFFFC0
FFFFFFC0
FFFFFFC0
FFFFFFC0
FFFFFFC0
FFFFFFC0
ENDCHAR
STARTCHAR ldot
ENCODING 320
SWIDTH 438 0
DWIDTH 33 0
BBX 29 65 3 0
BITMAP
FFF80000
FFF80000
FFF80000
FFF80000
FFF80000
FFF80000
FFF80000
FFF80000
FFF80000
FFF80000
FFF80000
FFF80000
FFF80000
FFF80000
FFF80000
FFF80000
FFF80000
FFF80000
FFF80000
FFF80000
FFF80000
FFF80000
FFF80000
FFF87FF8
FFF87FF8
FFF87FF8
FFF87FF8
FFF87FF8
FFF87FF8
FFF87FF8
FFF87FF8
FFF87FF8
FFF87FF8
FFF87FF8
FFF87FF8
FFF80000
FFF80000
FFF80000
FFF80000
FFF80000
FFF80000
FFF80000
FFF80000
FFF80000
FFF80000
FFF80000
FFF80000
FFF80000
FFF80000
FFF80000
FFF80000
FFF80000
FFF80000
FFF80000
FFF80000
FFF80000
FFF80000
FFF80000
FFF80000
FFF80000
FFF80000
FFF80000
FFF80000
FFF80000
FFF80000
ENDCHAR
STARTCHAR Lslash
ENCODING 321
SWIDTH 417 0
DWIDTH 31 0
BBX 29 65 0 0
BITMAP
1FFF0000
1FFF0000
1FFF0000
1FFF0000
1FFF0000
1FFF0000
1FFF0000
1FFF0000
1FFF0000
1FFF0000
1FFF0000
1FFF0000
1FFF0000
1FFF0000
1FFF0000
1FFF0000
1FFF0000
1FFF0100
1FFF0600
1FFF3E00
1FFFFE00
1FFFFE00
1FFFFE00
1FFFFE00
1FFFFE00
1FFFFE00
3FFFFE00
FFFFFE00
FFFFFE00
FFFFFE00
FFFFFC00
FFFFF000
FFFFC000
FFFF0000
FFFF0000
FFFF0000
FFFF0000
FFFF0000
FFFF0000
9FFF0000
1FFF0000
1FFF0000
1FFF0000
1FFF0000
1FFF0000
1FFF0000
1FFF0000
1FFF0000
1FFF0000
1FFF0000
1FFF0000
1FFF0000
1FFF0000
1FFF0000
1FFFFFF8
1FFFFFF8
1FFFFFF8
1FFFFFF8
1FFFFFF8
1FFFFFF8
1FFFFFF8
1FFFFFF8
1FFFFFF8
1FFFFFF8
1FFFFFF8
ENDCHAR
STARTCHAR lslash
ENCODING 322
SWIDTH 288 0
DWIDTH 22 0
BBX 22 65 0 0
BITMAP
0FFF80
0FFF80
0FFF80
0FFF80
0FFF80
0FFF80
0FFF80
0FFF80
0FFF80
0FFF80
0FFF80
0FFF80
0FFF80
0FFF80
0FFF80
0FFF80
0FFF80
0FFF80
0FFF80
0FFF80
0FFF80
0FFF80
0FFF80
0FFF84
0FFF9C
0FFFFC
0FFFFC
0FFFFC
0FFFFC
0FFFFC
1FFFFC
7FFFFC
FFFFFC
FFFFFC
FFFFF8
FFFFC0
FFFF80
FFFF80
FFFF80
FFFF80
FFFF80
EFFF80
8FFF80
0FFF80
0FFF80
0FFF80
0FFF80
0FFF80
0FFF80
0FFF80
0FFF80
0FFF80
0FFF80
0FFF80
0FFF80
0FFF80
0FFF80
0FFF80
0FFF80
0FFF80
0FFF80
0FFF80
0FFF80
0FFF80
0FFF80
ENDCHAR
STARTCHAR Nacute
ENCODING 323
SWIDTH 498 0
DWIDTH 37 0
BBX 32 84 3 0
BITMAP
00000080
00000380
00000F80
00003F80
0000FF80
0003FF80
001FFF80
007FFF80
01FFFF80
01FFFF80
01FFFF80
01FFFF80
01FFFF80
01FFFE00
01FFC000
01F80000
01000000
00000000
00000000
FFF81FFF
FFF81FFF
FFFC1FFF
FFFC1FFF
FFFC1FFF
FFFC1FFF
FFFC1FFF
FFFE1FFF
FFFE1FFF
FFFE1FFF
FFFE1FFF
FFFE1FFF
FFFF1FFF
FFFF1FFF
FFFF1FFF
FFFF1FFF
FFFF1FFF
FFFF1FFF
FFFF9FFF
FFFF9FFF
FFFF9FFF
FFFF9FFF
FFFF9FFF
FFFFDFFF
FFFFDFFF
FFFFDFFF
FFFFDFFF
FFFFDFFF
FFFFFFFF
FFFFFFFF
FFFFFFFF
FFFFFFFF
FFFFFFFF
FFF7FFFF
FFF7FFFF
FFF7FFFF
FFF7FFFF
FFF7FFFF
FFF3FFFF
FFF3FFFF
FFF3FFFF
FFF3FFFF
FFF3FFFF
FFF1FFFF
FFF1FFFF
FFF1FFFF
FFF1FFFF
FFF1FFFF
FFF0FFFF
FFF0FFFF
FFF0FFFF
FFF0FFFF
FFF0FFFF
FFF07FFF
FFF07FFF
FFF07FFF
FFF07FFF
FFF07FFF
FFF03FFF
FFF03FFF
FFF03FFF
FFF03FFF
FFF03FFF
FFF01FFF
FFF01FFF
ENDCHAR
STARTCHAR nacute
ENCODING 324
SWIDTH 499 0
DWIDTH 37 0
BBX 32 74 3 0
BITMAP
00000080
00000300
00000F00
00007F00
0001FF00
0007FF00
001FFF00
007FFF00
01FFFF00
01FFFF00
01FFFF00
01FFFF00
01FFFF00
01FFFE00
01FFC000
01F80000
01000000
00000000
00000800
FFF87FC0
FFF8FFF0
FFF9FFF8
FFFBFFFC
FFFBFFFC
FFFFFFFE
FFFFFFFE
FFFFFFFE
FFFFFFFF
FFFFFFFF
FFFC3FFF
FFF81FFF
FFF81FFF
FFF81FFF
FFF81FFF
FFF81FFF
FFF81FFF
FFF81FFF
FFF81FFF
FFF81FFF
FFF81FFF
FFF81FFF
FFF81FFF
FFF81FFF
FFF81FFF
FFF81FFF
FFF81FFF
FFF81FFF
FFF81FFF
FFF81FFF
FFF81FFF
FFF81FFF
FFF81FFF
FFF81FFF
FFF81FFF
FFF81FFF
FFF81FFF
FFF81FFF
FFF81FFF
FFF81FFF
FFF81FFF
FFF81FFF
FFF81FFF
FFF81FFF
FFF81FFF
FFF81FFF
FFF81FFF
FFF81FFF
FFF81FFF
FFF81FFF
FFF81FFF
FFF81FFF
FFF81FFF
FFF81FFF
FFF81FFF
ENDCHAR
STARTCHAR Ncommaaccent
ENCODING 325
SWIDTH 498 0
DWIDTH 37 0
BBX 32 88 3 -23
BITMAP
FFF81FFF
FFF81FFF
FFFC1FFF
FFFC1FFF
FFFC1FFF
FFFC1FFF
FFFC1FFF
FFFE1FFF
FFFE1FFF
FFFE1FFF
FFFE1FFF
FFFE1FFF
FFFF1FFF
FFFF1FFF
FFFF1FFF
FFFF1FFF
FFFF1FFF
FFFF1FFF
FFFF9FFF
FFFF9FFF
FFFF9FFF
FFFF9FFF
FFFF9FFF
FFFFDFFF
FFFFDFFF
FFFFDFFF
FFFFDFFF
FFFFDFFF
FFFFFFFF
FFFFFFFF
FFFFFFFF
FFFFFFFF
FFFFFFFF
FFF7FFFF
FFF7FFFF
FFF7FFFF
FFF7FFFF
FFF7FFFF
FFF3FFFF
FFF3FFFF
FFF3FFFF
FFF3FFFF
FFF3FFFF
FFF1FFFF
FFF1FFFF
FFF1FFFF
FFF1FFFF
FFF1FFFF
FFF0FFFF
FFF0FFFF
FFF0FFFF
FFF0FFFF
FFF0FFFF
FFF07FFF
FFF07FFF
FFF07FFF
FFF07FFF
FFF07FFF
FFF03FFF
FFF03FFF
FFF03FFF
FFF03FFF
FFF03FFF
FFF01FFF
FFF01FFF
00000000
00000000
00000000
00000000
00FFFC00
00FFFC00
00FFFC00
00FFFC00
00FFFC00
00FFFC00
00FFFC00
00FFFC00
00FFFC00
00FFFC00
00FFFC00
0007F800
000FF800
000FF800
000FF000
000FF000
001FE000
001FE000
003FE000
ENDCHAR
STARTCHAR ncommaaccent
ENCODING 326
SWIDTH 499 0
DWIDTH 37 0
BBX 32 79 3 -23
BITMAP
00000800
FFF87FC0
FFF8FFF0
FFF9FFF8
FFFBFFFC
FFFBFFFC
FFFFFFFE
FFFFFFFE
FFFFFFFE
FFFFFFFF
FFFFFFFF
FFFC3FFF
FFF81FFF
FFF81FFF
FFF81FFF
FFF81FFF
FFF81FFF
FFF81FFF
FFF81FFF
FFF81FFF
FFF81FFF
FFF81FFF
FFF81FFF
FFF81FFF
FFF81FFF
FFF81FFF
FFF81FFF
FFF81FFF
FFF81FFF
FFF81FFF
FFF81FFF
FFF81FFF
FFF81FFF
FFF81FFF
FFF81FFF
FFF81FFF
FFF81FFF
FFF81FFF
FFF81FFF
FFF81FFF
FFF81FFF
FFF81FFF
FFF81FFF
FFF81FFF
FFF81FFF
FFF81FFF
FFF81FFF
FFF81FFF
FFF81FFF
FFF81FFF
FFF81FFF
FFF81FFF
FFF81FFF
FFF81FFF
FFF81FFF
FFF81FFF
00000000
00000000
00000000
00000000
007FFC00
007FFC00
007FFC00
007FFC00
007FFC00
007FFC00
007FFC00
007FFC00
007FFC00
007FFC00
007FFC00
0007FC00
0007FC00
0007F800
000FF800
000FF000
000FF000
001FE000
001FE000
ENDCHAR
STARTCHAR Ncaron
ENCODING 327
SWIDTH 498 0
DWIDTH 37 0
BBX 33 84 3 0
BITMAP
FFFC0FFF80
7FFC1FFF00
3FFC1FFF00
1FFE1FFE00
1FFE1FFC00
0FFE3FFC00
0FFF3FF800
07FF3FF800
07FF7FF000
03FF7FE000
01FFFFE000
01FFFFC000
00FFFFC000
00FFFF8000
007FFF8000
0000000000
0000000000
0000000000
0000000000
FFF81FFF00
FFF81FFF00
FFFC1FFF00
FFFC1FFF00
FFFC1FFF00
FFFC1FFF00
FFFC1FFF00
FFFE1FFF00
FFFE1FFF00
FFFE1FFF00
FFFE1FFF00
FFFE1FFF00
FFFF1FFF00
FFFF1FFF00
FFFF1FFF00
FFFF1FFF00
FFFF1FFF00
FFFF1FFF00
FFFF9FFF00
FFFF9FFF00
FFFF9FFF00
FFFF9FFF00
FFFF9FFF00
FFFFDFFF00
FFFFDFFF00
FFFFDFFF00
FFFFDFFF00
FFFFDFFF00
FFFFFFFF00
FFFFFFFF00
FFFFFFFF00
FFFFFFFF00
FFFFFFFF00
FFF7FFFF00
FFF7FFFF00
FFF7FFFF00
FFF7FFFF00
FFF7FFFF00
FFF3FFFF00
FFF3FFFF00
FFF3FFFF00
FFF3FFFF00
FFF3FFFF00
FFF1FFFF00
FFF1FFFF00
FFF1FFFF00
FFF1FFFF00
FFF1FFFF00
FFF0FFFF00
FFF0FFFF00
FFF0FFFF00
FFF0FFFF00
FFF0FFFF00
FFF07FFF00
FFF07FFF00
FFF07FFF00
FFF07FFF00
FFF07FFF00
FFF03FFF00
FFF03FFF00
FFF03FFF00
FFF03FFF00
FFF03FFF00
FFF01FFF00
FFF01FFF00
ENDCHAR
STARTCHAR ncaron
ENCODING 328
SWIDTH 499 0
DWIDTH 37 0
BBX 33 74 2 0
BITMAP
FFFC0FFF80
7FFC1FFF00
3FFC1FFF00
1FFE1FFE00
1FFE1FFC00
0FFE3FFC00
0FFF3FF800
07FF3FF800
07FF7FF000
03FF7FE000
01FFFFE000
01FFFFC000
00FFFFC000
00FFFF8000
007FFF0000
0000000000
0000000000
0000000000
0000040000
7FFC3FE000
7FFC7FF800
7FFCFFFC00
7FFDFFFE00
7FFDFFFE00
7FFFFFFF00
7FFFFFFF00
7FFFFFFF00
7FFFFFFF80
7FFFFFFF80
7FFE1FFF80
7FFC0FFF80
7FFC0FFF80
7FFC0FFF80
7FFC0FFF80
7FFC0FFF80
7FFC0FFF80
7FFC0FFF80
7FFC0FFF80
7FFC0FFF80
7FFC0FFF80
7FFC0FFF80
7FFC0FFF80
7FFC0FFF80
7FFC0FFF80
7FFC0FFF80
7FFC0FFF80
7FFC0FFF80
7FFC0FFF80
7FFC0FFF80
7FFC0FFF80
7FFC0FFF80
7FFC0FFF80
7FFC0FFF80
7FFC0FFF80
7FFC0FFF80
7FFC0FFF80
7FFC0FFF80
7FFC0FFF80
7FFC0FFF80
7FFC0FFF80
7FFC0FFF80
7FFC0FFF80
7FFC0FFF80
7FFC0FFF80
7FFC0FFF80
7FFC0FFF80
7FFC0FFF80
7FFC0FFF80
7FFC0FFF80
7FFC0FFF80
7FFC0FFF80
7FFC0FFF80
7FFC0FFF80
7FFC0FFF80
ENDCHAR
STARTCHAR napostrophe
ENCODING 329
SWIDTH 535 0
DWIDTH 40 0
BBX 40 78 -2 0
BITMAP
FFF8000000
FFF8000000
FFF8000000
FFF8000000
FFF8000000
FFF8000000
FFF8000000
FFF8000000
FFF8000000
FFF8000000
FFF8000000
0FF8000000
0FF0000000
1FF0000000
1FF0000000
1FE0000000
1FE0000000
3FC0000000
3FC0000000
0000000000
0000000000
0000000000
0000000800
01FFF07FC0
01FFF1FFE0
01FFF1FFF8
01FFF3FFF8
01FFF7FFFC
01FFF7FFFC
01FFF7FFFE
01FFFFFFFE
01FFFFFFFE
01FFFFFFFE
01FFFC3FFE
01FFF83FFF
01FFF81FFF
01FFF81FFF
01FFF81FFF
01FFF01FFF
01FFF01FFF
01FFF01FFF
01FFF01FFF
01FFF01FFF
01FFF01FFF
01FFF01FFF
01FFF01FFF
01FFF01FFF
01FFF01FFF
01FFF01FFF
01FFF01FFF
01FFF01FFF
01FFF01FFF
01FFF01FFF
01FFF01FFF
01FFF01FFF
01FFF01FFF
01FFF01FFF
01FFF01FFF
01FFF01FFF
01FFF01FFF
01FFF01FFF
01FFF01FFF
01FFF01FFF
01FFF01FFF
01FFF01FFF
01FFF01FFF
01FFF01FFF
01FFF01FFF
01FFF01FFF
01FFF01FFF
01FFF01FFF
01FFF01FFF
01FFF01FFF
01FFF01FFF
01FFF01FFF
01FFF01FFF
01FFF01FFF
01FFF01FFF
ENDCHAR
STARTCHAR Eng
ENCODING 330
SWIDTH 491 0
DWIDTH 37 0
BBX 33 83 2 -18
BITMAP
7FFC0FFF80
7FFC0FFF80
7FFE0FFF80
7FFE0FFF80
7FFE0FFF80
7FFE0FFF80
7FFE0FFF80
7FFF0FFF80
7FFF0FFF80
7FFF0FFF80
7FFF0FFF80
7FFF0FFF80
7FFF8FFF80
7FFF8FFF80
7FFF8FFF80
7FFF8FFF80
7FFF8FFF80
7FFF8FFF80
7FFFCFFF80
7FFFCFFF80
7FFFCFFF80
7FFFCFFF80
7FFFCFFF80
7FFFEFFF80
7FFFEFFF80
7FFFEFFF80
7FFFEFFF80
7FFFEFFF80
7FFFFFFF80
7FFFFFFF80
7FFFFFFF80
7FFFFFFF80
7FFFFFFF80
7FFBFFFF80
7FFBFFFF80
7FFBFFFF80
7FFBFFFF80
7FFBFFFF80
7FF9FFFF80
7FF9FFFF80
7FF9FFFF80
7FF9FFFF80
7FF9FFFF80
7FF8FFFF80
7FF8FFFF80
7FF8FFFF80
7FF8FFFF80
7FF8FFFF80
7FF87FFF80
7FF87FFF80
7FF87FFF80
7FF87FFF80
7FF87FFF80
7FF83FFF80
7FF83FFF80
7FF83FFF80
7FF83FFF80
7FF83FFF80
7FF81FFF80
7FF81FFF80
7FF81FFF80
7FF81FFF80
7FF81FFF80
7FF81FFF80
7FF81FFF80
00001FFF80
00001FFF00
00001FFF00
00001FFF00
00001FFF00
00001FFF00
10003FFF00
1C007FFF00
3FC0FFFE00
3FFFFFFE00
3FFFFFFC00
7FFFFFFC00
7FFFFFF800
FFFFFFF000
3FFFFFE000
0FFFFFC000
01FFFF0000
001FF80000
ENDCHAR
STARTCHAR eng
ENCODING 331
SWIDTH 489 0
DWIDTH 37 0
BBX 32 74 3 -18
BITMAP
00000800
FFF87FC0
FFF8FFF0
FFF9FFF8
FFFBFFFC
FFFBFFFC
FFFFFFFE
FFFFFFFE
FFFFFFFE
FFFFFFFF
FFFFFFFF
FFFC3FFF
FFF81FFF
FFF81FFF
FFF81FFF
FFF81FFF
FFF81FFF
FFF81FFF
FFF81FFF
FFF81FFF
FFF81FFF
FFF81FFF
FFF81FFF
FFF81FFF
FFF81FFF
FFF81FFF
FFF81FFF
FFF81FFF
FFF81FFF
FFF81FFF
FFF81FFF
FFF81FFF
FFF81FFF
FFF81FFF
FFF81FFF
FFF81FFF
FFF81FFF
FFF81FFF
FFF81FFF
FFF81FFF
FFF81FFF
FFF81FFF
FFF81FFF
FFF81FFF
FFF81FFF
FFF81FFF
FFF81FFF
FFF81FFF
FFF81FFF
FFF81FFF
FFF81FFF
FFF81FFF
FFF81FFF
FFF81FFF
FFF81FFF
FFF81FFF
00001FFF
00001FFF
00001FFF
00001FFF
00001FFF
00003FFE
20003FFE
3C007FFE
3F81FFFE
7FFFFFFC
7FFFFFFC
7FFFFFF8
FFFFFFF0
FFFFFFF0
7FFFFFC0
1FFFFF80
03FFFE00
003FF000
ENDCHAR
STARTCHAR Omacron
ENCODING 332
SWIDTH 486 0
DWIDTH 36 0
BBX 32 76 2 0
BITMAP
0FFFFFF0
0FFFFFF0
0FFFFFF0
0FFFFFF0
0FFFFFF0
0FFFFFF0
00000000
00000000
00000000
00000000
00008000
003FFE00
01FFFF80
03FFFFE0
07FFFFF0
0FFFFFF8
1FFFFFF8
3FFFFFFC
3FFFFFFC
3FFFFFFE
7FFFFFFE
7FFFFFFE
7FFFFFFF
7FFC3FFF
FFFC1FFF
FFF81FFF
FFF81FFF
FFF81FFF
FFF81FFF
FFF81FFF
FFF81FFF
FFF81FFF
FFF81FFF
FFF81FFF
FFF81FFF
FFF81FFF
FFF81FFF
FFF81FFF
FFF81FFF
FFF81FFF
FFF81FFF
FFF81FFF
FFF81FFF
FFF81FFF
FFF81FFF
FFF81FFF
FFF81FFF
FFF81FFF
FFF81FFF
FFF81FFF
FFF81FFF
FFF81FFF
FFF81FFF
FFF81FFF
FFF81FFF
FFF81FFF
FFF81FFF
FFF81FFF
FFF81FFF
FFF81FFF
FFF81FFF
FFF81FFF
7FFC1FFF
7FFC3FFF
7FFFFFFF
7FFFFFFE
7FFFFFFE
3FFFFFFE
3FFFFFFC
1FFFFFFC
1FFFFFF8
0FFFFFF0
07FFFFE0
03FFFFC0
00FFFF80
003FFE00
ENDCHAR
STARTCHAR omacron
ENCODING 333
SWIDTH 497 0
DWIDTH 37 0
BBX 33 67 2 0
BITMAP
0FFFFFF000
0FFFFFF000
0FFFFFF000
0FFFFFF000
0FFFFFF000
0FFFFFF000
0000000000
0000000000
0000000000
0000000000
0000000000
0000800000
003FFE0000
00FFFF8000
03FFFFE000
07FFFFF000
0FFFFFF800
1FFFFFFC00
1FFFFFFC00
3FFFFFFE00
3FFFFFFE00
7FFFFFFF00
7FFE1FFF00
7FFC1FFF00
FFFC1FFF80
FFFC0FFF80
FFFC0FFF80
FFFC0FFF80
FFFC0FFF80
FFFC0FFF80
FFFC0FFF80
FFFC0FFF80
FFFC0FFF80
FFFC0FFF80
FFFC0FFF80
FFFC0FFF80
FFFC0FFF80
FFFC0FFF80
FFFC0FFF80
FFFC0FFF80
FFFC0FFF80
FFFC0FFF80
FFFC0FFF80
FFFC0FFF80
FFFC0FFF80
FFFC0FFF80
FFFC0FFF80
FFFC0FFF80
FFFC0FFF80
FFFC0FFF80
FFFC0FFF80
FFFC0FFF80
FFFC0FFF80
FFFC0FFF80
FFFC0FFF80
7FFC1FFF80
7FFE1FFF00
7FFFFFFF00
7FFFFFFF00
3FFFFFFE00
3FFFFFFE00
1FFFFFFC00
0FFFFFFC00
07FFFFF800
03FFFFE000
01FFFFC000
003FFF0000
ENDCHAR
STARTCHAR Obreve
ENCODING 334
SWIDTH 486 0
DWIDTH 36 0
BBX 32 82 2 0
BITMAP
3FF007FE
3FF007FE
3FF007FE
3FF81FFE
3FFFFFFE
3FFFFFFC
1FFFFFFC
1FFFFFF8
0FFFFFF8
07FFFFF0
03FFFFE0
00FFFF80
001FFC00
00000000
00000000
00000000
00008000
003FFE00
01FFFF80
03FFFFE0
07FFFFF0
0FFFFFF8
1FFFFFF8
3FFFFFFC
3FFFFFFC
3FFFFFFE
7FFFFFFE
7FFFFFFE
7FFFFFFF
7FFC3FFF
FFFC1FFF
FFF81FFF
FFF81FFF
FFF81FFF
FFF81FFF
FFF81FFF
FFF81FFF
FFF81FFF
FFF81FFF
FFF81FFF
FFF81FFF
FFF81FFF
FFF81FFF
FFF81FFF
FFF81FFF
FFF81FFF
FFF81FFF
FFF81FFF
FFF81FFF
FFF81FFF
FFF81FFF
FFF81FFF
FFF81FFF
FFF81FFF
FFF81FFF
FFF81FFF
FFF81FFF
FFF81FFF
FFF81FFF
FFF81FFF
FFF81FFF
FFF81FFF
FFF81FFF
FFF81FFF
FFF81FFF
FFF81FFF
FFF81FFF
FFF81FFF
7FFC1FFF
7FFC3FFF
7FFFFFFF
7FFFFFFE
7FFFFFFE
3FFFFFFE
3FFFFFFC
1FFFFFFC
1FFFFFF8
0FFFFFF0
07FFFFE0
03FFFFC0
00FFFF80
003FFE00
ENDCHAR
STARTCHAR obreve
ENCODING 335
SWIDTH 497 0
DWIDTH 37 0
BBX 33 73 2 0
BITMAP
3FF007FE00
3FF007FE00
3FF007FE00
3FF81FFE00
3FFFFFFE00
3FFFFFFC00
1FFFFFFC00
1FFFFFF800
0FFFFFF800
07FFFFF000
03FFFFE000
00FFFF8000
001FFC0000
0000000000
0000000000
0000000000
0000000000
0000800000
003FFE0000
00FFFF8000
03FFFFE000
07FFFFF000
0FFFFFF800
1FFFFFFC00
1FFFFFFC00
3FFFFFFE00
3FFFFFFE00
7FFFFFFF00
7FFE1FFF00
7FFC1FFF00
FFFC1FFF80
FFFC0FFF80
FFFC0FFF80
FFFC0FFF80
FFFC0FFF80
FFFC0FFF80
FFFC0FFF80
FFFC0FFF80
FFFC0FFF80
FFFC0FFF80
FFFC0FFF80
FFFC0FFF80
FFFC0FFF80
FFFC0FFF80
FFFC0FFF80
FFFC0FFF80
FFFC0FFF80
FFFC0FFF80
FFFC0FFF80
FFFC0FFF80
FFFC0FFF80
FFFC0FFF80
FFFC0FFF80
FFFC0FFF80
FFFC0FFF80
FFFC0FFF80
FFFC0FFF80
FFFC0FFF80
FFFC0FFF80
FFFC0FFF80
FFFC0FFF80
7FFC1FFF80
7FFE1FFF00
7FFFFFFF00
7FFFFFFF00
3FFFFFFE00
3FFFFFFE00
1FFFFFFC00
0FFFFFFC00
07FFFFF800
03FFFFE000
01FFFFC000
003FFF0000
ENDCHAR
STARTCHAR Ohungarumlaut
ENCODING 336
SWIDTH 486 0
DWIDTH 36 0
BBX 35 89 2 0
BITMAP
0002003000
0007C03C00
0007F07F00
0007FE7FC0
000FFCFFE0
000FFCFFC0
000FF9FF80
001FF1FF80
001FF1FF00
003FE3FE00
003FE3FE00
003FC7FC00
007FC7F800
007F8FF800
00FF0FF000
00FF1FE000
00FE1FE000
01FE3FC000
003C078000
0004008000
0000000000
0000000000
0000000000
0000800000
003FFE0000
01FFFF8000
03FFFFE000
07FFFFF000
0FFFFFF800
1FFFFFF800
3FFFFFFC00
3FFFFFFC00
3FFFFFFE00
7FFFFFFE00
7FFFFFFE00
7FFFFFFF00
7FFC3FFF00
FFFC1FFF00
FFF81FFF00
FFF81FFF00
FFF81FFF00
FFF81FFF00
FFF81FFF00
FFF81FFF00
FFF81FFF00
FFF81FFF00
FFF81FFF00
FFF81FFF00
FFF81FFF00
FFF81FFF00
FFF81FFF00
FFF81FFF00
FFF81FFF00
FFF81FFF00
FFF81FFF00
FFF81FFF00
FFF81FFF00
FFF81FFF00
FFF81FFF00
FFF81FFF00
FFF81FFF00
FFF81FFF00
FFF81FFF00
FFF81FFF00
FFF81FFF00
FFF81FFF00
FFF81FFF00
FFF81FFF00
FFF81FFF00
FFF81FFF00
FFF81FFF00
FFF81FFF00
FFF81FFF00
FFF81FFF00
FFF81FFF00
7FFC1FFF00
7FFC3FFF00
7FFFFFFF00
7FFFFFFE00
7FFFFFFE00
3FFFFFFE00
3FFFFFFC00
1FFFFFFC00
1FFFFFF800
0FFFFFF000
07FFFFE000
03FFFFC000
00FFFF8000
003FFE0000
ENDCHAR
STARTCHAR ohungarumlaut
ENCODING 337
SWIDTH 497 0
DWIDTH 37 0
BBX 36 80 2 0
BITMAP
0001001800
0003E01E00
0003F83F80
0003FF3FE0
0007FE7FF0
0007FE7FE0
0007FCFFC0
000FF8FFC0
000FF8FF80
001FF1FF00
001FF1FF00
001FE3FE00
003FE3FC00
003FC7FC00
007F87F800
007F8FF000
007F0FF000
00FF1FE000
001E03C000
0002004000
0000000000
0000000000
0000000000
0000000000
0000800000
003FFE0000
00FFFF8000
03FFFFE000
07FFFFF000
0FFFFFF800
1FFFFFFC00
1FFFFFFC00
3FFFFFFE00
3FFFFFFE00
7FFFFFFF00
7FFE1FFF00
7FFC1FFF00
FFFC1FFF80
FFFC0FFF80
FFFC0FFF80
FFFC0FFF80
FFFC0FFF80
FFFC0FFF80
FFFC0FFF80
FFFC0FFF80
FFFC0FFF80
FFFC0FFF80
FFFC0FFF80
FFFC0FFF80
FFFC0FFF80
FFFC0FFF80
FFFC0FFF80
FFFC0FFF80
FFFC0FFF80
FFFC0FFF80
FFFC0FFF80
FFFC0FFF80
FFFC0FFF80
FFFC0FFF80
FFFC0FFF80
FFFC0FFF80
FFFC0FFF80
FFFC0FFF80
FFFC0FFF80
FFFC0FFF80
FFFC0FFF80
FFFC0FFF80
FFFC0FFF80
7FFC1FFF80
7FFE1FFF00
7FFFFFFF00
7FFFFFFF00
3FFFFFFE00
3FFFFFFE00
1FFFFFFC00
0FFFFFFC00
07FFFFF800
03FFFFE000
01FFFFC000
003FFF0000
ENDCHAR
STARTCHAR OE
ENCODING 338
SWIDTH 649 0
DWIDTH 49 0
BBX 45 65 2 0
BITMAP
0007FFFFFFF0
007FFFFFFFF0
01FFFFFFFFF0
07FFFFFFFFF0
0FFFFFFFFFF0
1FFFFFFFFFF0
3FFFFFFFFFF0
7FFFFFFFFFF0
7FFFFFFFFFF0
7FFFFFFFFFF0
FFFFFFFFFFF0
FFFE1FFF0000
FFFC1FFF0000
FFF81FFF0000
FFF81FFF0000
FFF81FFF0000
FFF81FFF0000
FFF81FFF0000
FFF81FFF0000
FFF81FFF0000
FFF81FFF0000
FFF81FFF0000
FFF81FFF0000
FFF81FFF0000
FFF81FFF0000
FFF81FFFFFF0
FFF81FFFFFF0
FFF81FFFFFF0
FFF81FFFFFF0
FFF81FFFFFF0
FFF81FFFFFF0
FFF81FFFFFF0
FFF81FFFFFF0
FFF81FFFFFF0
FFF81FFFFFF0
FFF81FFFFFF0
FFF81FFF0000
FFF81FFF0000
FFF81FFF0000
FFF81FFF0000
FFF81FFF0000
FFF81FFF0000
FFF81FFF0000
FFF81FFF0000
FFF81FFF0000
FFF81FFF0000
FFF81FFF0000
FFF81FFF0000
FFF81FFF0000
FFF81FFF0000
FFF81FFF0000
FFFC1FFF0000
FFFE1FFF0000
FFFFFFFFFFF8
7FFFFFFFFFF8
7FFFFFFFFFF8
7FFFFFFFFFF8
3FFFFFFFFFF8
3FFFFFFFFFF8
1FFFFFFFFFF8
0FFFFFFFFFF8
03FFFFFFFFF8
01FFFFFFFFF8
003FFFFFFFF8
0003FFFFFFF8
ENDCHAR
ENDFONT
